{
.appVersion = "3193";
.formatVersion = 3;
DisplayStrings = (
wnvwnwnwn,
vnvnw,
niwu,
fq,
gjfpjq
);
customParameters = (
{
name = glyphOrder;
value = (
A,
B,
C,
D,
E,
F,
G,
H,
I,
J,
K,
L,
M,
N,
O,
P,
Q,
R,
S,
T,
U,
V,
W,
X,
Y,
Z,
a,
b,
c,
d,
e,
f,
g,
h,
i,
j,
k,
l,
m,
n,
o,
p,
q,
r,
s,
t,
u,
v,
w,
x,
y,
z,
n.001,
n.002,
o.001,
"ha-ethiopic",
"ma-ethiopic",
"aPharyngeal-ethiopic",
"za-ethiopic",
"za-ethiopic.001",
"za-ethiopic.002",
"za-ethiopic.003",
space,
"za-ethiopic.alt",
a.alt,
a.alt1,
a.alt2,
a.alt3,
a.alt4,
a.alt5,
H.alt,
a.alt6,
H.alt1,
A.alt
);
},
{
name = backdropGlyphLib;
value = {
AE = (
(
A,
1,
0
),
(
E,
1,
0
),
(
OE,
1,
0
)
);
B = (
(
D,
1,
0
),
(
E,
1,
0
),
(
H,
0,
0
),
(
P,
1,
0
),
(
R,
0,
0
),
(
Germandbls,
0,
0
),
(
germandbls,
0,
0
),
(
three,
0,
0
),
(
eight,
0,
0
)
);
C = (
(
D,
0,
0
),
(
G,
1,
0
),
(
O,
1,
0
),
(
Q,
0,
0
)
);
D = (
(
B,
0,
0
),
(
C,
0,
0
),
(
E,
0,
0
),
(
G,
0,
0
),
(
O,
1,
0
),
(
Q,
0,
0
)
);
E = (
(
B,
1,
0
),
(
D,
0,
0
),
(
F,
1,
0
),
(
H,
0,
0
)
);
Eng = (
(
N,
1,
0
),
(
j,
1,
0
)
);
F = (
(
E,
1,
0
),
(
H,
0,
0
)
);
G = (
(
A,
0,
0
),
(
C,
0,
0
),
(
D,
0,
0
),
(
H,
0,
0
),
(
O,
1,
0
),
(
Q,
0,
0
),
(
x,
0,
0
)
);
Germandbls = (
(
B,
1,
0
),
(
S,
1,
0
),
(
T,
0,
0
),
(
germandbls,
0,
0
)
);
H = (
(
B,
0,
0
),
(
D,
0,
0
),
(
E,
0,
0
),
(
F,
0,
0
),
(
I,
0,
0
),
(
J,
0,
0
),
(
K,
0,
0
),
(
L,
0,
0
),
(
M,
0,
0
),
(
N,
1,
0
),
(
P,
0,
0
),
(
R,
0,
0
),
(
U,
1,
0
)
);
I = (
(
B,
0,
0
),
(
D,
0,
0
),
(
E,
0,
0
),
(
F,
0,
0
),
(
H,
0,
0
),
(
J,
0,
0
),
(
K,
0,
0
),
(
L,
0,
0
),
(
M,
0,
0
),
(
N,
0,
0
),
(
P,
0,
0
),
(
R,
0,
0
),
(
T,
1,
0
),
(
U,
0,
0
),
(
Y,
1,
0
),
(
i,
0,
0
),
(
l,
1,
0
),
(
one,
1,
0
)
);
IJ = (
(
I,
0,
0
),
(
J,
1,
0
),
(
U,
1,
0
)
);
J = (
(
I,
1,
0
),
(
U,
0,
0
)
);
K = (
(
B,
0,
0
),
(
H,
0,
0
),
(
I,
1,
0
),
(
R,
0,
0
),
(
X,
0,
0
),
(
Y,
0,
0
)
);
L = (
(
E,
0,
0
),
(
H,
0,
0
),
(
I,
1,
0
)
);
M = (
(
H,
1,
0
),
(
I,
0,
0
),
(
O,
0,
0
),
(
N,
0,
0
),
(
V,
0,
0
),
(
W,
0,
0
)
);
N = (
(
H,
1,
0
),
(
I,

glyphs = (
{
glyphname = A;
lastChange = "2023-05-03 17:01:46 +0000";
layers = (
{
background = {
shapes = (
{
closed = 1;
nodes = (
(429.352,391.082,o),
(464.851,473.816,o),
(424.461,541.132,c),
(424.461,547.75,l),
(504.976,638.191,o),
(618.432,615.029,o),
(618.432,491.5,cs),
(618.432,357.86,o),
(506.094,108.642,o),
(594.01,108.642,cs),
(606.474,108.642,o),
(621.083,119.552,o),
(634.976,138.971,c),
(651.52,108.088,l),
(631.165,45.827,o),
(578.609,0.286,o),
(512.956,0.284,cs),
(391.404,0.279,o),
(386.44,137.185,o),
(401.43,225.876,cs)
);
},
{
closed = 1;
nodes = (
(432.402,385.112,l),
(408.521,442.347,o),
(380.886,474.827,o),
(354.358,474.802,cs),
(298.122,474.747,o),
(246.856,373.563,o),
(246.855,287.918,cs),
(246.853,190.699,o),
(271.504,142.543,o),
(303.891,142.523,cs),
(344.689,142.498,o),
(397.763,218.856,o),
(429.301,369.746,c),
(444.314,280.141,l),
(404.72,100.82,o),
(304.119,0.488,o),
(216.575,0.475,cs),
(-18.098,0.44,o),
(33.845,594.869,o),
(298.982,594.779,cs),
(370.562,594.754,o),
(437.524,527.247,o),
(464.167,394.721,c)
);
}
);
};
layerId = "CDFC0212-EC7A-4000-86F8-EA19B9E6D7F9";
shapes = (
{
closed = 1;
nodes = (
(101.745,223.068,l),
(247.977,199.068,o),
(361.588,200.068,o),
(485.323,243.068,c),
(485.323,161.068,l),
(361.588,118.068,o),
(247.977,97.068,o),
(101.745,141.068,c)
);
},
{
closed = 1;
nodes = (
(155.56,478,l),
(222.659,617.685,o),
(457.744,645.582,o),
(499.886,502.494,cs),
(535.572,381.327,o),
(489.594,102.997,o),
(579.258,102.997,cs),
(591.97,102.997,o),
(603.956,112.888,o),
(612.939,130.494,c),
(638.059,102.494,l),
(633.925,46.044,o),
(579.087,0.754,o),
(512.131,0.751,cs),
(388.164,0.747,o),
(370.667,128.876,o),
(362.272,209.288,cs),
(351.413,313.303,o),
(367.824,402.352,o),
(341.317,470.391,c),
(355.882,472.601,l),
(326.612,349.058,o),
(204.489,178.842,o),
(225.652,59,c),
(224.26,52.956,l),
(206.748,14.426,o),
(145.496,0.468,o),
(96.379,0.468,cs),
(49.115,0.468,o),
(13.136,32.077,o),
(38.227,121.472,cs),
(66.861,223.486,o),
(240.433,414.199,o),
(260.003,483.775,cs),
(276.829,543.596,o),
(205.145,516,o),
(165.793,464,c)
);
}
);
width = 653.52;
}
);
unicode = 65;
},
{
glyphname = D;
lastChange = "2023-04-18 18:30:17 +0000";
layers = (
{
background = {
shapes = (
{
closed = 1;
nodes = (
(578.499,111.89,o),
(541.321,583.989,o),
(69,497,c),
(51.909,576.885,l),
(1005.68,700,o),
(570,-86.04,o),
(145.436,0.284,c),
(-18.535,42.925,o),
(149.506,326.858,o),
(86.941,431.132,c),
(86.941,437.75,l),
(167.456,528.191,o),
(280.912,505.029,o),
(280.912,381.5,cs),
(280.912,285.262,o),
(192.655,186.132,o),
(192.878,138.182,cs),
(192.896,134.304,o),
(193.297,130.761,o),
(194.142,127.581,c)
);
}
);
};
layerId = "CDFC0212-EC7A-4000-86F8-EA19B9E6D7F9";
shapes = (
{
closed = 1;
nodes = (
(578.499,111.89,o),
(541.321,583.989,o),
(69,497,c),
(51.909,576.885,l),
(1005.68,700,o),
(570,-86.04,o),
(145.436,0.284,c),
(-18.535,42.925,o),
(149.506,326.858,o),
(86.941,431.132,c),
(86.941,437.75,l),
(167.456,528.191,o),
(280.912,505.029,o),
(280.912,381.5,cs),
(280.912,285.262,o),
(192.655,186.132,o),
(192.878,138.182,cs),
(192.896,134.304,o),
(193.297,130.761,o),
(194.142,127.581,c)
);
}
);
width = 600;
}
);
unicode = 68;
},
{
glyphname = H;
lastChange = "2023-05-03 17:19:47 +0000";
layers = (
{
background = {
shapes = (
{
closed = 1;
nodes = (
(151.78,365,l),
(281.78,341,o),
(382.78,342,o),
(492.78,385,c),
(492.78,303,l),
(382.78,260,o),
(281.78,259,o),
(151.78,283,c)
);
},
{
closed = 1;
nodes = (
(21.78,455,l),
(36.553,529.734,o),
(122.521,595.149,o),
(194.161,595.157,cs),
(248.819,595.163,o),
(295.137,557.098,o),
(295.137,456.054,cs),
(295.137,333.844,o),
(222.263,194.519,o),
(274.78,79,c),
(275.085,72.956,l),
(268.458,34.426,o),
(217.124,0.468,o),
(168.355,0.468,cs),
(121.426,0.468,o),
(76.873,32.077,o),
(76.821,121.472,cs),
(76.761,223.486,o),
(130.683,374.738,o),
(130.683,444.314,cs),
(130.683,504.135,o),
(70.331,493,o),
(45.78,441,c)
);
},
{
closed = 1;
nodes = (
(418.215,354.581,o),
(450.4,478.966,o),
(413.78,540,c),
(413.78,546,l),
(486.78,628,o),
(607.78,607,o),
(607.78,495,cs),
(607.78,373.833,o),
(505.927,98.503,o),
(585.638,98.503,cs),
(596.939,98.503,o),
(610.184,108.394,o),
(622.78,126,c),
(637.78,98,l),
(619.325,41.55,o),
(553.54,0.26,o),
(494.016,0.257,cs),
(383.808,0.253,o),
(379.308,124.382,o),
(392.899,204.794,cs)
);
}
);
};
layerId = "CDFC0212-EC7A-4000-86F8-EA19B9E6D7F9";
shapes = (
{
closed = 1;
nodes = (
(182.377,345.905,l),
(314.558,321.905,o),
(397.596,322.905,o),
(510.546,365.905,c),
(509.115,283.905,l),
(396.165,240.905,o),
(313.127,239.905,o),
(180.946,263.905,c)
);
},
{
closed = 1;
nodes = (
(30.001,455,l),
(49.035,529.734,o),
(140.194,595.149,o),
(213.267,595.157,cs),
(269.019,595.163,o),
(314.243,557.098,o),
(308.881,456.054,cs),
(302.396,333.844,o),
(220.672,194.519,o),
(268.109,79,c),
(268.1,72.956,l),
(259.296,34.426,o),
(205.133,0.468,o),
(155.389,0.468,cs),
(107.521,0.468,o),
(63.754,32.077,o),
(68.445,121.472,cs),
(73.797,223.486,o),
(136.823,374.738,o),
(140.515,444.314,cs),
(143.69,504.135,o),
(81.54,493,o),
(53.738,441,c)
);
},
{
closed = 1;
nodes = (
(429.036,354.581,o),
(458.865,478.966,o),
(424.752,540,c),
(425.07,546,l),
(503.881,628,o),
(626.187,607,o),
(620.244,495,cs),
(613.814,373.833,o),
(504.914,98.503,o),
(586.219,98.503,cs),
(597.747,98.503,o),
(611.781,108.394,o),
(625.563,126,c),
(639.378,98,l),
(617.558,41.55,o),
(548.266,0.26,o),
(487.552,0.257,cs),
(375.139,0.253,o),
(377.136,124.382,o),
(395.266,204.794,cs)
);
}
);
width = 653.45;
}
);
unicode = 72;
},
{
glyphname = I;
lastChange = "2023-05-03 16:54:21 +0000";
layers = (
{
background = {
shapes = (
{
closed = 1;
nodes = (
(64,546,l),
(137,628,o),
(257,607,o),
(257,495,cs),
(257,373.833,o),
(155.147,89.764,o),
(234.858,89.764,c),
(234.918,9.794,o),
(35.681,-81.335,o),
(35.992,128.791,cs),
(36.156,239.741,o),
(112.897,458.504,o),
(64,540,c)
);
}
);
};
layerId = "CDFC0212-EC7A-4000-86F8-EA19B9E6D7F9";
shapes = (
{
closed = 1;
nodes = (
(64,546,l),
(137,628,o),
(257,607,o),
(257,495,cs),
(257,373.833,o),
(155.147,89.764,o),
(234.858,89.764,c),
(255.393,9.794,o),
(35.681,-81.335,o),
(35.992,128.791,cs),
(36.156,239.741,o),
(112.897,458.504,o),
(64,540,c)
);
}
);
width = 282;
}
);
unicode = 73;
},
{
glyphname = N;
lastChange = "2023-05-03 16:55:15 +0000";
layers = (
{
background = {
shapes = (
{
closed = 1;
nodes = (
(252.186,378.628,l),
(298.861,517.302,o),
(405.258,595.346,o),
(484.945,595.24,cs),
(540.7,595.165,o),
(583.378,555.363,o),
(583.374,462.7,cs),
(583.368,328.861,o),
(494.322,126.961,o),
(566.132,126.961,c),
(584.039,126.961,o),
(597.17,136.512,o),
(605.527,154.419,c),
(623.434,116.992,l),
(598.384,40.367,o),
(534.785,-0.452,o),
(477.06,-0.452,cs),
(239.66,-0.452,o),
(479.105,439.349,o),
(384.248,439.349,cs),
(323.364,439.349,o),
(266.512,336.845,o),
(252.186,260.442,c)
);
},
{
closed = 1;
nodes = (
(10,455,l),
(24.773,529.734,o),
(110.741,595.149,o),
(182.381,595.157,cs),
(237.039,595.163,o),
(283.357,557.098,o),
(283.357,456.054,cs),
(283.357,333.844,o),
(210.483,194.519,o),
(263,79,c),
(263.305,72.956,l),
(256.678,34.426,o),
(205.344,0.468,o),
(156.575,0.468,cs),
(109.646,0.468,o),
(65.093,32.077,o),
(65.041,121.472,cs),
(64.981,223.486,o),
(118.903,374.738,o),
(118.903,444.314,cs),
(118.903,504.135,o),
(58.551,493,o),
(34,441,c)
);
}
);
};
layerId = "CDFC0212-EC7A-4000-86F8-EA19B9E6D7F9";
shapes = (
{
closed = 1;
nodes = (
(252.186,378.628,l),
(298.861,517.302,o),
(405.258,595.346,o),
(484.945,595.24,cs),
(540.7,595.165,o),
(583.378,555.363,o),
(583.374,462.7,cs),
(583.368,328.861,o),
(494.322,126.961,o),
(566.132,126.961,c),
(584.039,126.961,o),
(597.17,136.512,o),
(605.527,154.419,c),
(623.434,116.992,l),
(598.384,40.367,o),
(534.785,-0.452,o),
(477.06,-0.452,cs),
(239.66,-0.452,o),
(479.105,439.349,o),
(384.248,439.349,cs),
(323.364,439.349,o),
(266.512,336.845,o),
(252.186,260.442,c)
);
},
{
closed = 1;
nodes = (
(20,455,l),
(34.773,529.734,o),
(120.741,595.149,o),
(192.381,595.157,cs),
(247.039,595.163,o),
(293.357,557.098,o),
(293.357,456.054,cs),
(293.357,333.844,o),
(210.483,194.519,o),
(263,79,c),
(263.305,72.956,l),
(256.678,34.426,o),
(205.344,0.468,o),
(156.575,0.468,cs),
(109.646,0.468,o),
(65.093,32.077,o),
(65.041,121.472,cs),
(64.981,223.486,o),
(128.903,374.738,o),
(128.903,444.314,cs),
(128.903,504.135,o),
(68.551,493,o),
(44,441,c)
);
}
);
width = 649;
}
);
unicode = 78;
},
{
glyphname = O;
lastChange = "2023-04-18 18:30:17 +0000";
layers = (
{
background = {
shapes = (
{
closed = 1;
nodes = (
(654.908,-6,o),
(724.548,601.177,o),
(360.321,601.177,cs),
(-14.96,601.177,o),
(-94.548,-6,o),
(275.759,-6,cs)
);
},
{
closed = 1;
nodes = (
(183.107,102.341,o),
(193.603,492.822,o),
(325.4,492.822,cs),
(446.893,492.822,o),
(436.291,102.341,o),
(304.436,102.341,cs)
);
}
);
};
layerId = "CDFC0212-EC7A-4000-86F8-EA19B9E6D7F9";
shapes = (
{
closed = 1;
nodes = (
(654.908,-6,o),
(724.548,601.177,o),
(360.321,601.177,cs),
(-14.96,601.177,o),
(-94.548,-6,o),
(275.759,-6,cs)
);
},
{
closed = 1;
nodes = (
(183.107,102.341,o),
(193.603,492.822,o),
(325.4,492.822,cs),
(446.893,492.822,o),
(436.291,102.341,o),
(304.436,102.341,cs)
);
}
);
width = 635;
}
);
unicode = 79;
},
{
glyphname = a;
lastChange = "2023-05-04 18:20:58 +0000";
layers = (
{
background = {
shapes = (
{
closed = 1;
nodes = (
(381.91,160,l),
(327.91,-30,o),
(30.91,-72,o),
(30.91,150,cs),
(30.91,382,o),
(326.91,353,o),
(380.91,210,c)
);
},
{
closed = 1;
nodes = (
(358.626,170.032,l),
(312.626,266.032,o),
(191.91,240,o),
(191.91,160,cs),
(191.91,72,o),
(327.626,113.032,o),
(355.626,168.032,c)
);
},
{
closed = 1;
nodes = (
(208.662,288.168,l),
(61.388,469.818,o),
(630.581,692.497,o),
(535.91,245,cs),
(519.747,168.601,o),
(508.91,103,o),
(545.91,103,c),
(560.91,103,o),
(571.91,111,o),
(578.91,126,c),
(593.91,98,l),
(573.551,35.725,o),
(508.506,0.077,o),
(450.414,0.167,cs),
(396.126,0.252,o),
(347.91,31.295,o),
(347.91,108,cs),
(347.91,150,o),
(357.022,199.758,o),
(369.91,243,cs),
(438.888,474.445,o),
(175.807,458.005,o),
(274.391,288.168,c)
);
}
);
};
layerId = "CDFC0212-EC7A-4000-86F8-EA19B9E6D7F9";
shapes = (
{
closed = 1;
nodes = (
(355.298,300.596,o),
(396.978,370.658,o),
(367.382,463.922,c),
(388.319,487.44,o),
(418.593,499.624,o),
(448.147,499.624,cs),
(496.738,499.624,o),
(543.382,466.689,o),
(543.382,397.047,cs),
(543.382,307.078,o),
(480.014,187.465,o),
(480.014,130.288,cs),
(480.014,110.461,o),
(487.634,98.503,o),
(508.158,98.503,cs),
(519.459,98.503,o),
(532.704,108.394,o),
(545.3,126,c),
(560.3,98,l),
(541.331,39.977,o),
(479.141,0.125,o),
(423.232,0.125,cs),
(370.488,0.125,o),
(323.334,35.594,o),
(323.334,124.737,cs),
(323.334,147.738,o),
(326.459,174.318,o),
(333.419,204.794,cs)
);
},
{
closed = 1;
nodes = (
(403.076,326.323,l),
(382.992,390.684,o),
(348.125,420.785,o),
(313.256,420.785,cs),
(243.012,420.785,o),
(205.267,309.754,o),
(205.267,224.385,cs),
(205.267,171.068,o),
(219.989,127.76,o),
(250.712,127.76,cs),
(284.105,127.76,o),
(334.439,205.561,o),
(371.25,342.06,c),
(374.621,241.543,l),
(341.381,90.999,o),
(260.741,0.105,o),
(182.669,0.194,cs),
(85.348,0.305,o),
(40.002,86.223,o),
(40.002,187.17,cs),
(40.002,331.047,o),
(132.119,505.452,o),
(297.157,505.452,cs),
(364.33,505.452,o),
(424.431,469.318,o),
(447.316,395.109,c)
);
}
);
width = 585.3;
}
);
unicode = 97;
},
{
glyphname = b;
lastChange = "2023-05-04 19:22:59 +0000";
layers = (
{
layerId = "CDFC0212-EC7A-4000-86F8-EA19B9E6D7F9";
shapes = (
{
closed = 1;
nodes = (
(215.074,205.365,l),
(216.876,136.958,o),
(248.932,101.192,o),
(284.776,101.192,cs),
(350.959,101.192,o),
(386.746,206.659,o),
(386.746,289.947,cs),
(386.746,344.291,o),
(371.51,389.192,o),
(339.54,389.192,cs),
(302.361,389.192,o),
(246.489,316.102,o),
(220.451,151.628,c),
(173.496,188.272,l),
(242.38,556.339,o),
(548.12,605.691,o),
(548.12,299.513,cs),
(548.12,160.714,o),
(473.025,-0.105,o),
(332.387,-0.105,cs),
(253.316,-0.105,o),
(182.963,60.783,o),
(183.614,176.385,c)
);
},
{
closed = 1;
nodes = (
(288,528.127,o),
(270.73,413.695,o),
(255.114,331.297,c),
(216.201,139.181,l),
(210.549,139.17,o),
(209.257,133.496,o),
(209.257,124.807,cs),
(209.257,117.483,o),
(210.175,108.017,o),
(210.175,97.994,cs),
(210.175,69.018,o),
(202.501,35.385,o),
(142.786,35.385,cs),
(92.753,35.385,o),
(51.066,49.993,o),
(55.6,81.576,cs),
(70.6,186.06,o),
(125,446.957,o),
(125,558,cs),
(125,610.819,o),
(80.505,591.142,o),
(54,555,c),
(35,575,l),
(62.295,653.874,o),
(132.882,699.628,o),
(192.582,699.628,cs),
(244.391,699.628,o),
(288,665.17,o),
(288,588,c)
);
}
);
width = 573.12;
}
);
unicode = 98;
},
{
glyphname = c;
lastChange = "2023-05-16 14:26:19 +0000";
layers = (
{
layerId = "CDFC0212-EC7A-4000-86F8-EA19B9E6D7F9";
shapes = (
{
closed = 1;
nodes = (
(533.687,313.793,o),
(546.319,507,o),
(345.553,507,cs),
(-11.53,507,o),
(-86.972,-4.516,o),
(258.112,-4.516,cs),
(337.469,-4.516,o),
(423.079,31.016,o),
(487.524,109,c),
(465.302,141.659,l),
(445.585,121.239,o),
(386.334,92.871,o),
(330.312,92.871,cs),
(270.282,92.871,o),
(213.96,125.444,o),
(213.96,235.27,cs),
(213.96,357.357,o),
(272.641,424.16,o),
(314.702,424.16,cs),
(366.647,424.16,o),
(360.193,363.908,o),
(346.529,313.793,c)
);
}
);
width = 511.55;
}
);
unicode = 99;
},
{
glyphname = d;
lastChange = "2023-05-23 02:02:27 +0000";
layers = (
{
background = {
shapes = (
{
closed = 1;
nodes = (
(354.825,354.581,o),
(413.01,555.966,o),
(376.39,617,c),
(376.39,623,l),
(449.39,705,o),
(567.39,684,o),
(567.39,572,cs),
(567.39,450.833,o),
(442.537,98.503,o),
(522.248,98.503,cs),
(533.549,98.503,o),
(546.794,108.394,o),
(559.39,126,c),
(574.39,98,l),
(555.935,41.55,o),
(490.15,0.26,o),
(430.626,0.257,cs),
(320.418,0.253,o),
(315.918,124.382,o),
(329.509,204.794,cs)
);
},
{
closed = 1;
nodes = (
(354.93,335.02,l),
(287.381,496.914,o),
(189.362,348.13,o),
(189.36,233.845,cs),
(189.357,52.798,o),
(303.22,104.584,o),
(354.513,331.861,c),
(368.39,226.794,l),
(335.15,76.25,o),
(246.831,0.105,o),
(168.759,0.194,cs),
(94.77,0.278,o),
(29.985,68.829,o),
(30.004,207.407,cs),
(30.024,347.649,o),
(107.144,507.185,o),
(250.91,507.191,cs),
(306.927,507.194,o),
(368.896,471.019,o),
(386.39,384,c)
);
}
);
};
layerId = "CDFC0212-EC7A-4000-86F8-EA19B9E6D7F9";
shapes = (
{
closed = 1;
nodes = (
(354.825,354.581,o),
(413.01,554.966,o),
(376.39,616,c),
(376.39,622,l),
(449.39,704,o),
(567.39,683,o),
(567.39,571,cs),
(567.39,449.833,o),
(442.537,98.503,o),
(522.248,98.503,cs),
(533.549,98.503,o),
(546.794,108.394,o),
(559.39,126,c),
(574.39,98,l),
(555.935,41.55,o),
(490.15,0.26,o),
(430.626,0.257,cs),
(320.418,0.253,o),
(315.918,124.382,o),
(329.509,204.794,cs)
);
},
{
closed = 1;
nodes = (
(354.93,335.02,l),
(287.381,496.914,o),
(189.362,348.13,o),
(189.36,233.845,cs),
(189.357,52.798,o),
(303.22,104.584,o),
(354.513,331.861,c),
(368.39,226.794,l),
(335.15,76.25,o),
(246.831,0.105,o),
(168.759,0.194,cs),
(94.77,0.278,o),
(29.985,68.829,o),
(30.004,207.407,cs),
(30.024,347.649,o),
(107.144,507.185,o),
(250.91,507.191,cs),
(306.927,507.194,o),
(368.896,471.019,o),
(386.39,384,c)
);
}
);
width = 586.39;
}
);
unicode = 100;
},
{
glyphname = e;
lastChange = "2023-05-16 14:20:04 +0000";
layers = (
{
background = {
shapes = (
{
closed = 1;
nodes = (
(140.253,507,o),
(35.857,349.48,o),
(35.744,209.012,cs),
(35.627,63.825,o),
(134.449,-4.541,o),
(245.294,-4.597,cs),
(328.063,-4.638,o),
(417.535,33.408,o),
(477.524,106,c),
(455.302,138.659,l),
(452.402,129.841,o),
(384.186,88.344,o),
(321.022,88.436,cs),
(265.542,88.518,o),
(213.96,120.686,o),
(213.96,235.27,cs),
(213.96,348.007,o),
(261.75,415.051,o),
(298.68,415.014,cs),
(366.149,414.947,o),
(381.991,165.871,o),
(130.72,278.752,c),
(131.088,230.197,l),
(468.919,23.727,o),
(626.401,507,o),
(325.553,507,cs)
);
}
);
};
layerId = "CDFC0212-EC7A-4000-86F8-EA19B9E6D7F9";
shapes = (
{
closed = 1;
nodes = (
(316.271,236.759,o),
(366.596,312.244,o),
(366.596,366.471,cs),
(366.596,398.513,o),
(349.027,423.133,o),
(324.06,423.133,cs),
(277.821,423.133,o),
(216.96,375.692,o),
(216.96,235.27,cs),
(216.96,125.616,o),
(273.789,93.249,o),
(335.469,93.249,cs),
(397.385,93.249,o),
(464.189,125.864,o),
(483.302,145.659,c),
(505.524,113,l),
(440.939,34.847,o),
(348.548,-3.456,o),
(263.28,-3.456,cs),
(-91.12,-3.456,o),
(-9.847,507,o),
(348.553,507,cs),
(455.772,507,o),
(507.803,446.005,o),
(507.803,376.274,cs),
(507.803,283.233,o),
(415.17,174.64,o),
(237.406,174.64,cs),
(215.539,174.64,o),
(192.384,176.283,o),
(167.954,179.801,c),
(166.309,223.394,l)
);
}
);
width = 542.8;
}
);
unicode = 101;
},
{
glyphname = f;
lastChange = "2023-05-23 12:57:42 +0000";
layers = (
{
layerId = "CDFC0212-EC7A-4000-86F8-EA19B9E6D7F9";
shapes = (
{
closed = 1;
nodes = (
(39.523,437.238,o),
(40,454.572,o),
(45.477,481.905,c),
(137.658,497.905,o),
(222.696,502.905,o),
(336.646,499.905,c),
(346.169,472.572,o),
(345.692,445.238,o),
(335.215,417.905,c),
(221.265,425.905,o),
(136.227,415.905,o),
(44.046,409.905,c)
);
},
{
closed = 1;
nodes = (
(475.136,677,o),
(486.033,526.643,o),
(329.875,526.643,c),
(359.709,589.859,o),
(359.719,616.031,o),
(339.875,616.031,cs),
(277.723,616.031,o),
(214.458,299.884,o),
(201.162,18.92,c),
(150.756,-15.504,o),
(52.996,-10.484,o),
(29.996,39.488,c),
(83.179,592.146,o),
(171.047,677,o),
(337.509,677,cs)
);
}
);
width = 363.86;
},
{
associatedMasterId = "CDFC0212-EC7A-4000-86F8-EA19B9E6D7F9";
layerId = "5C991851-B402-4C40-9516-0357264299C7";
name = "ðŸ‘May 22, 23, 23:48";
shapes = (
{
closed = 1;
nodes = (
(46.523,437.238,o),
(47,454.572,o),
(52.477,481.905,c),
(144.658,497.905,o),
(217.696,502.905,o),
(331.646,499.905,c),
(341.169,472.572,o),
(340.692,445.238,o),
(330.215,417.905,c),
(216.265,425.905,o),
(143.227,415.905,o),
(51.046,409.905,c)
);
},
{
closed = 1;
nodes = (
(455.136,677,o),
(466.033,526.643,o),
(309.875,526.643,c),
(339.709,589.859,o),
(339.719,616.031,o),
(319.875,616.031,cs),
(257.723,616.031,o),
(194.458,109.884,o),
(181.162,-171.08,c),
(130.756,-205.504,o),
(32.996,-200.484,o),
(9.996,-150.512,c),
(72.595,500,o),
(151.047,677,o),
(317.509,677,cs)
);
}
);
width = 338.37;
},
{
associatedMasterId = "CDFC0212-EC7A-4000-86F8-EA19B9E6D7F9";
layerId = "F6F0FCBA-36B1-42E2-BD10-2B4804F95C4E";
name = "May 23, 23, 08:51";
shapes = (
{
closed = 1;
nodes = (
(58.523,437.238,o),
(59,454.572,o),
(64.477,481.905,c),
(156.658,497.905,o),
(229.696,502.905,o),
(343.646,499.905,c),
(353.169,472.572,o),
(352.692,445.238,o),
(342.215,417.905,c),
(228.265,425.905,o),
(155.227,415.905,o),
(63.046,409.905,c)
);
},
{
closed = 1;
nodes = (
(475.136,677,o),
(486.033,526.643,o),
(329.875,526.643,c),
(359.709,589.859,o),
(359.719,616.031,o),
(339.875,616.031,cs),
(277.723,616.031,o),
(214.458,299.884,o),
(201.162,18.92,c),
(150.756,-15.504,o),
(52.996,-10.484,o),
(29.996,39.488,c),
(83.179,592.146,o),
(171.047,677,o),
(337.509,677,cs)
);
}
);
width = 363.86;
},
{
associatedMasterId = "CDFC0212-EC7A-4000-86F8-EA19B9E6D7F9";
layerId = "5E294A60-9976-40B6-8F3F-1390044053C1";
name = "May 23, 23, 08:56";
shapes = (
{
closed = 1;
nodes = (
(53.543,437.238,o),
(54.02,454.572,o),
(59.497,481.905,c),
(151.678,497.905,o),
(218.716,502.905,o),
(332.666,499.905,c),
(342.189,472.572,o),
(341.712,445.238,o),
(331.235,417.905,c),
(217.285,425.905,o),
(150.247,415.905,o),
(58.066,409.905,c)
);
},
{
closed = 1;
nodes = (
(470.156,737,o),
(477.053,546.643,o),
(310.895,546.643,c),
(340.729,609.859,o),
(330.739,676.031,o),
(310.895,676.031,cs),
(248.743,676.031,o),
(229.76,322.166,o),
(236.464,41.202,c),
(194.522,-11.222,o),
(122.957,-13.646,o),
(61.016,11.93,c),
(86.106,629.859,o),
(162.067,737,o),
(322.529,737,cs)
);
}
);
width = 339.39;
}
);
unicode = 102;
},
{
glyphname = g;
lastChange = "2023-05-23 13:46:12 +0000";
layers = (
{
layerId = "CDFC0212-EC7A-4000-86F8-EA19B9E6D7F9";
shapes = (
{
closed = 1;
nodes = (
(354.93,335.02,l),
(287.381,496.914,o),
(189.362,348.13,o),
(189.36,233.845,cs),
(189.357,52.798,o),
(303.22,104.584,o),
(354.513,331.861,c),
(368.39,226.794,l),
(335.15,76.25,o),
(246.831,0.105,o),
(168.759,0.194,cs),
(94.77,0.278,o),
(29.985,68.829,o),
(30.004,207.407,cs),
(30.024,347.649,o),
(107.144,507.185,o),
(250.91,507.191,cs),
(306.927,507.194,o),
(368.896,471.019,o),
(386.39,384,c)
);
},
{
closed = 1;
nodes = (
(490.189,407.326,o),
(512.931,-283.663,o),
(284.154,-283.663,cs),
(98.259,-283.663,o),
(26.795,-83.281,o),
(336.532,134.978,c),
(354.871,101.076,l),
(137.342,-88.154,o),
(201.677,-171.497,o),
(226.532,-171.497,cs),
(274.32,-171.497,o),
(325.231,12.729,o),
(342.325,186.396,cs),
(353.744,302.405,o),
(358.997,413.702,o),
(358.997,462.227,cs),
(358.997,502.728,o),
(505.38,527.944,o),
(530.905,453.424,c),
(532.905,447.424,l)
);
}
);
width = 552.9;
}
);
unicode = 103;
},
{
glyphname = h;
lastChange = "2023-05-23 01:57:56 +0000";
layers = (
{
background = {
shapes = (
{
closed = 1;
nodes = (
(202,288,l),
(218.939,366,o),
(312,500,o),
(421.579,500,cs),
(621,500,o),
(412,103,o),
(503,103,c),
(518,103,o),
(529,111,o),
(536,126,c),
(551,98,l),
(534,46,o),
(488,0,o),
(412,0,cs),
(186,0,o),
(411,363,o),
(323,363,cs),
(272,363,o),
(218.939,288.662,o),
(206.939,224.662,c)
);
},
{
closed = 1;
nodes = (
(273,488.491,o),
(225.606,368.531,o),
(209,285,cs),
(202.943,254.53,o),
(206.854,240.173,o),
(206.939,224.662,cs),
(207.341,151.718,o),
(220,151.718,o),
(220,84,cs),
(220,42.376,o),
(178.929,-0.149,o),
(128.793,-0.149,cs),
(80.462,-0.149,o),
(30,32.861,o),
(30,79,cs),
(30,203.495,o),
(130.9,535.5,o),
(82,617,c),
(82,623,l),
(155,705,o),
(273,684,o),
(273,572,cs)
);
}
);
};
layerId = "CDFC0212-EC7A-4000-86F8-EA19B9E6D7F9";
shapes = (
{
closed = 1;
nodes = (
(236.816,398.512,o),
(273,498.798,o),
(273,572,cs),
(273,684,o),
(155,705,o),
(82,623,c),
(82,617,l),
(130.9,538.53,o),
(30,218.867,o),
(30,99,cs),
(30,41.202,o),
(68.414,-0.149,o),
(123.793,-0.149,cs),
(187.226,-0.149,o),
(220,47.43,o),
(220,94,cs),
(220,156.904,o),
(199.401,182.532,o),
(206.939,224.502,cs),
(218.477,288.747,o),
(272,363,o),
(323,363,cs),
(411,363,o),
(186,0,o),
(412,0,cs),
(488,0,o),
(534,46,o),
(551,98,c),
(536,126,l),
(529,111,o),
(518,103,o),
(503,103,cs),
(412,103,o),
(621,500,o),
(421.579,500,cs),
(326.786,500,o),
(244.353,399.722,o),
(212.868,322.166,c),
(216.642,318.381,l)
);
}
);
width = 571;
}
);
unicode = 104;
},
{
glyphname = i;
lastChange = "2023-05-17 17:52:40 +0000";
layers = (
{
background = {
shapes = (
{
closed = 1;
nodes = (
(20,398,l),
(40.926,457.882,o),
(110.838,500.007,o),
(171.12,500.128,cs),
(223.147,500.233,o),
(268,469.052,o),
(268,391,cs),
(268,309,o),
(214,201,o),
(214,143,cs),
(214,88.87,o),
(256.267,94.43,o),
(271,126,c),
(286,98,l),
(265.645,35.737,o),
(204.631,-2.191,o),
(149.22,-2.174,cs),
(94.919,-2.158,o),
(46,34.297,o),
(46,120,cs),
(46,206.726,o),
(100,291.425,o),
(100,366,cs),
(100,420.579,o),
(63.438,411.324,o),
(39,378,c)
);
}
);
};
layerId = "CDFC0212-EC7A-4000-86F8-EA19B9E6D7F9";
shapes = (
{
closed = 1;
nodes = (
(22.581,370.815,l),
(29.315,449.922,o),
(100.838,500.007,o),
(161.12,500.128,cs),
(213.147,500.233,o),
(258,469.052,o),
(258,391,cs),
(258,309,o),
(214,201,o),
(214,143,cs),
(214,88.87,o),
(256.267,94.43,o),
(271,126,c),
(286,98,l),
(265.645,35.737,o),
(204.631,-2.191,o),
(149.22,-2.174,cs),
(94.919,-2.158,o),
(46,34.297,o),
(46,120,cs),
(46,206.726,o),
(90,270.984,o),
(90,345.559,cs),
(90,400.138,o),
(51.766,399.633,o),
(29.315,367.001,c)
);
},
{
closed = 1;
nodes = (
(242.03,563.737,o),
(285.061,603.418,o),
(288.479,652.368,cs),
(291.896,701.319,o),
(254.406,741,o),
(204.742,741,cs),
(155.077,741,o),
(112.046,701.319,o),
(108.628,652.368,cs),
(105.211,603.418,o),
(142.7,563.737,o),
(192.365,563.737,cs)
);
}
);
width = 303.7;
}
);
unicode = 105;
},
{
glyphname = j;
lastChange = "2023-05-23 13:46:15 +0000";
layers = (
{
layerId = "CDFC0212-EC7A-4000-86F8-EA19B9E6D7F9";
shapes = (
{
closed = 1;
nodes = (
(238.491,563.737,o),
(283.045,606.863,o),
(283.045,658.542,cs),
(283.045,704.612,o),
(246.65,741,o),
(199.092,741,cs),
(147.316,741,o),
(102.762,697.874,o),
(102.762,646.194,cs),
(102.762,600.125,o),
(139.156,563.737,o),
(186.715,563.737,cs)
);
},
{
closed = 1;
nodes = (
(213.599,407.326,o),
(256.341,-283.663,o),
(27.564,-283.663,cs),
(-158.331,-283.663,o),
(-210.574,-86.695,o),
(79.163,101.564,c),
(97.502,67.662,l),
(-169.308,-147.416,o),
(-9.588,-358.77,o),
(50.625,59.624,c),
(72.59,212.248,o),
(82.407,395.892,o),
(82.407,462.227,cs),
(82.407,502.728,o),
(228.79,527.944,o),
(254.315,453.424,c),
(256.315,447.424,l)
);
}
);
width = 288.05;
}
);
unicode = 106;
},
{
glyphname = k;
lastChange = "2023-05-23 01:58:14 +0000";
layers = (
{
layerId = "CDFC0212-EC7A-4000-86F8-EA19B9E6D7F9";
shapes = (
{
closed = 1;
nodes = (
(187.226,-0.149,o),
(220,47.43,o),
(220,94,cs),
(220,156.904,o),
(199.864,182.612,o),
(206.939,224.662,cs),
(219.727,300.673,o),
(270.897,368.037,o),
(331.442,368.037,cs),
(360.515,368.037,o),
(382.884,351.683,o),
(382.884,326.826,cs),
(382.884,283.729,o),
(321.048,244.743,o),
(289.468,229.43,c),
(189.596,-13.322,o),
(466.537,-83.181,o),
(551.094,113.705,c),
(545.368,119.734,l),
(494.954,98.869,o),
(389.258,159.878,o),
(376.883,248.282,c),
(344.956,199.642,l),
(476.121,241.932,o),
(527.363,322.676,o),
(527.363,389.803,cs),
(527.363,450.461,o),
(485.522,500,o),
(423,500,cs),
(316.922,500,o),
(253.622,388.404,o),
(209.784,324.845,c),
(216.409,317.457,l),
(236.583,397.588,o),
(273,498.798,o),
(273,572,cs),
(273,684,o),
(155,705,o),
(82,623,c),
(82,617,l),
(130.9,538.53,o),
(30,218.867,o),
(30,99,cs),
(30,41.202,o),
(68.414,-0.149,o),
(123.793,-0.149,cs)
);
}
);
width = 551.09;
}
);
unicode = 107;
},
{
glyphname = l;
lastChange = "2023-05-23 01:58:25 +0000";
layers = (
{
background = {
shapes = (
{
closed = 1;
nodes = (
(78.765,354.581,o),
(110.95,478.966,o),
(74.33,540,c),
(74.33,546,l),
(147.33,628,o),
(268.33,607,o),
(268.33,495,cs),
(268.33,373.833,o),
(166.477,98.503,o),
(246.188,98.503,cs),
(257.489,98.503,o),
(270.734,108.394,o),
(283.33,126,c),
(298.33,98,l),
(279.875,41.55,o),
(214.09,0.26,o),
(154.566,0.257,cs),
(44.358,0.253,o),
(39.858,124.382,o),
(53.449,204.794,cs)
);
},
{
pos = (13,0);
ref = h;
}
);
};
layerId = "CDFC0212-EC7A-4000-86F8-EA19B9E6D7F9";
shapes = (
{
closed = 1;
nodes = (
(287,414.736,o),
(168.932,103.996,o),
(238.706,103.996,cs),
(257.571,103.996,o),
(279.531,120.906,o),
(290.33,136,c),
(305.33,108,l),
(293.657,47.483,o),
(220.217,-1.859,o),
(162.93,-1.859,cs),
(102.46,-1.859,o),
(47.6,36.834,o),
(47.6,140.724,cs),
(47.6,244.208,o),
(110,419.957,o),
(110,531,cs),
(110,578.579,o),
(107.542,587.258,o),
(99.469,600.89,c),
(98.469,604.359,l),
(130.3,694.246,o),
(287,709.328,o),
(287,561,c)
);
}
);
width = 315.33;
}
);
unicode = 108;
},
{
glyphname = m;
lastChange = "2023-05-17 17:38:54 +0000";
layers = (
{
layerId = "CDFC0212-EC7A-4000-86F8-EA19B9E6D7F9";
shapes = (
{
closed = 1;
nodes = (
(34.1,367,l),
(70.099,404.578,o),
(99.645,384.454,o),
(99.645,349.423,cs),
(99.645,293.335,o),
(60.1,180.684,o),
(60.1,99,cs),
(60.1,41,o),
(104.1,0,o),
(150.1,0,cs),
(203.1,0,o),
(250.1,48,o),
(250.1,94,cs),
(250.1,158.184,o),
(224.946,182.771,o),
(232.1,224.5,cs),
(243.103,288.679,o),
(297,371,o),
(348,371,cs),
(405.563,371,o),
(331.623,175.53,o),
(331.623,98.683,cs),
(331.623,31.202,o),
(376.884,-0.584,o),
(423.414,-0.584,cs),
(477.476,-0.584,o),
(521.717,38.341,o),
(521.717,93.537,cs),
(521.717,144.17,o),
(508.05,181.102,o),
(510.267,219.148,cs),
(515.096,282.51,o),
(574.231,371,o),
(624,371,cs),
(721.546,371,o),
(486.674,0,o),
(713,0,cs),
(789,0,o),
(835,46,o),
(852,98,c),
(837,126,l),
(830,111,o),
(819,103,o),
(804,103,cs),
(711.358,103,o),
(932.414,500,o),
(723,500,cs),
(627.026,500,o),
(562.979,408.651,o),
(518.217,344.176,c),
(527.78,335.282,l),
(546.21,407.372,o),
(538.058,500,o),
(446,500,cs),
(350.88,500,o),
(270.452,389.18,o),
(239.218,321.958,c),
(248.238,311.706,l),
(289.28,399.355,o),
(263.563,500,o),
(177.1,500,cs),
(69.1,500,o),
(26.084,413.759,o),
(28.069,370.518,c)
);
}
);
width = 857;
},
{
associatedMasterId = "CDFC0212-EC7A-4000-86F8-EA19B9E6D7F9";
layerId = "AF8EEDE7-964D-403D-8EC9-0AC3BB8BA25E";
name = "May 17, 23, 13:27";
shapes = (
{
closed = 1;
nodes = (
(5,381,l),
(12,419,o),
(69,500,o),
(177,500,cs),
(245.099,500,o),
(277.017,457.856,o),
(277.017,402.648,cs),
(277.017,370.301,o),
(266.059,333.468,o),
(245,298,cs),
(228,270,o),
(235,237,o),
(232,205,c),
(228,156,o),
(250,121,o),
(250,85,cs),
(250,42,o),
(203,0,o),
(150,0,cs),
(104,0,o),
(60,35,o),
(60,86,c),
(60,198,o),
(91,266,o),
(101,314,cs),
(104.196,328.673,o),
(105.619,341.277,o),
(105.619,351.948,cs),
(105.619,384.961,o),
(91.998,399.47,o),
(75.103,399.47,cs),
(59.867,399.47,o),
(41.97,387.67,o),
(29,367,c)
);
},
{
closed = 1;
nodes = (
(233,318,l),
(277,380,o),
(333,500,o),
(443,500,cs),
(512.731,500,o),
(532.366,451.255,o),
(532.366,387.925,cs),
(532.366,326.618,o),
(484.723,233.753,o),
(518.729,88.537,cs),
(540.165,-3,o),
(328.623,-62.442,o),
(328.623,107.683,cs),
(328.623,184.53,o),
(402.563,363,o),
(345,363,cs),
(294,363,o),
(245,283,o),
(233,219,c)
);
},
{
closed = 1;
nodes = (
(497,318,l),
(541,380,o),
(613,500,o),
(723,500,cs),
(792.731,500,o),
(812.366,451.255,o),
(812.366,387.925,cs),
(812.366,306.283,o),
(779.734,200.404,o),
(779.734,143.477,cs),
(779.734,118.543,o),
(785.994,103,o),
(804,103,c),
(819,103,o),
(830,111,o),
(837,126,c),
(852,98,l),
(835,46,o),
(789,0,o),
(713,0,cs),
(631.451,0,o),
(608.623,47.264,o),
(608.623,107.683,cs),
(608.623,184.53,o),
(686.327,363,o),
(624,363,cs),
(573,363,o),
(509.015,278.48,o),
(507.015,214.48,c)
);
}
);
width = 857;
}
);
unicode = 109;
},
{
glyphname = n;
lastChange = "2023-05-17 17:35:55 +0000";
layers = (
{
background = {
shapes = (
{
closed = 1;
nodes = (
(5.1,381,l),
(12.1,419,o),
(69.1,500,o),
(177.1,500,cs),
(285.1,500,o),
(302.1,394,o),
(245.1,298,cs),
(228.1,270,o),
(235.1,237,o),
(232.1,205,c),
(228.1,156,o),
(250.1,121,o),
(250.1,85,cs),
(250.1,42,o),
(203.1,0,o),
(150.1,0,cs),
(104.1,0,o),
(60.1,35,o),
(60.1,86,c),
(60.1,198,o),
(91.1,266,o),
(101.1,314,cs),
(123.1,415,o),
(61.1,418,o),
(29.1,367,c)
);
},
{
closed = 1;
nodes = (
(233.1,318,l),
(277.1,380,o),
(341.1,500,o),
(451.1,500,cs),
(650.1,500,o),
(441.1,103,o),
(532.1,103,c),
(547.1,103,o),
(558.1,111,o),
(565.1,126,c),
(580.1,98,l),
(563.1,46,o),
(517.1,0,o),
(441.1,0,cs),
(215.1,0,o),
(440.1,363,o),
(352.1,363,cs),
(301.1,363,o),
(245.1,283,o),
(233.1,219,c)
);
}
);
};
layerId = "CDFC0212-EC7A-4000-86F8-EA19B9E6D7F9";
shapes = (
{
closed = 1;
nodes = (
(65.099,404.578,o),
(94.645,384.454,o),
(94.645,349.423,cs),
(94.645,293.335,o),
(55.1,180.684,o),
(55.1,99,cs),
(55.1,41,o),
(99.1,0,o),
(145.1,0,cs),
(198.1,0,o),
(245.1,48,o),
(245.1,94,cs),
(245.1,158.184,o),
(220.946,182.612,o),
(227.1,224.5,cs),
(238.905,304.858,o),
(301.1,363,o),
(347.1,363,cs),
(435.1,363,o),
(210.1,0,o),
(436.1,0,cs),
(512.1,0,o),
(558.1,46,o),
(575.1,98,c),
(560.1,126,l),
(553.1,111,o),
(542.1,103,o),
(527.1,103,cs),
(436.1,103,o),
(645.1,500,o),
(446.1,500,cs),
(356.236,500,o),
(264.665,383.913,o),
(234.434,320.787,c),
(242.372,310.348,l),
(285.237,401.22,o),
(262.081,500,o),
(172.1,500,cs),
(64.1,500,o),
(21.084,413.759,o),
(23.069,370.518,c),
(29.1,367,l)
);
}
);
width = 595.1;
}
);
unicode = 110;
},
{
glyphname = o;
lastChange = "2023-05-17 17:18:08 +0000";
layers = (
{
background = {
shapes = (
{
closed = 1;
nodes = (
(590.73,-6,o),
(653.73,507,o),
(324.23,507,cs),
(-15.27,507,o),
(-87.27,-6,o),
(247.73,-6,cs)
);
},
{
closed = 1;
nodes = (
(183.105,85.5,o),
(191.073,415.5,o),
(291.125,415.5,cs),
(383.355,415.5,o),
(375.306,85.5,o),
(275.211,85.5,cs)
);
}
);
};
layerId = "CDFC0212-EC7A-4000-86F8-EA19B9E6D7F9";
shapes = (
{
closed = 1;
nodes = (
(590.73,-6,o),
(653.73,507,o),
(324.23,507,cs),
(-15.27,507,o),
(-87.27,-6,o),
(247.73,-6,cs)
);
},
{
closed = 1;
nodes = (
(180.101,78.9,o),
(188.388,422.1,o),
(291.442,422.1,cs),
(386.361,422.1,o),
(377.99,78.9,o),
(274.891,78.9,cs)
);
}
);
width = 570.86;
}
);
unicode = 111;
},
{
glyphname = p;
lastChange = "2023-05-17 17:45:43 +0000";
layers = (
{
layerId = "CDFC0212-EC7A-4000-86F8-EA19B9E6D7F9";
shapes = (
{
closed = 1;
nodes = (
(234.569,146.359,o),
(176.384,-83.026,o),
(213.004,-144.06,c),
(213.004,-150.06,l),
(140.004,-232.06,o),
(22.004,-211.06,o),
(22.004,-99.06,cs),
(22.004,-7.213,o),
(93.745,233.55,o),
(93.745,344.689,cs),
(93.745,404.965,o),
(49.104,390.357,o),
(30.004,367.04,c),
(22.77,371.206,l),
(22.77,440.359,o),
(99.244,500.68,o),
(158.768,500.683,cs),
(268.976,500.687,o),
(273.476,376.558,o),
(259.885,296.146,cs)
);
},
{
closed = 1;
nodes = (
(228.074,205.365,l),
(229.876,136.958,o),
(261.932,101.192,o),
(297.776,101.192,cs),
(363.959,101.192,o),
(399.746,206.659,o),
(399.746,289.947,cs),
(399.746,344.291,o),
(384.51,389.192,o),
(352.54,389.192,cs),
(315.361,389.192,o),
(259.489,316.102,o),
(233.451,151.628,c),
(186.496,188.272,l),
(255.38,556.339,o),
(561.12,605.691,o),
(561.12,299.513,cs),
(561.12,160.714,o),
(486.025,-0.105,o),
(345.387,-0.105,cs),
(266.316,-0.105,o),
(195.963,60.783,o),
(196.614,176.385,c)
);
}
);
width = 601.12;
}
);
unicode = 112;
},
{
color = 9;
glyphname = q;
lastChange = "2023-05-23 13:45:48 +0000";
layers = (
{
layerId = "CDFC0212-EC7A-4000-86F8-EA19B9E6D7F9";
shapes = (
{
closed = 1;
nodes = (
(347.267,204.802,o),
(373.89,306.871,o),
(382.407,462.227,c),
(382.407,502.728,o),
(528.79,527.944,o),
(554.315,453.424,c),
(556.315,447.424,l),
(524.234,373.733,o),
(479.593,49.698,o),
(479.593,-43.812,cs),
(479.593,-104.088,o),
(524.234,-89.48,o),
(543.334,-66.163,c),
(550.568,-70.329,l),
(550.568,-139.482,o),
(474.094,-199.803,o),
(414.57,-199.806,cs),
(304.362,-199.81,o),
(299.862,-75.681,o),
(313.453,4.731,cs)
);
},
{
closed = 1;
nodes = (
(379.542,294.843,l),
(377.74,363.25,o),
(345.684,399.016,o),
(309.84,399.016,cs),
(243.657,399.016,o),
(207.87,293.549,o),
(207.87,210.261,cs),
(207.87,155.917,o),
(223.106,111.016,o),
(255.076,111.016,cs),
(292.255,111.016,o),
(348.127,184.106,o),
(374.165,348.58,c),
(421.12,311.936,l),
(352.236,-56.131,o),
(46.496,-105.483,o),
(46.496,200.695,cs),
(46.496,339.494,o),
(121.591,500.313,o),
(262.229,500.313,cs),
(341.3,500.313,o),
(411.653,439.425,o),
(411.002,323.823,c)
);
}
);
width = 600;
},
{
associatedMasterId = "CDFC0212-EC7A-4000-86F8-EA19B9E6D7F9";
layerId = "5287E19D-C27F-4C85-8167-0CC79ADEE8D2";
name = "May 23, 23, 09:44";
shapes = (
{
closed = 1;
nodes = (
(403.076,326.323,l),
(382.992,390.684,o),
(348.125,420.785,o),
(313.256,420.785,cs),
(243.012,420.785,o),
(205.267,309.754,o),
(205.267,224.385,cs),
(205.267,171.068,o),
(219.989,127.76,o),
(250.712,127.76,cs),
(284.105,127.76,o),
(334.439,205.561,o),
(371.25,342.06,c),
(374.621,241.543,l),
(341.381,90.999,o),
(260.741,0.105,o),
(182.669,0.194,cs),
(85.348,0.305,o),
(40.002,86.223,o),
(40.002,187.17,cs),
(40.002,331.047,o),
(132.119,505.452,o),
(297.157,505.452,cs),
(364.33,505.452,o),
(424.431,469.318,o),
(447.316,395.109,c)
);
},
{
closed = 1;
nodes = (
(382.407,462.227,c),
(382.407,502.728,o),
(528.79,527.944,o),
(554.315,453.424,c),
(556.315,447.424,l),
(524.234,373.733,o),
(479.593,49.698,o),
(479.593,-43.812,cs),
(479.593,-104.088,o),
(524.234,-89.48,o),
(543.334,-66.163,c),
(550.568,-70.329,l),
(550.568,-139.482,o),
(474.094,-199.803,o),
(414.57,-199.806,cs),
(304.362,-199.81,o),
(299.862,-75.681,o),
(313.453,4.731,cs),
(347.267,204.802,o),
(373.89,306.871,o)
);
}
);
width = 600;
}
);
unicode = 113;
},
{
glyphname = r;
lastChange = "2023-05-17 17:49:07 +0000";
layers = (
{
layerId = "CDFC0212-EC7A-4000-86F8-EA19B9E6D7F9";
shapes = (
{
closed = 1;
nodes = (
(367.086,500.978,o),
(300.449,434.976,o),
(247.413,316.628,c),
(255.238,311.706,l),
(296.28,399.355,o),
(270.563,500,o),
(184.1,500,cs),
(76.1,500,o),
(33.084,413.759,o),
(35.069,370.518,c),
(41.1,367,l),
(77.099,412.578,o),
(106.645,392.454,o),
(106.645,349.423,cs),
(106.645,293.335,o),
(67.1,180.684,o),
(67.1,99,cs),
(67.1,41,o),
(111.1,0,o),
(157.1,0,cs),
(210.1,0,o),
(257.1,48,o),
(257.1,94,cs),
(257.1,158.184,o),
(231.729,182.809,o),
(239.1,224.5,cs),
(263.778,364.071,o),
(364.841,352.105,o),
(369.642,278.197,c),
(373.522,275.759,l),
(493.145,272.759,o),
(524.231,500.978,o),
(419.553,500.978,cs)
);
}
);
width = 508.11;
}
);
unicode = 114;
},
{
glyphname = s;
lastChange = "2023-05-16 14:22:34 +0000";
layers = (
{
background = {
shapes = (
{
closed = 1;
nodes = (
(-55.103,-5.776,o),
(-25.103,204.652,o),
(142.742,204.652,c),
(142.742,24.225,o),
(295.654,51.278,o),
(295.431,115.144,cs),
(295.145,196.954,o),
(62.857,209.595,o),
(62.857,349.996,cs),
(62.857,520.001,o),
(469.573,563,o),
(469.541,418.711,cs),
(469.526,346.952,o),
(409.347,314.102,o),
(348.162,314.102,c),
(348.162,447.342,o),
(241.414,452.963,o),
(241.414,386.413,cs),
(241.414,284.561,o),
(484.751,286.284,o),
(484.847,157.354,cs),
(484.909,73.309,o),
(352.221,-5.639,o),
(221.976,-5.682,cs)
);
}
);
};
layerId = "CDFC0212-EC7A-4000-86F8-EA19B9E6D7F9";
shapes = (
{
closed = 1;
nodes = (
(-55.103,-5.776,o),
(-25.103,204.652,o),
(142.742,204.652,c),
(142.742,24.225,o),
(295.654,51.278,o),
(295.431,115.144,cs),
(295.145,196.954,o),
(62.857,209.595,o),
(62.857,349.996,cs),
(62.857,520.001,o),
(469.573,563,o),
(469.541,418.711,cs),
(469.526,346.952,o),
(409.347,331.374,o),
(348.162,331.374,c),
(348.162,447.342,o),
(241.414,452.963,o),
(241.414,386.413,cs),
(241.414,284.561,o),
(484.751,286.284,o),
(484.847,157.354,cs),
(484.909,73.309,o),
(352.221,-5.639,o),
(221.976,-5.682,cs)
);
}
);
width = 499.85;
}
);
unicode = 115;
},
{
glyphname = t;
lastChange = "2023-05-23 03:46:27 +0000";
layers = (
{
layerId = "CDFC0212-EC7A-4000-86F8-EA19B9E6D7F9";
shapes = (
{
closed = 1;
nodes = (
(18.543,427.238,o),
(19.02,454.572,o),
(24.497,481.905,c),
(100.678,502.905,o),
(192.716,502.905,o),
(306.666,499.905,c),
(316.189,472.572,o),
(315.712,435.238,o),
(305.235,407.905,c),
(191.285,415.905,o),
(99.247,410.905,o),
(23.066,399.905,c)
);
},
{
closed = 1;
nodes = (
(270.508,611.147,o),
(194.419,295.834,o),
(194.419,162.574,cs),
(194.419,67.903,o),
(238.276,97.802,o),
(258.45,126,c),
(276.45,103,l),
(252.93,-18.934,o),
(23.72,-67.858,o),
(23.72,140.724,cs),
(23.72,209.074,o),
(102.067,604.033,o),
(102.067,632.227,cs),
(102.067,673.61,o),
(251.705,697.199,o),
(276.975,623.424,c)
);
}
);
width = 323.47;
},
{
associatedMasterId = "CDFC0212-EC7A-4000-86F8-EA19B9E6D7F9";
layerId = "72F8DEB3-6C2A-4E95-8AD9-D2027DD37F9D";
name = "May 22, 23, 22:18";
shapes = (
{
closed = 1;
nodes = (
(53.543,437.238,o),
(54.02,454.572,o),
(59.497,481.905,c),
(151.678,497.905,o),
(218.716,502.905,o),
(332.666,499.905,c),
(342.189,472.572,o),
(341.712,445.238,o),
(331.235,417.905,c),
(217.285,425.905,o),
(150.247,415.905,o),
(58.066,409.905,c)
);
},
{
closed = 1;
nodes = (
(306.508,555.147,o),
(230.419,295.834,o),
(230.419,162.574,cs),
(230.419,67.903,o),
(274.276,97.802,o),
(294.45,126,c),
(312.45,103,l),
(288.93,-18.934,o),
(59.72,-67.858,o),
(59.72,140.724,cs),
(59.72,209.074,o),
(138.067,548.033,o),
(138.067,576.227,cs),
(138.067,617.61,o),
(287.705,641.199,o),
(312.975,567.424,c)
);
}
);
width = 339.47;
}
);
unicode = 116;
},
{
color = 9;
glyphname = u;
lastChange = "2023-05-23 13:38:58 +0000";
layers = (
{
layerId = "CDFC0212-EC7A-4000-86F8-EA19B9E6D7F9";
shapes = (
{
closed = 1;
nodes = (
(329.822,253.778,o),
(400.166,316.68,o),
(369.691,440.203,c),
(369.712,446.922,l),
(418.535,532.163,o),
(553.536,518.08,o),
(553.536,403.847,cs),
(553.536,334.566,o),
(489.818,214.756,o),
(489.818,140.075,cs),
(489.818,116.383,o),
(497.513,101.13,o),
(518.289,101.13,cs),
(530.053,101.13,o),
(544.189,110.213,o),
(557.63,129,c),
(572.63,101,l),
(552.411,39.153,o),
(492.969,-0.064,o),
(435.328,-0.064,cs),
(380.125,-0.064,o),
(329.822,39.925,o),
(329.822,128.882,cs)
);
},
{
closed = 1;
nodes = (
(57.141,-26.717,o),
(57.141,126.988,cs),
(57.141,213.534,o),
(97.185,316.991,o),
(97.185,364.344,cs),
(97.185,405.007,o),
(53.236,403.52,o),
(35.655,369.214,c),
(28.002,371.673,l),
(28.002,453.759,o),
(98.375,500.505,o),
(161.745,500.505,cs),
(213.646,500.505,o),
(266.85,469.149,o),
(266.85,400.171,cs),
(266.85,324.319,o),
(185.912,135.832,o),
(261.764,135.832,cs),
(291.718,135.832,o),
(342.375,203.412,o),
(368.717,312.077,c),
(378.643,229.055,l),
(254.851,-89.942,o)
);
}
);
width = 597.63;
},
{
associatedMasterId = "CDFC0212-EC7A-4000-86F8-EA19B9E6D7F9";
layerId = "99CDD44C-CF36-41DD-B8AE-20AEB91BDB61";
name = "May 23, 23, 09:33";
shapes = (
{
closed = 1;
nodes = (
(329.822,253.778,o),
(400.166,316.68,o),
(369.691,440.203,c),
(369.712,446.922,l),
(418.535,532.163,o),
(553.536,518.08,o),
(553.536,403.847,cs),
(553.536,334.566,o),
(489.818,214.756,o),
(489.818,140.075,cs),
(489.818,116.383,o),
(497.513,101.13,o),
(518.289,101.13,cs),
(530.053,101.13,o),
(544.189,110.213,o),
(557.63,129,c),
(572.63,101,l),
(552.411,39.153,o),
(492.969,-0.064,o),
(435.328,-0.064,cs),
(380.125,-0.064,o),
(329.822,39.925,o),
(329.822,128.882,cs)
);
},
{
closed = 1;
nodes = (
(57.141,-26.717,o),
(57.141,126.988,cs),
(57.141,213.534,o),
(97.185,316.991,o),
(97.185,364.344,cs),
(97.185,405.007,o),
(53.236,403.52,o),
(35.655,369.214,c),
(28.002,371.673,l),
(28.002,453.759,o),
(98.375,500.505,o),
(161.745,500.505,cs),
(213.646,500.505,o),
(266.85,469.149,o),
(266.85,400.171,cs),
(266.85,324.319,o),
(185.912,135.832,o),
(261.764,135.832,cs),
(291.718,135.832,o),
(342.375,203.412,o),
(368.717,312.077,c),
(378.643,229.055,l),
(254.851,-89.942,o)
);
}
);
width = 597.63;
},
{
associatedMasterId = "CDFC0212-EC7A-4000-86F8-EA19B9E6D7F9";
layerId = "E3E9C9D9-3F22-4619-8A29-5F16EB7412B4";
name = "May 23, 23, 09:35";
shapes = (
{
closed = 1;
nodes = (
(378.643,229.055,l),
(297.349,-56.104,o),
(65.744,-47.932,o),
(65.744,104.789,cs),
(65.744,188.977,o),
(100.528,294.624,o),
(100.528,352.273,cs),
(100.528,398.209,o),
(47.367,399.365,o),
(30.971,364.507,c),
(24.41,368.177,l),
(24.41,531.153,o),
(276.609,543.227,o),
(276.609,391.361,cs),
(276.609,317.226,o),
(200.629,135.832,o),
(261.764,135.832,cs),
(291.718,135.832,o),
(342.375,203.412,o),
(368.717,312.077,c)
);
},
{
closed = 1;
nodes = (
(329.822,253.778,o),
(400.166,316.68,o),
(369.691,440.203,c),
(369.712,446.922,l),
(418.535,532.163,o),
(553.536,518.08,o),
(553.536,403.847,cs),
(553.536,334.566,o),
(489.818,214.756,o),
(489.818,140.075,cs),
(489.818,116.383,o),
(497.513,101.13,o),
(518.289,101.13,cs),
(530.053,101.13,o),
(544.189,110.213,o),
(557.63,129,c),
(572.63,101,l),
(552.411,39.153,o),
(492.969,-0.064,o),
(435.328,-0.064,cs),
(380.125,-0.064,o),
(329.822,39.925,o),
(329.822,128.882,cs)
);
}
);
width = 597.63;
}
);
unicode = 117;
},
{
color = 9;
glyphname = v;
lastChange = "2023-05-23 13:36:59 +0000";
layers = (
{
layerId = "CDFC0212-EC7A-4000-86F8-EA19B9E6D7F9";
shapes = (
{
closed = 1;
nodes = (
(171.057,110.112,o),
(246.909,110.112,cs),
(289.016,110.112,o),
(351.81,171.252,o),
(351.81,358.89,cs),
(351.81,394.914,o),
(347.751,426.764,o),
(339.417,447.737,c),
(339.417,453.284,l),
(354.96,479.508,o),
(408.854,510.207,o),
(452.24,510.207,cs),
(492.347,510.207,o),
(527.748,473.973,o),
(527.748,393.722,cs),
(527.748,124.482,o),
(320.679,0.041,o),
(179.566,0.041,cs),
(100.867,0.041,o),
(49.571,41.857,o),
(49.571,126.988,cs),
(49.571,213.534,o),
(89.615,316.991,o),
(89.615,364.344,cs),
(89.615,405.007,o),
(44.048,400.171,o),
(25.693,371.483,c),
(21.43,374.918,l),
(19.978,443.298,o),
(90.849,499.674,o),
(158.407,499.674,cs),
(209.677,499.674,o),
(253.28,471.235,o),
(253.28,400.171,cs),
(253.28,324.319,o)
);
}
);
width = 552.75;
}
);
unicode = 118;
},
{
color = 9;
glyphname = w;
lastChange = "2023-05-23 13:37:05 +0000";
layers = (
{
layerId = "CDFC0212-EC7A-4000-86F8-EA19B9E6D7F9";
shapes = (
{
closed = 1;
nodes = (
(430.837,349.89,l),
(430.837,171.252,o),
(299.586,110.112,o),
(257.479,110.112,cs),
(181.627,110.112,o),
(263.85,324.319,o),
(263.85,400.171,cs),
(263.85,469.149,o),
(210.646,500.505,o),
(158.745,500.505,cs),
(95.375,500.505,o),
(25.002,453.759,o),
(25.002,371.673,c),
(32.655,369.214,l),
(50.236,403.52,o),
(94.185,405.007,o),
(94.185,364.344,cs),
(94.185,316.991,o),
(54.141,213.534,o),
(54.141,126.988,cs),
(54.141,41.857,o),
(105.437,0.041,o),
(184.136,0.041,cs),
(325.249,0.041,o),
(536.318,124.482,o),
(536.318,384.722,cs),
(536.318,443.318,o),
(520.551,483.29,o),
(463.301,483.29,cs),
(367.076,483.29,o),
(308.283,374.923,o),
(375.917,110.438,c),
(478.767,193.283,l)
);
},
{
closed = 1;
nodes = (
(400.902,184.452,l),
(408.839,159.599,o),
(367.076,129.206,o),
(375.917,110.438,c),
(471.291,-92.028,o),
(832.318,-26.375,o),
(832.318,393.722,cs),
(832.318,473.973,o),
(796.917,510.207,o),
(756.81,510.207,cs),
(713.424,510.207,o),
(659.53,479.508,o),
(643.987,453.284,c),
(643.987,447.737,l),
(652.321,426.764,o),
(656.38,394.914,o),
(656.38,358.89,cs),
(656.38,67,o),
(478.767,47.921,o),
(470.982,220.838,c)
);
}
);
width = 867.32;
},
{
associatedMasterId = "CDFC0212-EC7A-4000-86F8-EA19B9E6D7F9";
layerId = "547E8274-EA01-409C-997B-816A22AC14C5";
name = "May 22, 23, 23:56";
shapes = (
{
closed = 1;
nodes = (
(422.267,349.89,l),
(422.267,171.252,o),
(289.016,110.112,o),
(246.909,110.112,cs),
(227.943,110.112,o),
(214.189,122.516,o),
(214.189,142.174,cs),
(214.189,199.952,o),
(253.28,309.05,o),
(253.28,403.171,cs),
(253.28,474.235,o),
(209.677,502.674,o),
(158.407,502.674,cs),
(90.849,502.674,o),
(26.978,453.298,o),
(15,387,c),
(34,367,l),
(40.882,384.921,o),
(55.916,395.514,o),
(68.62,395.514,cs),
(80.063,395.514,o),
(89.615,386.919,o),
(89.615,367.344,cs),
(89.615,319.991,o),
(49.571,213.534,o),
(49.571,126.988,cs),
(49.571,41.857,o),
(100.867,0.041,o),
(179.566,0.041,cs),
(320.679,0.041,o),
(527.748,124.482,o),
(527.748,384.722,cs),
(527.748,463.318,o),
(511.981,503.29,o),
(454.731,503.29,cs),
(358.506,503.29,o),
(299.713,374.923,o),
(367.347,110.438,c),
(478.65,165.665,l)
);
},
{
closed = 1;
nodes = (
(392.332,184.452,l),
(400.269,159.599,o),
(358.506,129.206,o),
(367.347,110.438,c),
(407.213,25.808,o),
(455.381,-0.508,o),
(503.889,-0.508,cs),
(637.305,-0.508,o),
(807.748,153.387,o),
(807.748,384.722,cs),
(807.748,464.973,o),
(772.347,501.207,o),
(732.24,501.207,cs),
(688.854,501.207,o),
(634.96,470.508,o),
(619.417,444.284,c),
(619.417,438.737,l),
(627.751,417.764,o),
(631.81,385.914,o),
(631.81,349.89,cs),
(631.81,171.252,o),
(569.016,110.112,o),
(526.909,110.112,cs),
(507.806,110.112,o),
(483.252,135.969,o),
(462.412,220.838,c)
);
}
);
width = 838.51;
},
{
associatedMasterId = "CDFC0212-EC7A-4000-86F8-EA19B9E6D7F9";
layerId = "5F940095-30CE-4C9B-A36B-7F23537ACAFC";
name = "May 23, 23, 00:05";
shapes = (
{
closed = 1;
nodes = (
(214.189,199.952,o),
(253.28,309.05,o),
(253.28,403.171,cs),
(253.28,474.235,o),
(209.677,502.674,o),
(158.407,502.674,cs),
(90.849,502.674,o),
(26.978,453.298,o),
(15,387,c),
(34,367,l),
(40.882,384.921,o),
(55.916,395.514,o),
(68.62,395.514,cs),
(80.063,395.514,o),
(89.615,386.919,o),
(89.615,367.344,cs),
(89.615,319.991,o),
(49.571,213.534,o),
(49.571,126.988,cs),
(49.571,41.857,o),
(100.867,0.041,o),
(179.566,0.041,cs),
(320.679,0.041,o),
(527.748,124.482,o),
(527.748,384.722,cs),
(527.748,464.973,o),
(492.347,501.207,o),
(452.24,501.207,cs),
(408.854,501.207,o),
(354.96,470.508,o),
(339.417,444.284,c),
(339.417,438.737,l),
(347.751,417.764,o),
(351.81,385.914,o),
(351.81,349.89,cs),
(351.81,171.252,o),
(289.016,110.112,o),
(246.909,110.112,cs),
(227.943,110.112,o),
(214.189,122.516,o),
(214.189,142.174,cs)
);
},
{
closed = 1;
nodes = (
(310.574,357.578,o),
(322.561,236.985,o),
(342.136,175.695,c),
(385.866,38.774,o),
(444.624,-0.508,o),
(503.889,-0.508,cs),
(637.305,-0.508,o),
(807.748,153.387,o),
(807.748,384.722,cs),
(807.748,464.973,o),
(772.347,501.207,o),
(732.24,501.207,cs),
(688.854,501.207,o),
(634.96,470.508,o),
(619.417,444.284,c),
(619.417,438.737,l),
(627.751,417.764,o),
(631.81,385.914,o),
(631.81,349.89,cs),
(631.81,171.252,o),
(569.016,110.112,o),
(526.909,110.112,cs),
(497.222,110.112,o),
(454.374,172.555,o),
(432.75,421.869,cs),
(430.392,449.059,o),
(428.286,462.899,o),
(426.478,494.695,c),
(391.124,494.695,o),
(369.04,465.715,o),
(324.796,441.98,c)
);
}
);
width = 838.51;
},
{
associatedMasterId = "CDFC0212-EC7A-4000-86F8-EA19B9E6D7F9";
layerId = "D24957F3-AB55-4C12-BEF9-DA6DF353E68B";
name = "May 23, 23, 08:48";
shapes = (
{
closed = 1;
nodes = (
(400.807,229.055,l),
(354.645,67.129,o),
(241.238,-0.213,o),
(166.676,-0.213,cs),
(109.932,-0.213,o),
(65.744,38.79,o),
(65.744,104.789,cs),
(65.744,188.977,o),
(100.528,294.624,o),
(100.528,352.273,cs),
(100.528,375.999,o),
(91.019,385.515,o),
(79.426,385.515,cs),
(66.619,385.515,o),
(51.267,373.902,o),
(43.38,357,c),
(20.001,370.684,l),
(38.721,454.609,o),
(116.105,501.448,o),
(181.046,501.448,cs),
(232.775,501.448,o),
(276.609,471.728,o),
(276.609,407.361,cs),
(276.609,360.222,o),
(237.916,250.415,o),
(237.916,184.741,cs),
(237.916,151.179,o),
(248.01,135.832,o),
(262.99,135.832,cs),
(294.425,135.832,o),
(347.375,203.412,o),
(373.717,312.077,c)
);
},
{
closed = 1;
nodes = (
(615.862,135.851,o),
(691.16,317.705,o),
(670.179,438.632,c),
(670.179,444.179,l),
(685.722,470.403,o),
(729.616,501.102,o),
(773.002,501.102,cs),
(939.571,501.102,o),
(803.583,-0.543,o),
(511.214,-0.543,cs),
(314.87,-0.543,o),
(357.69,318.805,o),
(405.082,421.328,cs),
(421.027,455.821,o),
(486.18,499.494,o),
(536.42,499.494,cs),
(568.888,499.494,o),
(580.369,480.516,o),
(580.369,451.231,cs),
(580.369,380.474,o),
(513.342,249.547,o),
(513.342,180.753,cs),
(513.342,153.534,o),
(523.833,135.851,o),
(553.122,135.851,cs)
);
}
);
width = 838.51;
}
);
unicode = 119;
},
{
glyphname = x;
lastChange = "2023-05-12 22:19:03 +0000";
layers = (
{
annotations = (
{
pos = (676.554,-48.97);
type = Text;
}
);
layerId = "CDFC0212-EC7A-4000-86F8-EA19B9E6D7F9";
shapes = (
{
closed = 1;
nodes = (
(49.05,418.918,o),
(94.456,506.764,o),
(172.635,506.764,cs),
(251.232,506.764,o),
(322.151,364.308,o),
(364.711,298.232,cs),
(476.565,124.57,o),
(519.059,90.005,o),
(543.332,162.799,c),
(561.05,153.146,l),
(561.05,81.847,o),
(524.251,-5.999,o),
(444.297,-5.999,cs),
(368.665,-5.999,o),
(291.468,92.553,o),
(235.731,191.705,cs),
(122.348,393.408,o),
(86.694,388.346,o),
(70.769,340.966,c),
(49.05,347.619,l)
);
},
{
closed = 1;
nodes = (
(371.542,641.27,o),
(625.28,520,o),
(529.976,332.963,c),
(453.708,343.16,o),
(395.248,317.578,o),
(354.033,209.85,c),
(332.44,225.112,l)
);
},
{
closed = 1;
nodes = (
(207.99,-148.177,o),
(-36.748,-2.27,o),
(39.556,134.767,c),
(115.824,124.57,o),
(214.284,175.515,o),
(255.499,283.243,c),
(287.092,267.981,l)
);
}
);
width = 591.05;
}
);
unicode = 120;
},
{
glyphname = y;
lastChange = "2023-05-16 13:10:57 +0000";
layers = (
{
layerId = "CDFC0212-EC7A-4000-86F8-EA19B9E6D7F9";
shapes = (
{
closed = 1;
nodes = (
(402.809,178.814,l),
(329.624,82.959,o),
(263.942,0.041,o),
(177.566,0.041,cs),
(98.867,0.041,o),
(47.571,41.857,o),
(47.571,126.988,cs),
(47.571,213.534,o),
(87.615,319.991,o),
(87.615,367.344,cs),
(87.615,386.919,o),
(78.063,395.514,o),
(66.62,395.514,cs),
(53.916,395.514,o),
(38.882,384.921,o),
(32,367,c),
(13,387,l),
(24.978,453.298,o),
(88.849,502.674,o),
(156.407,502.674,cs),
(207.677,502.674,o),
(251.28,474.235,o),
(251.28,403.171,cs),
(251.28,309.05,o),
(212.189,199.952,o),
(212.189,142.174,cs),
(212.189,122.516,o),
(225.943,110.112,o),
(244.909,110.112,cs),
(271.963,110.112,o),
(325.065,155.501,o),
(332.41,228.596,c)
);
},
{
closed = 1;
nodes = (
(476.189,407.326,o),
(473.07,-283.663,o),
(244.293,-283.663,cs),
(86.658,-283.663,o),
(12.795,-83.281,o),
(322.532,124.978,c),
(340.871,91.076,l),
(123.342,-88.154,o),
(187.677,-171.497,o),
(212.532,-171.497,cs),
(260.32,-171.497,o),
(311.231,12.729,o),
(328.325,186.396,cs),
(339.744,302.405,o),
(344.997,413.702,o),
(344.997,462.227,cs),
(344.997,502.728,o),
(491.38,527.944,o),
(516.905,453.424,c),
(518.905,447.424,l)
);
}
);
width = 543.91;
}
);
unicode = 121;
},
{
glyphname = n.001;
lastChange = "2023-04-18 18:30:17 +0000";
layers = (
{
background = {
shapes = (
{
closed = 1;
nodes = (
(219,765,l),
(224,779,o),
(238,787,o),
(253,787,cs),
(268,787,o),
(282,778,o),
(282,748,cs),
(282,734,o),
(276,715,o),
(276,700,cs),
(276,679,o),
(287,673,o),
(287,654,cs),
(287,639,o),
(276,630,o),
(262,630,cs),
(245,630,o),
(238,644,o),
(238,664,cs),
(238,689,o),
(249,724,o),
(249,745,cs),
(249,756,o),
(247,767,o),
(239,767,c),
(236,767,o),
(230,766,o),
(225,757,c)
);
},
{
closed = 1;
nodes = (
(270,729,l),
(279,743,o),
(281,787,o),
(327,787,cs),
(358,787,o),
(363,754,o),
(363,722,cs),
(363,708,o),
(362,695,o),
(362,684,cs),
(362,667,o),
(363,656,o),
(371,656,cs),
(375,656,o),
(383,661,o),
(386,664,c),
(391,657,l),
(391,652,o),
(377,630,o),
(355,630,cs),
(299,630,o),
(348,755,o),
(309,755,cs),
(296,755,o),
(283,742,o),
(276,710,c)
);
},
{
closed = 1;
nodes = (
(546,630,o),
(551,787,o),
(468,787,cs),
(378,787,o),
(371,630,o),
(455,630,cs)
);
},
{
closed = 1;
nodes = (
(425,656,o),
(425,761,o),
(467,761,cs),
(496,761,o),
(498,656,o),
(457,656,cs)
);
}
);
};
guides = (
{
pos = (0,787);
},
{
pos = (0,630);
}
);
layerId = "CDFC0212-EC7A-4000-86F8-EA19B9E6D7F9";
shapes = (
{
closed = 1;
nodes = (
(219,765,l),
(224,779,o),
(238,787,o),
(253,787,cs),
(268,787,o),
(282,778,o),
(282,748,cs),
(282,734,o),
(276,715,o),
(276,700,cs),
(276,679,o),
(287,673,o),
(287,654,cs),
(287,639,o),
(276,630,o),
(262,630,cs),
(245,630,o),
(238,644,o),
(238,664,cs),
(238,689,o),
(249,724,o),
(249,745,cs),
(249,756,o),
(247,767,o),
(239,767,c),
(236,767,o),
(230,766,o),
(225,757,c)
);
},
{
closed = 1;
nodes = (
(270,729,l),
(279,743,o),
(281,787,o),
(327,787,cs),
(358,787,o),
(363,754,o),
(363,722,cs),
(363,708,o),
(362,695,o),
(362,684,cs),
(362,667,o),
(363,656,o),
(371,656,cs),
(375,656,o),
(383,661,o),
(386,664,c),
(391,657,l),
(391,652,o),
(377,630,o),
(355,630,cs),
(299,630,o),
(348,755,o),
(309,755,cs),
(296,755,o),
(283,742,o),
(276,710,c)
);
},
{
closed = 1;
nodes = (
(546,630,o),
(551,787,o),
(468,787,cs),
(378,787,o),
(371,630,o),
(455,630,cs)
);
},
{
closed = 1;
nodes = (
(425,656,o),
(425,761,o),
(467,761,cs),
(496,761,o),
(498,656,o),
(457,656,cs)
);
}
);
width = 600;
}
);
},
{
glyphname = n.002;
lastChange = "2023-05-04 16:31:29 +0000";
layers = (
{
background = {
shapes = (
{
closed = 1;
nodes = (
(5,426,l),
(47,526,o),
(252,581,o),
(252,382,cs),
(252,335,o),
(242,271,o),
(242,221,cs),
(242,150,o),
(268,130,o),
(268,66,cs),
(268,15,o),
(231,-15,o),
(184,-15,cs),
(121,-15,o),
(89,32,o),
(89,100,cs),
(89,168,o),
(146,435,o),
(76,435,cs),
(53,435,o),
(38,421,o),
(27,398,c)
);
},
{
closed = 1;
nodes = (
(221,263,l),
(244,370,o),
(278,516,o),
(433,516,cs),
(583,516,o),
(531,327,o),
(531,207,cs),
(531,149,o),
(534,73,o),
(561,73,cs),
(575,73,o),
(601,90,o),
(612,100,c),
(629,76,l),
(629,59,o),
(561,-15,o),
(487,-15,cs),
(251,-15,o),
(449,382,o),
(343,382,cs),
(300,382,o),
(248,320,o),
(241,211,c)
);
}
);
};
layerId = "CDFC0212-EC7A-4000-86F8-EA19B9E6D7F9";
shapes = (
{
closed = 1;
nodes = (
(5,426,l),
(47,526,o),
(252,581,o),
(252,382,cs),
(252,335,o),
(242,271,o),
(242,221,cs),
(242,150,o),
(268,130,o),
(268,66,cs),
(268,15,o),
(231,-15,o),
(184,-15,cs),
(121,-15,o),
(89,32,o),
(89,100,cs),
(89,168,o),
(146,435,o),
(76,435,cs),
(53,435,o),
(38,421,o),
(27,398,c)
);
},
{
closed = 1;
nodes = (
(221,263,l),
(244,370,o),
(278,516,o),
(433,516,cs),
(583,516,o),
(531,327,o),
(531,207,cs),
(531,149,o),
(534,73,o),
(561,73,cs),
(575,73,o),
(601,90,o),
(612,100,c),
(629,76,l),
(629,59,o),
(561,-15,o),
(487,-15,cs),
(251,-15,o),
(449,382,o),
(343,382,cs),
(300,382,o),
(248,320,o),
(241,211,c)
);
}
);
width = 634;
}
);
},
{
glyphname = o.001;
lastChange = "2023-04-18 18:30:17 +0000";
layers = (
{
background = {
shapes = (
{
closed = 1;
nodes = (
(554,-17,o),
(610,518,o),
(294,518,cs),
(-7,518,o),
(-70,-17,o),
(250,-17,cs)
);
},
{
closed = 1;
nodes = (
(176,79,o),
(186,422,o),
(270,422,cs),
(376,422,o),
(352,79,o),
(270,79,cs)
);
}
);
};
layerId = "CDFC0212-EC7A-4000-86F8-EA19B9E6D7F9";
shapes = (
{
closed = 1;
nodes = (
(554,-17,o),
(610,518,o),
(294,518,cs),
(-7,518,o),
(-70,-17,o),
(250,-17,cs)
);
},
{
closed = 1;
nodes = (
(176,79,o),
(186,422,o),
(270,422,cs),
(376,422,o),
(352,79,o),
(270,79,cs)
);
}
);
width = 547;
}
);
},
{
glyphname = "ha-ethiopic";
lastChange = "2023-04-18 18:30:17 +0000";
layers = (
{
background = {
shapes = (
{
closed = 1;
nodes = (
(409,592,o),
(405,606,o),
(386,610,c),
(394,636,o),
(416,678,o),
(470,678,c),
(525,678,o),
(537,653,o),
(543,589,c),
(550,501,o),
(529,401,o),
(514,319,c),
(491,191,o),
(432,59,o),
(252,8,c),
(229,2,o),
(199,-2,o),
(157,3,c),
(96,12,o),
(41,67,o),
(53,167,c),
(65,269,o),
(85,347,o),
(97,447,c),
(99,462,o),
(117,571,o),
(77,590,c),
(128,655,o),
(232,643,o),
(232,542,c),
(232,527,o),
(230,514,o),
(228,501,c),
(203,355,o),
(203,324,o),
(182,181,c),
(163,65,o),
(227,54,o),
(266,74,c),
(322,103,o),
(361,154,o),
(389,320,c),
(402,397,o),
(430,506,o),
(415,568,c)
);
}
);
};
layerId = "CDFC0212-EC7A-4000-86F8-EA19B9E6D7F9";
shapes = (
{
closed = 1;
nodes = (
(409,592,o),
(405,606,o),
(386,610,c),
(394,636,o),
(416,678,o),
(470,678,c),
(525,678,o),
(537,653,o),
(543,589,c),
(550,501,o),
(529,401,o),
(514,319,c),
(491,191,o),
(432,59,o),
(252,8,c),
(229,2,o),
(199,-2,o),
(157,3,c),
(96,12,o),
(41,67,o),
(53,167,c),
(65,269,o),
(85,347,o),
(97,447,c),
(99,462,o),
(117,571,o),
(77,590,c),
(128,655,o),
(232,643,o),
(232,542,c),
(232,527,o),
(230,514,o),
(228,501,c),
(203,355,o),
(203,324,o),
(182,181,c),
(163,65,o),
(227,54,o),
(266,74,c),
(322,103,o),
(361,154,o),
(389,320,c),
(402,397,o),
(430,506,o),
(415,568,c)
);
}
);
width = 600;
}
);
unicode = 4608;
},
{
glyphname = "ma-ethiopic";
lastChange = "2023-04-18 18:30:17 +0000";
layers = (
{
background = {
shapes = (
{
closed = 1;
nodes = (
(368.304,547.294,o),
(380.361,552.328,o),
(386.218,564.181,c),
(392.656,577.21,o),
(387.621,589.069,o),
(374.101,592.722,c),
(340.539,601.79,o),
(313.032,602.095,o),
(297.252,602.095,c),
(89.717,602.095,o),
(18.733,451.658,o),
(2.292,240.753,c),
(-8,111.049,o),
(42.376,-1.995,o),
(199.863,0.163,c),
(358.14,2.363,o),
(424.34,84.625,o),
(444.238,326.903,c),
(446.752,357.516,o),
(458.639,560.086,o),
(499.645,567.984,c),
(529.052,573.648,o),
(536.64,557.765,o),
(523.023,450.038,c),
(501.684,281.214,l),
(498.5,259.507,o),
(500.171,247.282,o),
(500.171,236.436,c),
(500.171,128.882,o),
(533.236,65.137,o),
(633.816,47.998,c),
(802.293,17.118,o),
(926.003,122.551,o),
(940.397,319.823,c),
(954.11,503.598,o),
(850.094,609.828,o),
(675.086,575.984,c),
(660.546,573.172,o),
(652.27,560.806,o),
(654.839,545.733,c),
(657.263,531.507,o),
(668.041,524.073,o),
(683.656,525.858,c),
(745.719,532.951,o),
(828.385,503.866,o),
(814.656,336.53,c),
(805.575,231.588,o),
(774.71,121.751,o),
(712.763,104.698,c),
(583.888,69.221,o),
(620.92,230.543,o),
(627.626,282.49,c),
(655.65,499.592,o),
(687.87,635.991,o),
(508.104,628.712,c),
(384.683,623.716,o),
(348.779,534.507,o),
(332.072,426.681,c),
(320.923,354.723,o),
(317.256,65.768,o),
(209.336,66.817,c),
(132.369,67.238,o),
(115.361,148.374,o),
(126.842,226.345,c),
(146.752,371.081,o),
(167.477,555.396,o),
(306.027,555.396,c),
(321.332,555.396,o),
(339.255,553.169,o),
(353.125,550.364,c)
);
}
);
};
layerId = "CDFC0212-EC7A-4000-86F8-EA19B9E6D7F9";
shapes = (
{
closed = 1;
nodes = (
(368.304,547.294,o),
(380.361,552.328,o),
(386.218,564.181,c),
(392.656,577.21,o),
(387.621,589.069,o),
(374.101,592.722,c),
(340.539,601.79,o),
(313.032,602.095,o),
(297.252,602.095,c),
(89.717,602.095,o),
(18.733,451.658,o),
(2.292,240.753,c),
(-8,111.049,o),
(42.376,-1.995,o),
(199.863,0.163,c),
(358.14,2.363,o),
(424.34,84.625,o),
(444.238,326.903,c),
(446.752,357.516,o),
(458.639,560.086,o),
(499.645,567.984,c),
(529.052,573.648,o),
(536.64,557.765,o),
(523.023,450.038,c),
(501.684,281.214,l),
(498.5,259.507,o),
(500.171,247.282,o),
(500.171,236.436,c),
(500.171,128.882,o),
(533.236,65.137,o),
(633.816,47.998,c),
(802.293,17.118,o),
(926.003,122.551,o),
(940.397,319.823,c),
(954.11,503.598,o),
(850.094,609.828,o),
(675.086,575.984,c),
(660.546,573.172,o),
(652.27,560.806,o),
(654.839,545.733,c),
(657.263,531.507,o),
(668.041,524.073,o),
(683.656,525.858,c),
(745.719,532.951,o),
(828.385,503.866,o),
(814.656,336.53,c),
(805.575,231.588,o),
(774.71,121.751,o),
(712.763,104.698,c),
(583.888,69.221,o),
(620.92,230.543,o),
(627.626,282.49,c),
(655.65,499.592,o),
(687.87,635.991,o),
(508.104,628.712,c),
(384.683,623.716,o),
(348.779,534.507,o),
(332.072,426.681,c),
(320.923,354.723,o),
(317.256,65.768,o),
(209.336,66.817,c),
(132.369,67.238,o),
(115.361,148.374,o),
(126.842,226.345,c),
(146.752,371.081,o),
(167.477,555.396,o),
(306.027,555.396,c),
(321.332,555.396,o),
(339.255,553.169,o),
(353.125,550.364,c)
);
}
);
width = 942;
}
);
unicode = 4632;
},
{
glyphname = "aPharyngeal-ethiopic";
lastChange = "2023-04-18 18:30:17 +0000";
layers = (
{
background = {
shapes = (
{
closed = 1;
nodes = (
(383,678,o),
(363,675,o),
(344,670,c),
(130,610,o),
(89,436,o),
(63,241,c),
(59,208,o),
(51,174,o),
(51,140,c),
(51,51,o),
(106,1,o),
(194,1,c),
(256,1,o),
(329,32,o),
(378,70,c),
(496,161,o),
(515,299,o),
(533,436,c),
(537,470,o),
(545,504,o),
(545,538,c),
(545,628,o),
(491,678,o),
(403,678,c)
);
},
{
closed = 1;
nodes = (
(191,66,o),
(178,107,o),
(178,143,c),
(178,185,o),
(187,230,o),
(195,272,c),
(222,417,o),
(227,552,o),
(330,604,c),
(340,609,o),
(351,612,o),
(362,612,c),
(406,612,o),
(418,571,o),
(418,535,c),
(418,494,o),
(408,452,o),
(402,412,c),
(388,307,o),
(366,127,o),
(266,74,c),
(256,69,o),
(245,66,o),
(234,66,c)
);
}
);
};
layerId = "CDFC0212-EC7A-4000-86F8-EA19B9E6D7F9";
shapes = (
{
closed = 1;
nodes = (
(383,678,o),
(363,675,o),
(344,670,c),
(130,610,o),
(89,436,o),
(63,241,c),
(59,208,o),
(51,174,o),
(51,140,c),
(51,51,o),
(106,1,o),
(194,1,c),
(256,1,o),
(329,32,o),
(378,70,c),
(496,161,o),
(515,299,o),
(533,436,c),
(537,470,o),
(545,504,o),
(545,538,c),
(545,628,o),
(491,678,o),
(403,678,c)
);
},
{
closed = 1;
nodes = (
(191,66,o),
(178,107,o),
(178,143,c),
(178,185,o),
(187,230,o),
(195,272,c),
(222,417,o),
(227,552,o),
(330,604,c),
(340,609,o),
(351,612,o),
(362,612,c),
(406,612,o),
(418,571,o),
(418,535,c),
(418,494,o),
(408,452,o),
(402,412,c),
(388,307,o),
(366,127,o),
(266,74,c),
(256,69,o),
(245,66,o),
(234,66,c)
);
}
);
width = 600;
}
);
unicode = 4816;
},
{
glyphname = "za-ethiopic";
lastChange = "2023-04-18 18:30:17 +0000";
layers = (
{
background = {
shapes = (
{
closed = 1;
nodes = (
(163,345,l),
(219,458,o),
(341,339,o),
(353,509,c),
(363,396,l),
(323,304,o),
(182,387,o),
(164,242,c)
);
},
{
closed = 1;
nodes = (
(487,422,o),
(427,213,o),
(467,44,c),
(467,37,l),
(416,-17,o),
(290,-21,o),
(290,85,cs),
(290,152,o),
(307,246,o),
(318,312,cs),
(327,370,o),
(342,430,o),
(350,478,cs),
(359,532,o),
(348,585,o),
(330,596,c),
(330,602,l),
(387,667,o),
(506,658,o),
(506,554,c)
);
},
{
closed = 1;
nodes = (
(223,529,o),
(222,516,o),
(219,505,c),
(208,441,o),
(189,363,o),
(173,285,cs),
(156,197,o),
(167,220,o),
(167,74,cs),
(167,-23,o),
(0,-25,o),
(0,69,cs),
(0,158,o),
(14,219,o),
(35,329,cs),
(57,440,o),
(66,552,o),
(45,587,c),
(45,593,l),
(118,675,o),
(223,654,o),
(223,542,cs)
);
}
);
};
layerId = "CDFC0212-EC7A-4000-86F8-EA19B9E6D7F9";
shapes = (
{
closed = 1;
nodes = (
(163,345,l),
(219,458,o),
(341,339,o),
(353,509,c),
(363,396,l),
(323,304,o),
(182,387,o),
(164,242,c)
);
},
{
closed = 1;
nodes = (
(487,422,o),
(427,213,o),
(467,44,c),
(467,37,l),
(416,-17,o),
(290,-21,o),
(290,85,cs),
(290,152,o),
(307,246,o),
(318,312,cs),
(327,370,o),
(342,430,o),
(350,478,cs),
(359,532,o),
(348,585,o),
(330,596,c),
(330,602,l),
(387,667,o),
(506,658,o),
(506,554,c)
);
},
{
closed = 1;
nodes = (
(223,529,o),
(222,516,o),
(219,505,c),
(208,441,o),
(189,363,o),
(173,285,cs),
(156,197,o),
(167,220,o),
(167,74,cs),
(167,-23,o),
(0,-25,o),
(0,69,cs),
(0,158,o),
(14,219,o),
(35,329,cs),
(57,440,o),
(66,552,o),
(45,587,c),
(45,593,l),
(118,675,o),
(223,654,o),
(223,542,cs)
);
}
);
width = 600;
}
);
unicode = 4824;
},
{
glyphname = "za-ethiopic.001";
lastChange = "2023-04-18 18:30:17 +0000";
layers = (
{
background = {
shapes = (
{
closed = 1;
nodes = (
(398,529,o),
(388,563,o),
(388,668,cs),
(388,742,o),
(571,767,o),
(571,706,cs),
(571,624,o),
(517,201,o),
(517,143,cs),
(517,118,o),
(523,103,o),
(541,103,c),
(556,103,o),
(567,111,o),
(574,126,c),
(589,98,l),
(572,46,o),
(526,0,o),
(455,0,cs),
(373,0,o),
(351,53,o),
(351,120,cs),
(351,169,o),
(371,332,o),
(387,453,c),
(388,463,o),
(390,473,o),
(391,483,c)
);
},
{
closed = 1;
nodes = (
(0,643,l),
(39,702,o),
(92,735,o),
(158,735,cs),
(225,735,o),
(251,688,o),
(251,626,cs),
(251,544,o),
(197,201,o),
(197,143,cs),
(197,118,o),
(203,103,o),
(221,103,c),
(236,103,o),
(247,111,o),
(254,126,c),
(269,98,l),
(252,46,o),
(206,0,o),
(135,0,cs),
(53,0,o),
(31,53,o),
(31,120,cs),
(31,193,o),
(77,517,o),
(85,576,cs),
(86,585,o),
(87,594,o),
(87,601,cs),
(87,629,o),
(77,640,o),
(64,640,cs),
(51,640,o),
(35,628,o),
(24,613,c)
);
},
{
closed = 1;
nodes = (
(137,485,l),
(247,468,o),
(348,482,o),
(458,525,c),
(458,443,l),
(348,400,o),
(247,386,o),
(137,403,c)
);
}
);
};
layerId = "CDFC0212-EC7A-4000-86F8-EA19B9E6D7F9";
shapes = (
{
closed = 1;
nodes = (
(398,529,o),
(388,563,o),
(388,668,cs),
(388,742,o),
(571,767,o),
(571,706,cs),
(571,624,o),
(517,201,o),
(517,143,cs),
(517,118,o),
(523,103,o),
(541,103,c),
(556,103,o),
(567,111,o),
(574,126,c),
(589,98,l),
(572,46,o),
(526,0,o),
(455,0,cs),
(373,0,o),
(351,53,o),
(351,120,cs),
(351,169,o),
(371,332,o),
(387,453,c),
(388,463,o),
(390,473,o),
(391,483,c)
);
},
{
closed = 1;
nodes = (
(0,643,l),
(39,702,o),
(92,735,o),
(158,735,cs),
(225,735,o),
(251,688,o),
(251,626,cs),
(251,544,o),
(197,201,o),
(197,143,cs),
(197,118,o),
(203,103,o),
(221,103,c),
(236,103,o),
(247,111,o),
(254,126,c),
(269,98,l),
(252,46,o),
(206,0,o),
(135,0,cs),
(53,0,o),
(31,53,o),
(31,120,cs),
(31,193,o),
(77,517,o),
(85,576,cs),
(86,585,o),
(87,594,o),
(87,601,cs),
(87,629,o),
(77,640,o),
(64,640,cs),
(51,640,o),
(35,628,o),
(24,613,c)
);
},
{
closed = 1;
nodes = (
(137,485,l),
(247,468,o),
(348,482,o),
(458,525,c),
(458,443,l),
(348,400,o),
(247,386,o),
(137,403,c)
);
}
);
width = 600;
}
);
},
{
glyphname = "za-ethiopic.002";
lastChange = "2023-04-18 18:30:17 +0000";
layers = (
{
background = {
shapes = (
{
closed = 1;
nodes = (
(398,529,o),
(388,563,o),
(388,668,cs),
(388,742,o),
(571,767,o),
(571,706,cs),
(571,624,o),
(517,201,o),
(517,143,cs),
(517,118,o),
(523,103,o),
(541,103,c),
(556,103,o),
(567,111,o),
(574,126,c),
(589,98,l),
(572,46,o),
(526,0,o),
(455,0,cs),
(373,0,o),
(351,53,o),
(351,120,cs),
(351,169,o),
(371,332,o),
(387,453,c),
(388,463,o),
(390,473,o),
(391,483,c)
);
},
{
closed = 1;
nodes = (
(137,485,l),
(247,468,o),
(348,482,o),
(458,525,c),
(458,443,l),
(348,400,o),
(247,386,o),
(137,403,c)
);
},
{
closed = 1;
nodes = (
(96,585,o),
(97,594,o),
(97,601,cs),
(97,629,o),
(87,640,o),
(74,640,cs),
(61,640,o),
(45,628,o),
(34,613,c),
(10,643,l),
(49,702,o),
(102,735,o),
(168,735,cs),
(235,735,o),
(253,688,o),
(253,626,cs),
(253,524,o),
(204,168,o),
(204,66,cs),
(204,-8,o),
(34,-23,o),
(34,38,cs),
(34,103,o),
(86,511,o),
(95,576,c)
);
}
);
};
layerId = "CDFC0212-EC7A-4000-86F8-EA19B9E6D7F9";
shapes = (
{
closed = 1;
nodes = (
(398,529,o),
(388,563,o),
(388,668,cs),
(388,742,o),
(571,767,o),
(571,706,cs),
(571,624,o),
(517,201,o),
(517,143,cs),
(517,118,o),
(523,103,o),
(541,103,c),
(556,103,o),
(567,111,o),
(574,126,c),
(589,98,l),
(572,46,o),
(526,0,o),
(455,0,cs),
(373,0,o),
(351,53,o),
(351,120,cs),
(351,169,o),
(371,332,o),
(387,453,c),
(388,463,o),
(390,473,o),
(391,483,c)
);
},
{
closed = 1;
nodes = (
(137,485,l),
(247,468,o),
(348,482,o),
(458,525,c),
(458,443,l),
(348,400,o),
(247,386,o),
(137,403,c)
);
},
{
closed = 1;
nodes = (
(96,585,o),
(97,594,o),
(97,601,cs),
(97,629,o),
(87,640,o),
(74,640,cs),
(61,640,o),
(45,628,o),
(34,613,c),
(10,643,l),
(49,702,o),
(102,735,o),
(168,735,cs),
(235,735,o),
(253,688,o),
(253,626,cs),
(253,524,o),
(204,168,o),
(204,66,cs),
(204,-8,o),
(34,-23,o),
(34,38,cs),
(34,103,o),
(86,511,o),
(95,576,c)
);
}
);
width = 600;
}
);
},
{
glyphname = "za-ethiopic.003";
lastChange = "2023-04-18 18:30:17 +0000";
layers = (
{
background = {
shapes = (
{
closed = 1;
nodes = (
(398,529,o),
(388,544,o),
(388,649,cs),
(388,784,o),
(571,767,o),
(571,632,cs),
(571,550,o),
(517,201,o),
(517,143,cs),
(517,118,o),
(523,103,o),
(541,103,c),
(556,103,o),
(567,111,o),
(574,126,c),
(589,98,l),
(572,46,o),
(526,0,o),
(455,0,cs),
(373,0,o),
(351,53,o),
(351,120,cs),
(351,169,o),
(371,332,o),
(387,453,c),
(388,463,o),
(390,473,o),
(391,483,c)
);
},
{
closed = 1;
nodes = (
(0,643,l),
(39,702,o),
(92,735,o),
(158,735,cs),
(225,735,o),
(251,688,o),
(251,626,cs),
(251,544,o),
(197,201,o),
(197,143,cs),
(197,118,o),
(203,103,o),
(221,103,c),
(236,103,o),
(247,111,o),
(254,126,c),
(269,98,l),
(252,46,o),
(206,0,o),
(135,0,cs),
(53,0,o),
(31,53,o),
(31,120,cs),
(31,193,o),
(77,517,o),
(85,576,cs),
(86,585,o),
(87,594,o),
(87,601,cs),
(87,629,o),
(77,640,o),
(64,640,cs),
(51,640,o),
(35,628,o),
(24,613,c)
);
},
{
closed = 1;
nodes = (
(137,485,l),
(247,468,o),
(348,482,o),
(458,525,c),
(458,443,l),
(348,400,o),
(247,386,o),
(137,403,c)
);
}
);
};
layerId = "CDFC0212-EC7A-4000-86F8-EA19B9E6D7F9";
shapes = (
{
closed = 1;
nodes = (
(398,529,o),
(388,544,o),
(388,649,cs),
(388,784,o),
(571,767,o),
(571,632,cs),
(571,550,o),
(517,201,o),
(517,143,cs),
(517,118,o),
(523,103,o),
(541,103,c),
(556,103,o),
(567,111,o),
(574,126,c),
(589,98,l),
(572,46,o),
(526,0,o),
(455,0,cs),
(373,0,o),
(351,53,o),
(351,120,cs),
(351,169,o),
(371,332,o),
(387,453,c),
(388,463,o),
(390,473,o),
(391,483,c)
);
},
{
closed = 1;
nodes = (
(0,643,l),
(39,702,o),
(92,735,o),
(158,735,cs),
(225,735,o),
(251,688,o),
(251,626,cs),
(251,544,o),
(197,201,o),
(197,143,cs),
(197,118,o),
(203,103,o),
(221,103,c),
(236,103,o),
(247,111,o),
(254,126,c),
(269,98,l),
(252,46,o),
(206,0,o),
(135,0,cs),
(53,0,o),
(31,53,o),
(31,120,cs),
(31,193,o),
(77,517,o),
(85,576,cs),
(86,585,o),
(87,594,o),
(87,601,cs),
(87,629,o),
(77,640,o),
(64,640,cs),
(51,640,o),
(35,628,o),
(24,613,c)
);
},
{
closed = 1;
nodes = (
(137,485,l),
(247,468,o),
(348,482,o),
(458,525,c),
(458,443,l),
(348,400,o),
(247,386,o),
(137,403,c)
);
}
);
width = 600;
}
);
},
{
glyphname = "za-ethiopic.alt";
lastChange = "2023-04-18 18:30:17 +0000";
layers = (
{
background = {
shapes = (
{
closed = 1;
nodes = (
(137.178,351.143,l),
(208.372,453.294,o),
(310.699,338.291,o),
(345.44,490.258,c),
(364.397,380.33,l),
(311.377,302.756,o),
(172.824,411.256,o),
(139.01,262.027,c)
);
},
{
closed = 1;
nodes = (
(464.893,583.574,o),
(460.804,570.817,o),
(459.194,559.504,c),
(403.734,170.026,l),
(398.518,133.39,o),
(398.167,62.604,o),
(422.512,39.705,c),
(395.563,12.697,o),
(370.853,0.939,o),
(349.471,0.939,c),
(311.779,0.939,o),
(284.426,37.477,o),
(284.426,91.432,c),
(284.426,163.323,o),
(301.992,263.505,o),
(314.145,336.351,c),
(324.471,398.254,o),
(339.686,462.267,o),
(348.822,514.453,c),
(361.493,592.74,o),
(349.088,624.317,o),
(326.883,648.224,c),
(352.172,675.232,o),
(377.236,686.99,o),
(398.925,686.99,c),
(437.158,686.99,o),
(465.286,650.322,o),
(464.969,596.497,c)
);
},
{
closed = 1;
nodes = (
(202.362,569.322,o),
(200.51,555.001,o),
(198.435,542.92,c),
(173.224,396.198,o),
(147.962,341.14,o),
(127.032,194.327,c),
(125.529,183.786,o),
(125.362,170.249,o),
(125.362,157.724,c),
(125.362,117.898,o),
(132.362,73.076,o),
(132.362,41.315,c),
(132.362,20.95,o),
(103.762,5.676,o),
(68.639,5.676,c),
(35.365,5.676,o),
(1.01,27.281,o),
(1.01,81.292,c),
(1.01,169.331,o),
(29.564,243.507,o),
(44.623,332.674,c),
(55.623,397.802,o),
(71.433,456.309,o),
(79.732,510.346,c),
(90.847,582.708,o),
(89.764,618.086,o),
(63.955,638.224,c),
(90.924,665.232,o),
(115.652,676.99,o),
(137.051,676.99,c),
(174.773,676.99,o),
(202.354,637.322,o),
(202.148,583.28,c)
);
}
);
};
layerId = "CDFC0212-EC7A-4000-86F8-EA19B9E6D7F9";
shapes = (
{
closed = 1;
nodes = (
(137.178,351.143,l),
(208.372,453.294,o),
(310.699,338.291,o),
(345.44,490.258,c),
(364.397,380.33,l),
(311.377,302.756,o),
(172.824,411.256,o),
(139.01,262.027,c)
);
},
{
closed = 1;
nodes = (
(464.893,583.574,o),
(460.804,570.817,o),
(459.194,559.504,c),
(403.734,170.026,l),
(398.518,133.39,o),
(398.167,62.604,o),
(422.512,39.705,c),
(395.563,12.697,o),
(370.853,0.939,o),
(349.471,0.939,c),
(311.779,0.939,o),
(284.426,37.477,o),
(284.426,91.432,c),
(284.426,163.323,o),
(301.992,263.505,o),
(314.145,336.351,c),
(324.471,398.254,o),
(339.686,462.267,o),
(348.822,514.453,c),
(361.493,592.74,o),
(349.088,624.317,o),
(326.883,648.224,c),
(352.172,675.232,o),
(377.236,686.99,o),
(398.925,686.99,c),
(437.158,686.99,o),
(465.286,650.322,o),
(464.969,596.497,c)
);
},
{
closed = 1;
nodes = (
(202.362,569.322,o),
(200.51,555.001,o),
(198.435,542.92,c),
(173.224,396.198,o),
(147.962,341.14,o),
(127.032,194.327,c),
(125.529,183.786,o),
(125.362,170.249,o),
(125.362,157.724,c),
(125.362,117.898,o),
(132.362,73.076,o),
(132.362,41.315,c),
(132.362,20.95,o),
(103.762,5.676,o),
(68.639,5.676,c),
(35.365,5.676,o),
(1.01,27.281,o),
(1.01,81.292,c),
(1.01,169.331,o),
(29.564,243.507,o),
(44.623,332.674,c),
(55.623,397.802,o),
(71.433,456.309,o),
(79.732,510.346,c),
(90.847,582.708,o),
(89.764,618.086,o),
(63.955,638.224,c),
(90.924,665.232,o),
(115.652,676.99,o),
(137.051,676.99,c),
(174.773,676.99,o),
(202.354,637.322,o),
(202.148,583.28,c)
);
}
);
width = 600;
}
);
},
{
glyphname = a.alt;
lastChange = "2023-04-18 18:30:17 +0000";
layers = (
{
background = {
shapes = (
{
closed = 1;
nodes = (
(164,332,l),
(121,551,o),
(515,553,o),
(515,319,cs),
(515,223,o),
(469,83,o),
(535,83,c),
(564,98,l),
(578,63,o),
(536,-6,o),
(450,-6,cs),
(336,-6,o),
(337,117,o),
(337,132,c),
(342,163,o),
(341,175,o),
(346,201,cs),
(397,491,o),
(136,464,o),
(189,300,c)
);
},
{
closed = 1;
nodes = (
(381,160,l),
(327,-39,o),
(30,-81,o),
(30,150,cs),
(30,382,o),
(326,353,o),
(380,210,c)
);
},
{
closed = 1;
nodes = (
(341,184,l),
(295,280,o),
(191,250,o),
(191,160,cs),
(191,60,o),
(312,91,o),
(340,158,c)
);
}
);
};
layerId = "CDFC0212-EC7A-4000-86F8-EA19B9E6D7F9";
shapes = (
{
closed = 1;
nodes = (
(164,332,l),
(121,551,o),
(515,553,o),
(515,319,cs),
(515,223,o),
(469,83,o),
(535,83,c),
(564,98,l),
(578,63,o),
(536,-6,o),
(450,-6,cs),
(336,-6,o),
(337,117,o),
(337,132,c),
(342,163,o),
(341,175,o),
(346,201,cs),
(397,491,o),
(136,464,o),
(189,300,c)
);
},
{
closed = 1;
nodes = (
(381,160,l),
(327,-39,o),
(30,-81,o),
(30,150,cs),
(30,382,o),
(326,353,o),
(380,210,c)
);
},
{
closed = 1;
nodes = (
(341,184,l),
(295,280,o),
(191,250,o),
(191,160,cs),
(191,60,o),
(312,91,o),
(340,158,c)
);
}
);
width = 597;
}
);
},
{
glyphname = a.alt1;
lastChange = "2023-04-18 18:30:17 +0000";
layers = (
{
background = {
shapes = (
{
closed = 1;
nodes = (
(381,160,l),
(327,-39,o),
(30,-81,o),
(30,150,cs),
(30,382,o),
(326,353,o),
(380,210,c)
);
},
{
closed = 1;
nodes = (
(341,184,l),
(295,280,o),
(191,250,o),
(191,160,cs),
(191,60,o),
(312,91,o),
(340,158,c)
);
},
{
closed = 1;
nodes = (
(229,298,l),
(43,472,o),
(597,676,o),
(522,245,cs),
(509,168,o),
(495,103,o),
(532,103,c),
(547,103,o),
(558,111,o),
(565,126,c),
(580,98,l),
(563,46,o),
(517,0,o),
(441,0,cs),
(360,0,o),
(337,48,o),
(337,108,cs),
(337,150,o),
(349,199,o),
(359,243,cs),
(408,458,o),
(148,463,o),
(263,296,c)
);
}
);
};
layerId = "CDFC0212-EC7A-4000-86F8-EA19B9E6D7F9";
shapes = (
{
closed = 1;
nodes = (
(381,160,l),
(327,-39,o),
(30,-81,o),
(30,150,cs),
(30,382,o),
(326,353,o),
(380,210,c)
);
},
{
closed = 1;
nodes = (
(341,184,l),
(295,280,o),
(191,250,o),
(191,160,cs),
(191,60,o),
(312,91,o),
(340,158,c)
);
},
{
closed = 1;
nodes = (
(229,298,l),
(43,472,o),
(597,676,o),
(522,245,cs),
(509,168,o),
(495,103,o),
(532,103,c),
(547,103,o),
(558,111,o),
(565,126,c),
(580,98,l),
(563,46,o),
(517,0,o),
(441,0,cs),
(360,0,o),
(337,48,o),
(337,108,cs),
(337,150,o),
(349,199,o),
(359,243,cs),
(408,458,o),
(148,463,o),
(263,296,c)
);
}
);
width = 597;
}
);
},
{
glyphname = a.alt2;
lastChange = "2023-04-18 18:30:17 +0000";
layers = (
{
background = {
shapes = (
{
closed = 1;
nodes = (
(95,418,l),
(190,548,o),
(515,553,o),
(515,319,cs),
(515,223,o),
(469,83,o),
(535,83,c),
(564,98,l),
(578,63,o),
(536,-6,o),
(450,-6,cs),
(336,-6,o),
(337,117,o),
(337,132,c),
(342,163,o),
(341,175,o),
(346,201,cs),
(397,491,o),
(205,461,o),
(120,386,c)
);
},
{
closed = 1;
nodes = (
(381,160,l),
(327,-39,o),
(30,-81,o),
(30,150,cs),
(30,382,o),
(326,353,o),
(380,210,c)
);
},
{
closed = 1;
nodes = (
(341,184,l),
(295,280,o),
(191,250,o),
(191,160,cs),
(191,60,o),
(312,91,o),
(340,158,c)
);
}
);
};
layerId = "CDFC0212-EC7A-4000-86F8-EA19B9E6D7F9";
shapes = (
{
closed = 1;
nodes = (
(95,418,l),
(190,548,o),
(515,553,o),
(515,319,cs),
(515,223,o),
(469,83,o),
(535,83,c),
(564,98,l),
(578,63,o),
(536,-6,o),
(450,-6,cs),
(336,-6,o),
(337,117,o),
(337,132,c),
(342,163,o),
(341,175,o),
(346,201,cs),
(397,491,o),
(205,461,o),
(120,386,c)
);
},
{
closed = 1;
nodes = (
(381,160,l),
(327,-39,o),
(30,-81,o),
(30,150,cs),
(30,382,o),
(326,353,o),
(380,210,c)
);
},
{
closed = 1;
nodes = (
(341,184,l),
(295,280,o),
(191,250,o),
(191,160,cs),
(191,60,o),
(312,91,o),
(340,158,c)
);
}
);
width = 597;
}
);
},
{
glyphname = a.alt3;
lastChange = "2023-04-18 18:30:17 +0000";
layers = (
{
background = {
shapes = (
{
closed = 1;
nodes = (
(391,160,l),
(337,-30,o),
(40,-72,o),
(40,150,cs),
(40,382,o),
(336,353,o),
(390,210,c)
);
},
{
closed = 1;
nodes = (
(367.716,170.032,l),
(321.716,266.032,o),
(201,240,o),
(201,160,cs),
(201,72,o),
(336.716,113.032,o),
(364.716,168.032,c)
);
},
{
closed = 1;
nodes = (
(368.113,202.575,l),
(-137.18,496.27,o),
(639.671,676.057,o),
(545,245,cs),
(528.249,168.728,o),
(518,103,o),
(555,103,c),
(570,103,o),
(581,111,o),
(588,126,c),
(603,98,l),
(582.641,35.725,o),
(517.596,0.077,o),
(459.504,0.167,cs),
(405.216,0.252,o),
(357,31.295,o),
(357,108,cs),
(357,150,o),
(365.216,200.035,o),
(379,243,cs),
(447.978,458.005,o),
(102.085,458.005,o),
(398.123,233.508,c)
);
}
);
};
layerId = "CDFC0212-EC7A-4000-86F8-EA19B9E6D7F9";
shapes = (
{
closed = 1;
nodes = (
(391,160,l),
(337,-30,o),
(40,-72,o),
(40,150,cs),
(40,382,o),
(336,353,o),
(390,210,c)
);
},
{
closed = 1;
nodes = (
(367.716,170.032,l),
(321.716,266.032,o),
(201,240,o),
(201,160,cs),
(201,72,o),
(336.716,113.032,o),
(364.716,168.032,c)
);
},
{
closed = 1;
nodes = (
(368.113,202.575,l),
(-137.18,496.27,o),
(639.671,676.057,o),
(545,245,cs),
(528.249,168.728,o),
(518,103,o),
(555,103,c),
(570,103,o),
(581,111,o),
(588,126,c),
(603,98,l),
(582.641,35.725,o),
(517.596,0.077,o),
(459.504,0.167,cs),
(405.216,0.252,o),
(357,31.295,o),
(357,108,cs),
(357,150,o),
(365.216,200.035,o),
(379,243,cs),
(447.978,458.005,o),
(102.085,458.005,o),
(398.123,233.508,c)
);
}
);
width = 623;
}
);
},
{
glyphname = a.alt4;
lastChange = "2023-04-18 18:30:17 +0000";
layers = (
{
background = {
shapes = (
{
closed = 1;
nodes = (
(380.053,128.493,l),
(358.723,232.781,o),
(193.045,226.234,o),
(192.873,356.747,cs),
(192.753,448.188,o),
(288.75,504.279,o),
(384.477,504.264,cs),
(495.587,504.246,o),
(606.333,428.643,o),
(566,245,cs),
(549.249,168.728,o),
(539,103,o),
(576,103,c),
(591,103,o),
(602,111,o),
(609,126,c),
(624,98,l),
(603.641,35.725,o),
(537.596,0.077,o),
(479.504,0.167,cs),
(425.216,0.252,o),
(369,31.295,o),
(369,108,cs),
(369,156.785,o),
(403.786,247.363,o),
(403.816,314.898,cs),
(403.844,379.423,o),
(367.591,408.143,o),
(334.771,408.285,cs),
(307.697,408.402,o),
(282.96,389.072,o),
(282.854,354.352,cs),
(282.55,255.009,o),
(413.883,234.222,o),
(411,191.18,c)
);
},
{
closed = 1;
nodes = (
(410.5,210,l),
(410.5,160,l),
(357,-33,o),
(50,-75,o),
(50,150,cs),
(50,318.129,o),
(283.239,314.898,o),
(322.484,252.668,c),
(315.513,232.595,l),
(274.791,249.311,o),
(211,238.337,o),
(211,160,cs),
(211,72,o),
(356.716,113.032,o),
(384.716,168.032,c),
(387.716,170.032,l)
);
}
);
};
layerId = "CDFC0212-EC7A-4000-86F8-EA19B9E6D7F9";
shapes = (
{
closed = 1;
nodes = (
(380.053,128.493,l),
(358.723,232.781,o),
(193.045,226.234,o),
(192.873,356.747,cs),
(192.753,448.188,o),
(288.75,504.279,o),
(384.477,504.264,cs),
(495.587,504.246,o),
(606.333,428.643,o),
(566,245,cs),
(549.249,168.728,o),
(539,103,o),
(576,103,c),
(591,103,o),
(602,111,o),
(609,126,c),
(624,98,l),
(603.641,35.725,o),
(537.596,0.077,o),
(479.504,0.167,cs),
(425.216,0.252,o),
(369,31.295,o),
(369,108,cs),
(369,156.785,o),
(403.786,247.363,o),
(403.816,314.898,cs),
(403.844,379.423,o),
(367.591,408.143,o),
(334.771,408.285,cs),
(307.697,408.402,o),
(282.96,389.072,o),
(282.854,354.352,cs),
(282.55,255.009,o),
(413.883,234.222,o),
(411,191.18,c)
);
},
{
closed = 1;
nodes = (
(410.5,210,l),
(410.5,160,l),
(357,-33,o),
(50,-75,o),
(50,150,cs),
(50,318.129,o),
(283.239,314.898,o),
(322.484,252.668,c),
(315.513,232.595,l),
(274.791,249.311,o),
(211,238.337,o),
(211,160,cs),
(211,72,o),
(356.716,113.032,o),
(384.716,168.032,c),
(387.716,170.032,l)
);
}
);
width = 654;
}
);
},
{
glyphname = a.alt5;
lastChange = "2023-04-18 18:30:17 +0000";
layers = (
{
background = {
shapes = (
{
closed = 1;
nodes = (
(364.93,163.152,l),
(-174.592,433.695,o),
(637.786,728.188,o),
(537,245,cs),
(521.055,168.556,o),
(510,103,o),
(547,103,c),
(562,103,o),
(573,111,o),
(580,126,c),
(595,98,l),
(574.641,35.725,o),
(509.596,0.077,o),
(451.504,0.167,cs),
(397.216,0.252,o),
(349,31.295,o),
(349,108,cs),
(349,150,o),
(358.789,199.561,o),
(371,243,cs),
(446.093,510.136,o),
(62,401.274,o),
(399.321,213.776,c)
);
},
{
closed = 1;
nodes = (
(393.543,213.776,l),
(349,58.931,o),
(275.135,0.794,o),
(188.302,0.812,cs),
(109.632,0.829,o),
(40.488,46.785,o),
(40.488,139.13,cs),
(40.488,316.389,o),
(265.014,324.726,o),
(306.465,259,c),
(306.465,245,l),
(298.283,248.359,o),
(289.212,250.099,o),
(279.94,250.1,cs),
(237.615,250.104,o),
(209.002,212.712,o),
(209.098,172.835,cs),
(209.348,68.931,o),
(334.364,100.185,o),
(359.11,233.508,c)
);
}
);
};
layerId = "CDFC0212-EC7A-4000-86F8-EA19B9E6D7F9";
shapes = (
{
closed = 1;
nodes = (
(364.93,163.152,l),
(-174.592,433.695,o),
(637.786,728.188,o),
(537,245,cs),
(521.055,168.556,o),
(510,103,o),
(547,103,c),
(562,103,o),
(573,111,o),
(580,126,c),
(595,98,l),
(574.641,35.725,o),
(509.596,0.077,o),
(451.504,0.167,cs),
(397.216,0.252,o),
(349,31.295,o),
(349,108,cs),
(349,150,o),
(358.789,199.561,o),
(371,243,cs),
(446.093,510.136,o),
(62,401.274,o),
(399.321,213.776,c)
);
},
{
closed = 1;
nodes = (
(393.543,213.776,l),
(349,58.931,o),
(275.135,0.794,o),
(188.302,0.812,cs),
(109.632,0.829,o),
(40.488,46.785,o),
(40.488,139.13,cs),
(40.488,316.389,o),
(265.014,324.726,o),
(306.465,259,c),
(306.465,245,l),
(298.283,248.359,o),
(289.212,250.099,o),
(279.94,250.1,cs),
(237.615,250.104,o),
(209.002,212.712,o),
(209.098,172.835,cs),
(209.348,68.931,o),
(334.364,100.185,o),
(359.11,233.508,c)
);
}
);
width = 615;
}
);
},
{
glyphname = H.alt;
lastChange = "2023-04-18 18:30:17 +0000";
layers = (
{
background = {
shapes = (
{
closed = 1;
nodes = (
(147,365,l),
(277,341,o),
(378,342,o),
(488,385,c),
(488,303,l),
(378,260,o),
(277,259,o),
(147,283,c)
);
},
{
closed = 1;
nodes = (
(15,456,l),
(29.813,530.933,o),
(116.261,595.342,o),
(188.571,595.356,cs),
(269.73,595.371,o),
(290.357,528.769,o),
(290.357,457.054,cs),
(290.357,334.844,o),
(217.483,195.519,o),
(270,80,c),
(270,39.727,o),
(214.565,1.355,o),
(162.071,1.355,cs),
(114.894,1.355,o),
(70.093,32.933,o),
(70.041,122.472,cs),
(69.981,224.486,o),
(123.903,375.738,o),
(123.903,445.314,cs),
(123.903,505.135,o),
(63.551,494,o),
(39,442,c)
);
},
{
closed = 1;
nodes = (
(435.435,354.581,o),
(467.62,478.966,o),
(431,540,c),
(431,546,l),
(504,628,o),
(625,607,o),
(625,495,cs),
(625,373.833,o),
(523.147,98.503,o),
(602.858,98.503,cs),
(614.159,98.503,o),
(627.404,108.394,o),
(640,126,c),
(655,98,l),
(636.545,41.55,o),
(570.76,0.26,o),
(511.236,0.257,cs),
(401.028,0.253,o),
(396.528,124.382,o),
(410.119,204.794,cs)
);
}
);
};
guides = (
{
pos = (0,595);
}
);
layerId = "CDFC0212-EC7A-4000-86F8-EA19B9E6D7F9";
shapes = (
{
closed = 1;
nodes = (
(147,365,l),
(277,341,o),
(378,342,o),
(488,385,c),
(488,303,l),
(378,260,o),
(277,259,o),
(147,283,c)
);
},
{
closed = 1;
nodes = (
(15,456,l),
(29.813,530.933,o),
(116.261,595.342,o),
(188.571,595.356,cs),
(269.73,595.371,o),
(290.357,528.769,o),
(290.357,457.054,cs),
(290.357,334.844,o),
(217.483,195.519,o),
(270,80,c),
(270,39.727,o),
(214.565,1.355,o),
(162.071,1.355,cs),
(114.894,1.355,o),
(70.093,32.933,o),
(70.041,122.472,cs),
(69.981,224.486,o),
(123.903,375.738,o),
(123.903,445.314,cs),
(123.903,505.135,o),
(63.551,494,o),
(39,442,c)
);
},
{
closed = 1;
nodes = (
(435.435,354.581,o),
(467.62,478.966,o),
(431,540,c),
(431,546,l),
(504,628,o),
(625,607,o),
(625,495,cs),
(625,373.833,o),
(523.147,98.503,o),
(602.858,98.503,cs),
(614.159,98.503,o),
(627.404,108.394,o),
(640,126,c),
(655,98,l),
(636.545,41.55,o),
(570.76,0.26,o),
(511.236,0.257,cs),
(401.028,0.253,o),
(396.528,124.382,o),
(410.119,204.794,cs)
);
}
);
width = 600;
}
);
},
{
glyphname = a.alt6;
lastChange = "2023-05-03 16:46:37 +0000";
layers = (
{
background = {
shapes = (
{
closed = 1;
nodes = (
(357.825,354.581,o),
(390.01,425.966,o),
(353.39,487,c),
(353.39,493,l),
(426.39,575,o),
(547.39,554,o),
(547.39,442,cs),
(547.39,320.833,o),
(445.537,98.503,o),
(525.248,98.503,cs),
(536.549,98.503,o),
(549.794,108.394,o),
(562.39,126,c),
(577.39,98,l),
(558.935,41.55,o),
(493.15,0.26,o),
(433.626,0.257,cs),
(323.418,0.253,o),
(318.918,124.382,o),
(332.509,204.794,cs)
);
},
{
closed = 1;
nodes = (
(357.93,335.02,l),
(290.381,496.914,o),
(192.362,348.13,o),
(192.36,233.845,cs),
(192.357,52.798,o),
(306.22,104.584,o),
(357.513,331.861,c),
(371.39,226.794,l),
(338.15,76.25,o),
(249.831,0.105,o),
(171.759,0.194,cs),
(97.77,0.278,o),
(32.985,68.829,o),
(33.004,207.407,cs),
(33.028,381.83,o),
(146.836,508.005,o),
(247.735,507.893,cs),
(309.438,507.825,o),
(366.315,461.781,o),
(389.39,347,c)
);
}
);
};
guides = (
{
pos = (278.937,500);
}
);
layerId = "CDFC0212-EC7A-4000-86F8-EA19B9E6D7F9";
shapes = (
{
closed = 1;
nodes = (
(336.365,309.251,o),
(361.682,360.411,o),
(361.682,404.677,cs),
(361.682,423.17,o),
(357.263,439.937,o),
(346.472,457.922,c),
(346.472,463.922,l),
(367.409,487.44,o),
(397.683,499.624,o),
(427.237,499.624,cs),
(475.828,499.624,o),
(522.472,466.689,o),
(522.472,397.047,cs),
(522.472,307.078,o),
(459.104,187.465,o),
(459.104,130.288,cs),
(459.104,110.461,o),
(466.724,98.503,o),
(487.248,98.503,cs),
(498.549,98.503,o),
(511.794,108.394,o),
(524.39,126,c),
(539.39,98,l),
(520.486,40.176,o),
(458.108,0.143,o),
(402.098,0.143,cs),
(349.448,0.143,o),
(302.424,35.516,o),
(302.424,124.737,cs),
(302.424,147.738,o),
(305.549,174.318,o),
(312.509,204.794,cs)
);
},
{
closed = 1;
nodes = (
(382.166,326.323,l),
(331.232,489.544,o),
(185.225,432.425,o),
(185.225,222.801,cs),
(185.225,170.06,o),
(199.835,127.76,o),
(229.802,127.76,cs),
(263.195,127.76,o),
(313.529,205.561,o),
(350.34,342.06,c),
(353.711,241.543,l),
(320.471,91,o),
(239.831,0.105,o),
(161.759,0.194,cs),
(64.316,0.305,o),
(20.137,85.107,o),
(20.137,185.362,cs),
(20.137,515.574,o),
(363.567,598.874,o),
(426.406,395.109,c)
);
}
);
width = 577.39;
}
);
metricLeft = o;
metricRight = n;
},
{
glyphname = H.alt1;
lastChange = "2023-04-18 18:30:17 +0000";
layers = (
{
background = {
shapes = (
{
closed = 1;
nodes = (
(147,365,l),
(277,341,o),
(378,342,o),
(488,385,c),
(488,303,l),
(378,260,o),
(277,259,o),
(147,283,c)
);
},
{
closed = 1;
nodes = (
(15,456,l),
(29.813,530.933,o),
(116.261,595.342,o),
(188.571,595.356,cs),
(269.73,595.371,o),
(290.357,528.769,o),
(290.357,457.054,cs),
(290.357,334.844,o),
(217.483,195.519,o),
(270,80,c),
(270,39.727,o),
(214.565,1.355,o),
(162.071,1.355,cs),
(114.894,1.355,o),
(70.093,32.933,o),
(70.041,122.472,cs),
(69.981,224.486,o),
(123.903,375.738,o),
(123.903,445.314,cs),
(123.903,505.135,o),
(63.551,494,o),
(39,442,c)
);
},
{
closed = 1;
nodes = (
(428,602,o),
(611,627,o),
(611,566,cs),
(611,484,o),
(547,201,o),
(547,143,cs),
(547,118,o),
(553,103,o),
(571,103,c),
(586,103,o),
(597,111,o),
(604,126,c),
(619,98,l),
(602,46,o),
(556,0,o),
(485,0,cs),
(403,0,o),
(381,53,o),
(381,120,cs),
(381,247.036,o),
(428,324.348,o),
(428,528,cs)
);
}
);
};
layerId = "CDFC0212-EC7A-4000-86F8-EA19B9E6D7F9";
shapes = (
{
closed = 1;
nodes = (
(147,365,l),
(277,341,o),
(378,342,o),
(488,385,c),
(488,303,l),
(378,260,o),
(277,259,o),
(147,283,c)
);
},
{
closed = 1;
nodes = (
(15,456,l),
(29.813,530.933,o),
(116.261,595.342,o),
(188.571,595.356,cs),
(269.73,595.371,o),
(290.357,528.769,o),
(290.357,457.054,cs),
(290.357,334.844,o),
(217.483,195.519,o),
(270,80,c),
(270,39.727,o),
(214.565,1.355,o),
(162.071,1.355,cs),
(114.894,1.355,o),
(70.093,32.933,o),
(70.041,122.472,cs),
(69.981,224.486,o),
(123.903,375.738,o),
(123.903,445.314,cs),
(123.903,505.135,o),
(63.551,494,o),
(39,442,c)
);
},
{
closed = 1;
nodes = (
(428,602,o),
(611,627,o),
(611,566,cs),
(611,484,o),
(547,201,o),
(547,143,cs),
(547,118,o),
(553,103,o),
(571,103,c),
(586,103,o),
(597,111,o),
(604,126,c),
(619,98,l),
(602,46,o),
(556,0,o),
(485,0,cs),
(403,0,o),
(381,53,o),
(381,120,cs),
(381,247.036,o),
(428,324.348,o),
(428,528,cs)
);
}
);
width = 600;
}
);
},
{
glyphname = A.alt;
lastChange = "2023-04-18 18:30:17 +0000";
layers = (
{
background = {
shapes = (
{
closed = 1;
nodes = (
(396.941,547.75,l),
(477.456,638.191,o),
(590.912,615.029,o),
(590.912,491.5,cs),
(590.912,357.86,o),
(468.574,108.642,o),
(556.49,108.642,cs),
(568.954,108.642,o),
(583.563,119.552,o),
(597.456,138.971,c),
(614,108.088,l),
(593.645,45.827,o),
(541.089,0.286,o),
(475.436,0.284,cs),
(228.816,0.273,o),
(464.778,428.071,o),
(396.941,541.132,c)
);
},
{
closed = 1;
nodes = (
(408.852,351.551,l),
(274.776,-418.244,o),
(-416.267,271.445,o),
(510.403,464.374,c),
(539.809,420.691,l),
(-52.529,277.252,o),
(259.973,-98.898,o),
(398.57,381,c)
);
}
);
};
layerId = "CDFC0212-EC7A-4000-86F8-EA19B9E6D7F9";
shapes = (
{
closed = 1;
nodes = (
(396.941,547.75,l),
(477.456,638.191,o),
(590.912,615.029,o),
(590.912,491.5,cs),
(590.912,357.86,o),
(468.574,108.642,o),
(556.49,108.642,cs),
(568.954,108.642,o),
(583.563,119.552,o),
(597.456,138.971,c),
(614,108.088,l),
(593.645,45.827,o),
(541.089,0.286,o),
(475.436,0.284,cs),
(228.816,0.273,o),
(464.778,428.071,o),
(396.941,541.132,c)
);
},
{
closed = 1;
nodes = (
(408.852,351.551,l),
(274.776,-418.244,o),
(-416.267,271.445,o),
(510.403,464.374,c),
(539.809,420.691,l),
(-52.529,277.252,o),
(259.973,-98.898,o),
(398.57,381,c)
);
}
);
width = 629;
}
);
},
{
glyphname = A.001;
layers = (
{
background = {
shapes = (
{
closed = 1;
nodes = (
(392.832,391.082,o),
(428.331,473.816,o),
(387.941,541.132,c),
(387.941,547.75,l),
(468.456,638.191,o),
(581.912,615.029,o),
(581.912,491.5,cs),
(581.912,357.86,o),
(469.574,108.642,o),
(557.49,108.642,cs),
(569.954,108.642,o),
(584.563,119.552,o),
(598.456,138.971,c),
(615,108.088,l),
(594.645,45.827,o),
(542.089,0.286,o),
(476.436,0.284,cs),
(354.884,0.279,o),
(349.92,137.185,o),
(364.91,225.876,cs)
);
},
{
closed = 1;
nodes = (
(395.882,385.112,l),
(372.001,442.347,o),
(344.366,474.827,o),
(317.838,474.802,cs),
(261.602,474.747,o),
(210.336,373.563,o),
(210.335,287.918,cs),
(210.333,190.699,o),
(234.984,142.543,o),
(267.371,142.523,cs),
(308.169,142.498,o),
(361.243,218.856,o),
(392.781,369.746,c),
(407.794,280.141,l),
(368.2,100.82,o),
(267.599,0.488,o),
(180.055,0.475,cs),
(-54.618,0.44,o),
(-2.675,594.869,o),
(262.462,594.779,cs),
(334.042,594.754,o),
(401.004,527.247,o),
(427.647,394.721,c)
);
}
);
};
layerId = "CDFC0212-EC7A-4000-86F8-EA19B9E6D7F9";
shapes = (
{
closed = 1;
nodes = (
(392.832,391.082,o),
(428.331,473.816,o),
(387.941,541.132,c),
(387.941,547.75,l),
(468.456,638.191,o),
(581.912,615.029,o),
(581.912,491.5,cs),
(581.912,357.86,o),
(469.574,108.642,o),
(557.49,108.642,cs),
(569.954,108.642,o),
(584.563,119.552,o),
(598.456,138.971,c),
(615,108.088,l),
(594.645,45.827,o),
(542.089,0.286,o),
(476.436,0.284,cs),
(354.884,0.279,o),
(349.92,137.185,o),
(364.91,225.876,cs)
);
},
{
closed = 1;
nodes = (
(395.882,385.112,l),
(372.001,442.347,o),
(344.366,474.827,o),
(317.838,474.802,cs),
(261.602,474.747,o),
(210.336,373.563,o),
(210.335,287.918,cs),
(210.333,190.699,o),
(234.984,142.543,o),
(267.371,142.523,cs),
(308.169,142.498,o),
(361.243,218.856,o),
(392.781,369.746,c),
(407.794,280.141,l),
(368.2,100.82,o),
(267.599,0.488,o),
(180.055,0.475,cs),
(-54.618,0.44,o),
(-2.675,594.869,o),
(262.462,594.779,cs),
(334.042,594.754,o),
(401.004,527.247,o),
(427.647,394.721,c)
);
}
);
width = 617;
}
);
},
{
glyphname = a.001;
layers = (
{
background = {
shapes = (
{
closed = 1;
nodes = (
(361,160,l),
(307,-30,o),
(10,-72,o),
(10,150,cs),
(10,382,o),
(306,353,o),
(360,210,c)
);
},
{
closed = 1;
nodes = (
(337.716,170.032,l),
(291.716,266.032,o),
(171,240,o),
(171,160,cs),
(171,72,o),
(306.716,113.032,o),
(334.716,168.032,c)
);
},
{
closed = 1;
nodes = (
(187.752,288.168,l),
(40.478,469.818,o),
(609.671,692.497,o),
(515,245,cs),
(498.837,168.601,o),
(488,103,o),
(525,103,c),
(540,103,o),
(551,111,o),
(558,126,c),
(573,98,l),
(552.641,35.725,o),
(487.596,0.077,o),
(429.504,0.167,cs),
(375.216,0.252,o),
(327,31.295,o),
(327,108,cs),
(327,150,o),
(336.112,199.758,o),
(349,243,cs),
(417.978,474.445,o),
(154.897,458.005,o),
(253.481,288.168,c)
);
}
);
};
layerId = "CDFC0212-EC7A-4000-86F8-EA19B9E6D7F9";
shapes = (
{
closed = 1;
nodes = (
(361,160,l),
(307,-30,o),
(10,-72,o),
(10,150,cs),
(10,382,o),
(306,353,o),
(360,210,c)
);
},
{
closed = 1;
nodes = (
(337.716,170.032,l),
(291.716,266.032,o),
(171,240,o),
(171,160,cs),
(171,72,o),
(306.716,113.032,o),
(334.716,168.032,c)
);
},
{
closed = 1;
nodes = (
(187.752,288.168,l),
(40.478,469.818,o),
(609.671,692.497,o),
(515,245,cs),
(498.837,168.601,o),
(488,103,o),
(525,103,c),
(540,103,o),
(551,111,o),
(558,126,c),
(573,98,l),
(552.641,35.725,o),
(487.596,0.077,o),
(429.504,0.167,cs),
(375.216,0.252,o),
(327,31.295,o),
(327,108,cs),
(327,150,o),
(336.112,199.758,o),
(349,243,cs),
(417.978,474.445,o),
(154.897,458.005,o),
(253.481,288.168,c)
);
}
);
width = 583;
}
);
},
{
glyphname = b.001;
lastChange = "2023-05-04 19:40:29 +0000";
layers = (
{
layerId = "CDFC0212-EC7A-4000-86F8-EA19B9E6D7F9";
shapes = (
{
closed = 1;
nodes = (
(207.041,221.78,l),
(205.239,211.681,o),
(194.398,143.56,o),
(194.398,135.391,cs),
(194.398,34.074,o),
(368.564,126.454,o),
(368.564,310.771,cs),
(368.564,455.83,o),
(239.649,441.182,o),
(183.975,89.503,c),
(158.348,104.599,l),
(180.85,543.205,o),
(529.307,626.758,o),
(529.307,327.575,cs),
(529.307,183.016,o),
(430.501,0.361,o),
(220.239,0.361,cs),
(122.084,0.361,o),
(48.675,43.149,o),
(48.675,169.591,cs),
(48.675,189.423,o),
(50.481,211.19,o),
(54.28,235.011,c)
);
},
{
closed = 1;
nodes = (
(54.28,235.011,l),
(75.962,358.315,o),
(100,472.784,o),
(100,558,cs),
(100,581.169,o),
(91.439,590.389,o),
(79.59,590.389,cs),
(64.426,590.389,o),
(43.879,575.289,o),
(29,555,c),
(10,575,l),
(37.295,653.874,o),
(107.882,699.628,o),
(167.582,699.628,cs),
(219.391,699.628,o),
(263,665.17,o),
(263,588,c),
(263,528.127,o),
(245.73,413.695,o),
(230.114,331.297,c),
(202.642,205.295,l)
);
}
);
width = 559.31;
}
);
},
{
glyphname = b.002;
lastChange = "2023-05-04 19:46:33 +0000";
layers = (
{
layerId = "CDFC0212-EC7A-4000-86F8-EA19B9E6D7F9";
shapes = (
{
closed = 1;
nodes = (
(207.041,221.78,l),
(205.239,211.681,o),
(194.398,143.56,o),
(194.398,135.391,cs),
(194.398,34.074,o),
(368.564,126.454,o),
(368.564,310.771,cs),
(368.564,455.83,o),
(239.649,441.182,o),
(183.975,89.503,c),
(158.348,104.599,l),
(176.85,543.205,o),
(529.307,626.758,o),
(529.307,327.575,cs),
(529.307,183.016,o),
(430.501,0.361,o),
(220.239,0.361,cs),
(122.084,0.361,o),
(48.675,43.149,o),
(48.675,169.591,cs),
(48.675,189.423,o),
(50.481,211.19,o),
(54.28,235.011,c)
);
},
{
closed = 1;
nodes = (
(72.587,339.12,o),
(106.997,560.521,o),
(106.997,662.227,cs),
(106.997,702.728,o),
(254.38,727.944,o),
(279.905,653.424,c),
(281.905,647.424,l),
(271.85,637.985,o),
(240.271,384.895,o),
(230.114,331.297,c),
(202.642,205.295,l),
(54.28,235.011,l)
);
}
);
width = 559.31;
}
);
},
{
glyphname = c.001;
layers = (
{
layerId = "CDFC0212-EC7A-4000-86F8-EA19B9E6D7F9";
shapes = (
{
closed = 1;
nodes = (
(536.188,267.793,o),
(537.412,507,o),
(322.813,507,cs),
(137.513,507,o),
(20.117,349.48,o),
(20.004,209.012,cs),
(19.823,-16.203,o),
(304.373,-85.111,o),
(464.784,109,c),
(442.562,141.659,l),
(401.717,99.358,o),
(191.22,22.95,o),
(191.22,235.27,cs),
(191.22,436.304,o),
(396.264,481.616,o),
(338.775,271.876,c),
(343.789,267.793,l)
);
}
);
width = 509.36;
}
);
},
{
glyphname = e.001;
layers = (
{
background = {
shapes = (
{
closed = 1;
nodes = (
(139.513,507,o),
(35.117,349.48,o),
(35.004,209.012,cs),
(34.887,63.825,o),
(133.709,-4.541,o),
(244.554,-4.597,cs),
(327.323,-4.638,o),
(416.795,33.408,o),
(476.784,106,c),
(454.562,138.659,l),
(451.662,129.841,o),
(383.446,88.344,o),
(320.282,88.436,cs),
(264.802,88.518,o),
(213.22,120.686,o),
(213.22,235.27,cs),
(213.22,348.007,o),
(261.01,415.051,o),
(297.94,415.014,cs),
(365.409,414.947,o),
(381.251,165.871,o),
(129.98,278.752,c),
(130.348,230.197,l),
(468.179,23.727,o),
(625.661,507,o),
(324.813,507,cs)
);
}
);
};
layerId = "CDFC0212-EC7A-4000-86F8-EA19B9E6D7F9";
shapes = (
{
closed = 1;
nodes = (
(139.513,507,o),
(35.117,349.48,o),
(35.004,209.012,cs),
(34.887,63.825,o),
(133.709,-4.541,o),
(244.554,-4.597,cs),
(327.323,-4.638,o),
(416.795,33.408,o),
(476.784,106,c),
(454.562,138.659,l),
(451.662,129.841,o),
(383.446,88.344,o),
(320.282,88.436,cs),
(264.802,88.518,o),
(213.22,120.686,o),
(213.22,235.27,cs),
(213.22,348.007,o),
(261.01,415.051,o),
(297.94,415.014,cs),
(365.409,414.947,o),
(381.251,165.871,o),
(129.98,278.752,c),
(130.348,230.197,l),
(468.179,23.727,o),
(625.661,507,o),
(324.813,507,cs)
);
}
);
width = 507.6;
}
);
},
{
glyphname = e.002;
layers = (
{
background = {
shapes = (
{
closed = 1;
nodes = (
(114.513,507,o),
(10.117,349.48,o),
(10.004,209.012,cs),
(9.887,63.825,o),
(108.709,-4.541,o),
(219.554,-4.597,cs),
(302.323,-4.638,o),
(391.795,33.408,o),
(451.784,106,c),
(429.562,138.659,l),
(426.662,129.841,o),
(358.446,88.344,o),
(295.282,88.436,cs),
(239.802,88.518,o),
(188.22,120.686,o),
(188.22,235.27,cs),
(188.22,348.007,o),
(236.01,415.051,o),
(272.94,415.014,cs),
(340.409,414.947,o),
(356.251,165.871,o),
(104.98,278.752,c),
(105.348,230.197,l),
(443.179,23.727,o),
(600.661,507,o),
(299.813,507,cs)
);
}
);
};
layerId = "CDFC0212-EC7A-4000-86F8-EA19B9E6D7F9";
shapes = (
{
closed = 1;
nodes = (
(179.831,197.981,l),
(332.705,139.092,o),
(479.599,232.328,o),
(479.599,368.153,cs),
(479.599,440.971,o),
(421.016,507,o),
(309.813,507,cs),
(124.513,507,o),
(20.117,349.48,o),
(20.004,209.012,cs),
(19.887,63.825,o),
(118.709,-4.541,o),
(229.554,-4.597,cs),
(312.323,-4.638,o),
(401.795,33.408,o),
(461.784,106,c),
(439.562,138.659,l),
(436.662,129.841,o),
(361.446,88.344,o),
(298.282,88.436,cs),
(242.802,88.518,o),
(191.22,120.686,o),
(191.22,235.27,cs),
(191.22,434.323,o),
(329.589,464.816,o),
(329.589,347.562,cs),
(329.589,262.116,o),
(255.654,237.289,o),
(179.831,255.787,c)
);
}
);
width = 504.6;
}
);
},
{
glyphname = f.001;
layers = (
{
layerId = "CDFC0212-EC7A-4000-86F8-EA19B9E6D7F9";
shapes = (
{
closed = 1;
nodes = (
(245.926,412.826,l),
(220.692,264.839,o),
(232.393,-283.663,o),
(28.564,-283.663,cs),
(-157.331,-283.663,o),
(-209.574,-86.695,o),
(80.163,101.564,c),
(98.502,67.662,l),
(-168.308,-147.416,o),
(-8.588,-358.77,o),
(51.625,59.624,c),
(69.423,183.296,o),
(79.245,327.336,o),
(82.331,412.826,c)
);
}
);
width = 600;
}
);
},
{
glyphname = f.002;
layers = (
{
layerId = "CDFC0212-EC7A-4000-86F8-EA19B9E6D7F9";
shapes = (
{
closed = 1;
nodes = (
(230.579,249.272,l),
(213.808,32.264,o),
(183.257,-283.663,o),
(28.564,-283.663,cs),
(-64.446,-283.663,o),
(-123.999,-234.354,o),
(-123.999,-161.499,cs),
(-123.999,-88.742,o),
(-64.607,7.498,o),
(80.163,101.564,c),
(98.502,67.662,l),
(-14.417,-23.363,o),
(-50.938,-113.721,o),
(-50.938,-155.956,cs),
(-50.938,-171.625,o),
(-45.912,-180.671,o),
(-37.895,-180.671,cs),
(-16.461,-180.671,o),
(26.349,-116.008,o),
(51.625,59.624,c),
(60.464,121.039,o),
(67.335,187.476,o),
(72.392,249.272,c)
);
},
{
closed = 1;
nodes = (
(107.485,598.953,o),
(163.21,768.863,o),
(372.118,732.368,c),
(372.118,706.071,l),
(294.438,661.661,o),
(251.069,551.2,o),
(230.579,249.272,c),
(72.392,249.272,l)
);
},
{
closed = 1;
nodes = (
(53.543,437.238,o),
(54.02,454.572,o),
(59.497,481.905,c),
(151.678,497.905,o),
(218.716,502.905,o),
(332.666,499.905,c),
(342.189,472.572,o),
(341.712,445.238,o),
(331.235,417.905,c),
(217.285,425.905,o),
(150.247,415.905,o),
(58.066,409.905,c)
);
}
);
width = 342.12;
}
);
},
{
glyphname = f.003;
layers = (
{
layerId = "CDFC0212-EC7A-4000-86F8-EA19B9E6D7F9";
shapes = (
{
closed = 1;
nodes = (
(56.543,437.238,o),
(57.02,454.572,o),
(62.497,481.905,c),
(154.678,497.905,o),
(228.716,502.905,o),
(342.666,499.905,c),
(352.189,472.572,o),
(351.712,445.238,o),
(341.235,417.905,c),
(227.285,425.905,o),
(153.247,415.905,o),
(61.066,409.905,c)
);
},
{
closed = 1;
nodes = (
(75.392,249.272,cs),
(105.506,599.417,o),
(166.21,768.863,o),
(375.118,732.368,c),
(382.118,706.071,l),
(304.438,661.661,o),
(266.51,550.781,o),
(240.579,249.272,cs),
(210.458,-100.965,o),
(162.3,-319.365,o),
(-46.608,-282.87,c),
(-46.608,-256.573,l),
(31.072,-212.163,o),
(49.455,-52.314,o)
);
}
);
width = 342.12;
}
);
},
{
glyphname = f.004;
lastChange = "2023-05-17 18:17:32 +0000";
layers = (
{
layerId = "CDFC0212-EC7A-4000-86F8-EA19B9E6D7F9";
shapes = (
{
closed = 1;
nodes = (
(101.604,437.238,o),
(102.081,454.572,o),
(107.558,481.905,c),
(199.739,497.905,o),
(226.777,502.905,o),
(340.727,499.905,c),
(350.25,472.572,o),
(349.773,445.238,o),
(339.296,417.905,c),
(225.346,425.905,o),
(198.308,415.905,o),
(106.127,409.905,c)
);
},
{
closed = 1;
nodes = (
(221.242,710.648,o),
(280.101,704.753,o),
(316.773,659.492,c),
(201.947,255.228,o),
(142.043,-168.47,o),
(210.609,-168.47,cs),
(256.782,-168.47,o),
(350.213,299.953,o),
(145.978,448.228,c),
(175.048,495.597,l),
(462.809,314.539,o),
(402.501,-285.278,o),
(185.856,-285.278,cs),
(-66.553,-285.278,o),
(23.547,195.832,o),
(148.57,677.194,cs),
(149.962,682.552,o),
(149.612,686.162,o),
(148.57,687.909,c)
);
}
);
width = 395.06;
}
);
},
{
glyphname = f.005;
layers = (
{
layerId = "CDFC0212-EC7A-4000-86F8-EA19B9E6D7F9";
shapes = (
{
closed = 1;
nodes = (
(101.604,437.238,o),
(102.081,454.572,o),
(107.558,481.905,c),
(199.739,497.905,o),
(226.777,502.905,o),
(340.727,499.905,c),
(350.25,472.572,o),
(349.773,445.238,o),
(339.296,417.905,c),
(225.346,425.905,o),
(198.308,415.905,o),
(106.127,409.905,c)
);
},
{
closed = 1;
nodes = (
(221.242,710.648,o),
(280.101,704.753,o),
(316.773,659.492,c),
(201.947,255.228,o),
(142.043,-168.47,o),
(210.609,-168.47,cs),
(256.782,-168.47,o),
(350.213,299.953,o),
(145.978,448.228,c),
(175.048,495.597,l),
(462.809,314.539,o),
(402.501,-285.278,o),
(185.856,-285.278,cs),
(-66.553,-285.278,o),
(23.547,195.832,o),
(148.57,677.194,cs),
(149.962,682.552,o),
(149.612,686.162,o),
(148.57,687.909,c)
);
}
);
width = 395.06;
},
{
associatedMasterId = "CDFC0212-EC7A-4000-86F8-EA19B9E6D7F9";
layerId = "3EE3940A-A7F3-4BFC-B634-D33906E0A042";
name = "May 17, 23, 13:56";
shapes = (
{
closed = 1;
nodes = (
(254.579,249.272,l),
(237.808,32.264,o),
(207.257,-283.663,o),
(52.564,-283.663,cs),
(-40.446,-283.663,o),
(-99.999,-234.354,o),
(-99.999,-161.499,cs),
(-99.999,-88.742,o),
(-40.607,7.498,o),
(104.163,101.564,c),
(122.502,67.662,l),
(9.583,-23.363,o),
(-26.938,-113.721,o),
(-26.938,-155.956,cs),
(-26.938,-171.625,o),
(-21.912,-180.671,o),
(-13.895,-180.671,cs),
(7.539,-180.671,o),
(50.349,-116.008,o),
(75.625,59.624,c),
(84.464,121.039,o),
(91.335,187.476,o),
(96.392,249.272,c)
);
},
{
closed = 1;
nodes = (
(131.485,598.953,o),
(187.21,768.863,o),
(396.118,732.368,c),
(396.118,706.071,l),
(318.438,661.661,o),
(275.069,551.2,o),
(254.579,249.272,c),
(96.392,249.272,l)
);
},
{
closed = 1;
nodes = (
(77.543,437.238,o),
(78.02,454.572,o),
(83.497,481.905,c),
(175.678,497.905,o),
(242.716,502.905,o),
(356.666,499.905,c),
(366.189,472.572,o),
(365.712,445.238,o),
(355.235,417.905,c),
(241.285,425.905,o),
(174.247,415.905,o),
(82.066,409.905,c)
);
}
);
width = 366.12;
}
);
},
{
glyphname = f.006;
layers = (
{
layerId = "CDFC0212-EC7A-4000-86F8-EA19B9E6D7F9";
shapes = (
{
closed = 1;
nodes = (
(77.543,437.238,o),
(78.02,454.572,o),
(83.497,481.905,c),
(175.678,497.905,o),
(242.716,502.905,o),
(356.666,499.905,c),
(366.189,472.572,o),
(365.712,445.238,o),
(355.235,417.905,c),
(241.285,425.905,o),
(174.247,415.905,o),
(82.066,409.905,c)
);
},
{
closed = 1;
nodes = (
(297.752,449.82,l),
(281.179,334.046,o),
(259.081,193.821,o),
(244.464,41.202,c),
(202.522,-11.222,o),
(126.957,-13.646,o),
(65.016,11.93,c),
(97.068,189.71,o),
(125.234,331.646,o),
(150.529,449.82,c)
);
},
{
closed = 1;
nodes = (
(178.094,471.052,l),
(66.957,592.385,o),
(161.724,737,o),
(300.553,737,cs),
(469.18,737,o),
(493.687,543.793,o),
(306.529,543.793,c),
(345.276,642.574,o),
(328.82,674.16,o),
(294.895,674.16,cs),
(248.211,674.16,o),
(217.298,595.24,o),
(301.372,499.834,c)
);
}
);
width = 395.06;
},
{
associatedMasterId = "CDFC0212-EC7A-4000-86F8-EA19B9E6D7F9";
layerId = "789FB305-AF56-4E07-830C-1EBDDF3C8044";
name = "May 17, 23, 14:29";
shapes = (
{
closed = 1;
nodes = (
(77.543,437.238,o),
(78.02,454.572,o),
(83.497,481.905,c),
(175.678,497.905,o),
(242.716,502.905,o),
(356.666,499.905,c),
(366.189,472.572,o),
(365.712,445.238,o),
(355.235,417.905,c),
(241.285,425.905,o),
(174.247,415.905,o),
(82.066,409.905,c)
);
},
{
closed = 1;
nodes = (
(509.18,737,o),
(533.687,543.793,o),
(346.529,543.793,c),
(376.363,642.574,o),
(368.82,674.16,o),
(334.895,674.16,cs),
(260.902,674.16,o),
(241.285,363,o),
(210.464,41.202,c),
(168.522,-11.222,o),
(96.957,-13.646,o),
(35.016,11.93,c),
(114.821,454.572,o),
(108.539,737,o),
(340.553,737,cs)
);
}
);
width = 395.06;
}
);
},
{
glyphname = f.007;
layers = (
{
layerId = "CDFC0212-EC7A-4000-86F8-EA19B9E6D7F9";
shapes = (
{
closed = 1;
nodes = (
(53.543,437.238,o),
(54.02,454.572,o),
(59.497,481.905,c),
(151.678,497.905,o),
(218.716,502.905,o),
(332.666,499.905,c),
(342.189,472.572,o),
(341.712,445.238,o),
(331.235,417.905,c),
(217.285,425.905,o),
(150.247,415.905,o),
(58.066,409.905,c)
);
},
{
closed = 1;
nodes = (
(470.156,737,o),
(477.053,546.643,o),
(310.895,546.643,c),
(340.729,609.859,o),
(330.739,676.031,o),
(310.895,676.031,cs),
(248.743,676.031,o),
(229.76,322.166,o),
(236.464,41.202,c),
(194.522,-11.222,o),
(122.957,-13.646,o),
(61.016,11.93,c),
(86.106,629.859,o),
(162.067,737,o),
(322.529,737,cs)
);
}
);
width = 339.39;
}
);
},
{
glyphname = f.008;
layers = (
{
layerId = "CDFC0212-EC7A-4000-86F8-EA19B9E6D7F9";
shapes = (
{
closed = 1;
nodes = (
(77.543,437.238,o),
(78.02,454.572,o),
(83.497,481.905,c),
(175.678,497.905,o),
(242.716,502.905,o),
(356.666,499.905,c),
(366.189,472.572,o),
(365.712,445.238,o),
(355.235,417.905,c),
(241.285,425.905,o),
(174.247,415.905,o),
(82.066,409.905,c)
);
},
{
closed = 1;
nodes = (
(509.18,737,o),
(533.687,543.793,o),
(346.529,543.793,c),
(376.363,642.574,o),
(368.82,674.16,o),
(334.895,674.16,cs),
(329.554,674.16,o),
(304.137,588.833,o),
(276.708,461.334,c),
(251.759,345.357,o),
(225.145,194.487,o),
(210.464,41.202,c),
(168.522,-11.222,o),
(96.957,-13.646,o),
(35.016,11.93,c),
(114.821,454.572,o),
(108.539,737,o),
(340.553,737,cs)
);
}
);
width = 395.06;
}
);
},
{
glyphname = g.001;
layers = (
{
layerId = "CDFC0212-EC7A-4000-86F8-EA19B9E6D7F9";
shapes = (
{
closed = 1;
nodes = (
(354.93,335.02,l),
(287.381,496.914,o),
(189.362,348.13,o),
(189.36,233.845,cs),
(189.357,52.798,o),
(303.22,104.584,o),
(354.513,331.861,c),
(368.39,226.794,l),
(335.15,76.25,o),
(246.831,0.105,o),
(168.759,0.194,cs),
(94.77,0.278,o),
(29.985,68.829,o),
(30.004,207.407,cs),
(30.024,347.649,o),
(107.144,507.185,o),
(250.91,507.191,cs),
(306.927,507.194,o),
(368.896,471.019,o),
(386.39,384,c)
);
},
{
closed = 1;
nodes = (
(490.189,407.326,o),
(487.07,-283.663,o),
(258.293,-283.663,cs),
(100.658,-283.663,o),
(26.795,-83.281,o),
(336.532,134.978,c),
(354.871,101.076,l),
(137.342,-88.154,o),
(201.677,-171.497,o),
(226.532,-171.497,cs),
(274.32,-171.497,o),
(325.231,12.729,o),
(342.325,186.396,cs),
(353.744,302.405,o),
(358.997,413.702,o),
(358.997,462.227,cs),
(358.997,502.728,o),
(505.38,527.944,o),
(530.905,453.424,c),
(532.905,447.424,l)
);
}
);
width = 552.9;
}
);
},
{
glyphname = j.001;
lastChange = "2023-05-09 15:09:28 +0000";
layers = (
{
layerId = "CDFC0212-EC7A-4000-86F8-EA19B9E6D7F9";
shapes = (
{
closed = 1;
nodes = (
(263.491,563.737,o),
(308.045,606.863,o),
(308.045,658.542,cs),
(308.045,704.612,o),
(271.65,741,o),
(224.092,741,cs),
(172.316,741,o),
(127.762,697.874,o),
(127.762,646.194,cs),
(127.762,600.125,o),
(164.156,563.737,o),
(211.715,563.737,cs)
);
},
{
closed = 1;
nodes = (
(238.599,407.326,o),
(281.341,-283.663,o),
(52.564,-283.663,cs),
(-133.331,-283.663,o),
(-185.574,-86.695,o),
(104.163,101.564,c),
(122.502,67.662,l),
(-144.308,-147.416,o),
(15.412,-358.77,o),
(75.625,59.624,c),
(97.59,212.248,o),
(107.407,395.892,o),
(107.407,462.227,cs),
(107.407,502.728,o),
(253.79,527.944,o),
(279.315,453.424,c),
(281.315,447.424,l)
);
}
);
width = 308.05;
}
);
},
{
glyphname = j.002;
layers = (
{
layerId = "CDFC0212-EC7A-4000-86F8-EA19B9E6D7F9";
shapes = (
{
closed = 1;
nodes = (
(216.189,407.326,o),
(272.931,-283.663,o),
(43.154,-283.663,cs),
(-91.942,-283.656,o),
(-202.489,-139.21,o),
(57.248,-0.951,c),
(75.587,-34.853,l),
(-91.942,-144.083,o),
(-39.769,-171.497,o),
(-28.468,-171.497,cs),
(51.243,-171.497,o),
(83.997,341.06,o),
(83.997,462.227,cs),
(83.997,502.728,o),
(231.38,527.944,o),
(256.905,453.424,c),
(258.905,447.424,l)
);
},
{
closed = 1;
nodes = (
(223.221,563.737,o),
(267.775,606.863,o),
(267.775,658.542,cs),
(267.775,704.612,o),
(231.38,741,o),
(183.822,741,cs),
(132.046,741,o),
(87.492,697.874,o),
(87.492,646.194,cs),
(87.492,600.125,o),
(123.886,563.737,o),
(171.445,563.737,cs)
);
}
);
width = 292.78;
}
);
},
{
glyphname = j.003;
layers = (
{
layerId = "CDFC0212-EC7A-4000-86F8-EA19B9E6D7F9";
shapes = (
{
closed = 1;
nodes = (
(238.491,563.737,o),
(283.045,606.863,o),
(283.045,658.542,cs),
(283.045,704.612,o),
(246.65,741,o),
(199.092,741,cs),
(147.316,741,o),
(102.762,697.874,o),
(102.762,646.194,cs),
(102.762,600.125,o),
(139.156,563.737,o),
(186.715,563.737,cs)
);
},
{
closed = 1;
nodes = (
(213.599,407.326,o),
(256.341,-283.663,o),
(27.564,-283.663,cs),
(-158.331,-283.663,o),
(-210.574,-86.695,o),
(79.163,101.564,c),
(97.502,67.662,l),
(-169.308,-147.416,o),
(-9.588,-358.77,o),
(50.625,59.624,c),
(72.59,212.248,o),
(82.407,395.892,o),
(82.407,462.227,cs),
(82.407,502.728,o),
(228.79,527.944,o),
(254.315,453.424,c),
(256.315,447.424,l)
);
}
);
width = 288.05;
}
);
},
{
glyphname = j.004;
layers = (
{
layerId = "CDFC0212-EC7A-4000-86F8-EA19B9E6D7F9";
shapes = (
{
closed = 1;
nodes = (
(218.101,563.737,o),
(262.655,606.863,o),
(262.655,658.542,cs),
(262.655,704.612,o),
(226.26,741,o),
(178.702,741,cs),
(126.926,741,o),
(82.372,697.874,o),
(82.372,646.194,cs),
(82.372,600.125,o),
(118.766,563.737,o),
(166.325,563.737,cs)
);
},
{
closed = 1;
nodes = (
(-69.998,-256.573,l),
(7.612,-172.203,o),
(25.96,-52.601,o),
(51.932,248.461,cs),
(59.49,340.567,o),
(63.017,422.468,o),
(63.017,462.227,cs),
(63.017,502.728,o),
(212.4,527.944,o),
(237.925,453.424,c),
(239.925,447.424,l),
(226.056,434.405,o),
(221.902,352.72,o),
(213.119,248.461,cs),
(183.649,-101.362,o),
(138.749,-279.337,o),
(-69.998,-282.87,c)
);
}
);
width = 267.66;
}
);
},
{
glyphname = k.001;
layers = (
{
layerId = "CDFC0212-EC7A-4000-86F8-EA19B9E6D7F9";
shapes = (
{
closed = 1;
nodes = (
(273,488.491,o),
(225.606,368.531,o),
(209,285,cs),
(202.943,254.53,o),
(206.854,240.173,o),
(206.939,224.662,cs),
(207.341,151.718,o),
(220,151.718,o),
(220,84,cs),
(220,42.376,o),
(178.929,-0.149,o),
(128.793,-0.149,cs),
(80.462,-0.149,o),
(30,32.861,o),
(30,79,cs),
(30,203.495,o),
(130.9,535.5,o),
(82,617,c),
(82,623,l),
(155,705,o),
(273,684,o),
(273,572,cs)
);
},
{
closed = 1;
nodes = (
(186.352,208.017,l),
(582.994,307.477,o),
(250.161,459.861,o),
(205,219,c),
(205,318,l),
(249,380,o),
(333,500,o),
(443,500,cs),
(576.342,500,o),
(612.013,236.315,o),
(202.943,168.363,c)
);
},
{
closed = 1;
nodes = (
(523.633,227.43,l),
(510.848,158.198,o),
(503.068,103,o),
(537,103,c),
(552,103,o),
(563,111,o),
(570,126,c),
(585,98,l),
(568,46,o),
(522,0,o),
(446,0,cs),
(313.75,0,o),
(335.937,124.303,o),
(359.468,227.43,c)
);
}
);
width = 600;
}
);
},
{
glyphname = k.002;
layers = (
{
layerId = "CDFC0212-EC7A-4000-86F8-EA19B9E6D7F9";
shapes = (
{
closed = 1;
nodes = (
(273,488.491,o),
(225.606,368.531,o),
(209,285,cs),
(202.943,254.53,o),
(206.854,240.173,o),
(206.939,224.662,cs),
(207.341,151.718,o),
(220,151.718,o),
(220,84,cs),
(220,42.376,o),
(178.929,-0.149,o),
(128.793,-0.149,cs),
(80.462,-0.149,o),
(30,32.861,o),
(30,79,cs),
(30,203.495,o),
(130.9,535.5,o),
(82,617,c),
(82,623,l),
(155,705,o),
(273,684,o),
(273,572,cs)
);
},
{
closed = 1;
nodes = (
(303.239,236.371,l),
(520.881,355.831,o),
(250.161,459.861,o),
(205,219,c),
(205,318,l),
(249,380,o),
(313,500,o),
(423,500,cs),
(556.342,500,o),
(565.619,284.669,o),
(335.549,196.717,c)
);
},
{
closed = 1;
nodes = (
(319.402,241.945,o),
(349.336,264.459,o),
(379.27,294.974,c),
(350.343,175.363,o),
(497.982,84,o),
(550,126,c),
(471.67,-85.859,o),
(187.573,-20.241,o),
(289.468,227.43,c)
);
}
);
width = 580;
}
);
},
{
glyphname = k.003;
layers = (
{
layerId = "CDFC0212-EC7A-4000-86F8-EA19B9E6D7F9";
shapes = (
{
closed = 1;
nodes = (
(273,488.491,o),
(225.606,368.531,o),
(209,285,cs),
(202.943,254.53,o),
(206.854,240.173,o),
(206.939,224.662,cs),
(207.341,151.718,o),
(220,151.718,o),
(220,84,cs),
(220,42.376,o),
(178.929,-0.149,o),
(128.793,-0.149,cs),
(80.462,-0.149,o),
(30,32.861,o),
(30,79,cs),
(30,203.495,o),
(130.9,535.5,o),
(82,617,c),
(82,623,l),
(155,705,o),
(273,684,o),
(273,572,cs)
);
},
{
closed = 1;
nodes = (
(303.239,236.371,l),
(510.881,355.831,o),
(252.101,465.523,o),
(206.939,224.662,c),
(176.493,256.359,o),
(175.446,286.303,o),
(205,318,c),
(249,380,o),
(313,500,o),
(423,500,cs),
(556.342,500,o),
(595.619,274.669,o),
(335.549,196.717,c)
);
},
{
closed = 1;
nodes = (
(551.094,113.705,l),
(466.537,-83.181,o),
(189.596,-13.322,o),
(289.468,229.43,c),
(319.402,243.945,o),
(349.336,262.459,o),
(379.27,294.974,c),
(352.124,182.727,o),
(486.471,95.358,o),
(545.368,119.734,c)
);
}
);
width = 580;
}
);
},
{
glyphname = k.004;
layers = (
{
layerId = "CDFC0212-EC7A-4000-86F8-EA19B9E6D7F9";
shapes = (
{
closed = 1;
nodes = (
(273,488.491,o),
(225.606,368.531,o),
(209,285,cs),
(202.943,254.53,o),
(206.854,240.173,o),
(206.939,224.662,cs),
(207.341,151.718,o),
(220,151.718,o),
(220,84,cs),
(220,42.376,o),
(178.929,-0.149,o),
(128.793,-0.149,cs),
(80.462,-0.149,o),
(30,32.861,o),
(30,79,cs),
(30,203.495,o),
(130.9,535.5,o),
(82,617,c),
(82,623,l),
(155,705,o),
(273,684,o),
(273,572,cs)
);
},
{
closed = 1;
nodes = (
(303.239,236.371,l),
(510.881,355.831,o),
(252.101,465.523,o),
(206.939,224.662,c),
(176.493,256.359,o),
(175.446,286.303,o),
(205,318,c),
(249,380,o),
(313,500,o),
(423,500,cs),
(556.342,500,o),
(595.619,274.669,o),
(335.549,196.717,c)
);
},
{
closed = 1;
nodes = (
(551.094,113.705,l),
(466.537,-83.181,o),
(189.596,-13.322,o),
(289.468,229.43,c),
(319.402,243.945,o),
(349.336,262.459,o),
(379.27,294.974,c),
(352.124,182.727,o),
(486.471,95.358,o),
(545.368,119.734,c)
);
}
);
width = 580;
}
);
},
{
glyphname = k.005;
layers = (
{
layerId = "CDFC0212-EC7A-4000-86F8-EA19B9E6D7F9";
shapes = (
{
closed = 1;
nodes = (
(273,488.491,o),
(225.606,368.531,o),
(209,285,cs),
(202.943,254.53,o),
(206.854,240.173,o),
(206.939,224.662,cs),
(207.341,151.718,o),
(220,151.718,o),
(220,84,cs),
(220,42.376,o),
(178.929,-0.149,o),
(128.793,-0.149,cs),
(80.462,-0.149,o),
(30,32.861,o),
(30,79,cs),
(30,203.495,o),
(130.9,535.5,o),
(82,617,c),
(82,623,l),
(155,705,o),
(273,684,o),
(273,572,cs)
);
},
{
closed = 1;
nodes = (
(303.239,236.371,l),
(500.881,355.831,o),
(252.101,465.523,o),
(206.939,224.662,c),
(195,288,l),
(216.719,361.35,o),
(313,500,o),
(423,500,cs),
(556.342,500,o),
(595.619,274.669,o),
(335.549,196.717,c)
);
},
{
closed = 1;
nodes = (
(551.094,113.705,l),
(466.537,-83.181,o),
(189.596,-13.322,o),
(289.468,229.43,c),
(319.402,243.945,o),
(349.336,262.459,o),
(379.27,294.974,c),
(352.124,182.727,o),
(486.471,95.358,o),
(545.368,119.734,c)
);
}
);
width = 551.09;
}
);
},
{
glyphname = k.006;
layers = (
{
layerId = "CDFC0212-EC7A-4000-86F8-EA19B9E6D7F9";
shapes = (
{
closed = 1;
nodes = (
(187.226,-0.149,o),
(220,47.43,o),
(220,94,cs),
(220,156.904,o),
(199.864,182.612,o),
(206.939,224.662,cs),
(219.727,300.673,o),
(270.897,368.037,o),
(331.442,368.037,cs),
(360.515,368.037,o),
(382.884,351.683,o),
(382.884,326.826,cs),
(382.884,283.729,o),
(321.048,244.743,o),
(289.468,229.43,c),
(189.596,-13.322,o),
(466.537,-83.181,o),
(551.094,113.705,c),
(545.368,119.734,l),
(494.954,98.869,o),
(389.258,159.878,o),
(376.883,248.282,c),
(344.956,199.642,l),
(476.121,241.932,o),
(527.363,322.676,o),
(527.363,389.803,cs),
(527.363,450.461,o),
(485.522,500,o),
(423,500,cs),
(316.922,500,o),
(253.622,388.404,o),
(209.784,324.845,c),
(216.409,317.457,l),
(236.583,397.588,o),
(273,498.798,o),
(273,572,cs),
(273,684,o),
(155,705,o),
(82,623,c),
(82,617,l),
(130.9,538.53,o),
(30,218.867,o),
(30,99,cs),
(30,41.202,o),
(68.414,-0.149,o),
(123.793,-0.149,cs)
);
}
);
width = 551.09;
}
);
},
{
glyphname = n.003;
layers = (
{
background = {
shapes = (
{
closed = 1;
nodes = (
(15,381,l),
(22,419,o),
(79,500,o),
(187,500,cs),
(295,500,o),
(312,394,o),
(255,298,cs),
(238,270,o),
(245,237,o),
(242,205,c),
(238,156,o),
(260,121,o),
(260,85,cs),
(260,42,o),
(213,0,o),
(160,0,cs),
(114,0,o),
(70,35,o),
(70,86,c),
(70,198,o),
(101,266,o),
(111,314,cs),
(133,415,o),
(71,418,o),
(39,367,c)
);
},
{
closed = 1;
nodes = (
(243,318,l),
(287,380,o),
(351,500,o),
(461,500,cs),
(660,500,o),
(451,103,o),
(542,103,c),
(557,103,o),
(568,111,o),
(575,126,c),
(590,98,l),
(573,46,o),
(527,0,o),
(451,0,cs),
(225,0,o),
(450,363,o),
(362,363,cs),
(311,363,o),
(255,283,o),
(243,219,c)
);
}
);
};
layerId = "CDFC0212-EC7A-4000-86F8-EA19B9E6D7F9";
shapes = (
{
closed = 1;
nodes = (
(10,381,l),
(17,419,o),
(74,500,o),
(182,500,cs),
(290,500,o),
(307,394,o),
(250,298,cs),
(233,270,o),
(240,237,o),
(237,205,c),
(233,156,o),
(255,121,o),
(255,85,cs),
(255,42,o),
(208,0,o),
(155,0,cs),
(109,0,o),
(65,35,o),
(65,86,c),
(65,198,o),
(96,266,o),
(106,314,cs),
(128,415,o),
(66,418,o),
(34,367,c)
);
},
{
closed = 1;
nodes = (
(238,318,l),
(282,380,o),
(346,500,o),
(456,500,cs),
(655,500,o),
(446,103,o),
(537,103,c),
(552,103,o),
(563,111,o),
(570,126,c),
(585,98,l),
(568,46,o),
(522,0,o),
(446,0,cs),
(220,0,o),
(445,363,o),
(357,363,cs),
(306,363,o),
(250,283,o),
(238,219,c)
);
}
);
width = 605;
}
);
},
{
glyphname = n.004;
layers = (
{
background = {
shapes = (
{
closed = 1;
nodes = (
(15,381,l),
(22,419,o),
(79,500,o),
(187,500,cs),
(295,500,o),
(312,394,o),
(255,298,cs),
(238,270,o),
(245,237,o),
(242,205,c),
(238,156,o),
(260,121,o),
(260,85,cs),
(260,42,o),
(213,0,o),
(160,0,cs),
(114,0,o),
(70,35,o),
(70,86,c),
(70,198,o),
(101,266,o),
(111,314,cs),
(133,415,o),
(71,418,o),
(39,367,c)
);
},
{
closed = 1;
nodes = (
(243,318,l),
(287,380,o),
(351,500,o),
(461,500,cs),
(660,500,o),
(451,103,o),
(542,103,c),
(557,103,o),
(568,111,o),
(575,126,c),
(590,98,l),
(573,46,o),
(527,0,o),
(451,0,cs),
(225,0,o),
(450,363,o),
(362,363,cs),
(311,363,o),
(255,283,o),
(243,219,c)
);
}
);
};
layerId = "CDFC0212-EC7A-4000-86F8-EA19B9E6D7F9";
shapes = (
{
closed = 1;
nodes = (
(167.652,471.344,o),
(65,293.058,o),
(65,99,cs),
(65,35,o),
(109,0,o),
(155,0,cs),
(208,0,o),
(255,43,o),
(255,93,cs),
(255,158.184,o),
(230.846,182.612,o),
(237,224.5,cs),
(248.805,304.858,o),
(275.779,363,o),
(357,363,cs),
(445,363,o),
(220,0,o),
(446,0,cs),
(522,0,o),
(568,46,o),
(585,98,c),
(570,126,l),
(563,111,o),
(552,103,o),
(537,103,cs),
(446,103,o),
(655,500,o),
(456,500,cs),
(366.136,500,o),
(306.973,419.913,o),
(264.334,356.787,c),
(272.272,346.348,l),
(298.794,426.421,o),
(271.981,500,o),
(182,500,cs),
(74,500,o),
(17,419,o),
(18.984,375.759,c),
(25.016,372.241,l)
);
}
);
width = 605;
}
);
},
{
glyphname = n.005;
layers = (
{
background = {
shapes = (
{
closed = 1;
nodes = (
(15,381,l),
(22,419,o),
(79,500,o),
(187,500,cs),
(295,500,o),
(312,394,o),
(255,298,cs),
(238,270,o),
(245,237,o),
(242,205,c),
(238,156,o),
(260,121,o),
(260,85,cs),
(260,42,o),
(213,0,o),
(160,0,cs),
(114,0,o),
(70,35,o),
(70,86,c),
(70,198,o),
(101,266,o),
(111,314,cs),
(133,415,o),
(71,418,o),
(39,367,c)
);
},
{
closed = 1;
nodes = (
(243,318,l),
(287,380,o),
(351,500,o),
(461,500,cs),
(660,500,o),
(451,103,o),
(542,103,c),
(557,103,o),
(568,111,o),
(575,126,c),
(590,98,l),
(573,46,o),
(527,0,o),
(451,0,cs),
(225,0,o),
(450,363,o),
(362,363,cs),
(311,363,o),
(255,283,o),
(243,219,c)
);
}
);
};
layerId = "CDFC0212-EC7A-4000-86F8-EA19B9E6D7F9";
shapes = (
{
closed = 1;
nodes = (
(316.521,490.66,o),
(133.28,588.407,o),
(20.734,386.402,c),
(20.734,380.402,l),
(169.879,428.5,o),
(60,218.867,o),
(60,99,cs),
(60,41.202,o),
(98.414,-0.149,o),
(153.793,-0.149,cs),
(217.226,-0.149,o),
(250,47.43,o),
(250,94,cs),
(250,156.904,o),
(229.401,182.532,o),
(236.939,224.502,cs),
(248.477,288.747,o),
(302,363,o),
(353,363,cs),
(441,363,o),
(216,0,o),
(442,0,cs),
(518,0,o),
(564,46,o),
(581,98,c),
(566,126,l),
(559,111,o),
(548,103,o),
(533,103,cs),
(442,103,o),
(651,500,o),
(451.579,500,cs),
(356.786,500,o),
(303.762,449.483,o),
(272.277,371.927,c),
(270.653,372.301,l)
);
}
);
width = 605;
}
);
},
{
glyphname = o.002;
layers = (
{
background = {
shapes = (
{
closed = 1;
nodes = (
(600.73,-6,o),
(663.73,507,o),
(334.23,507,cs),
(-5.27,507,o),
(-77.27,-6,o),
(257.73,-6,cs)
);
},
{
closed = 1;
nodes = (
(193.105,85.5,o),
(201.073,415.5,o),
(301.125,415.5,cs),
(393.355,415.5,o),
(385.306,85.5,o),
(285.211,85.5,cs)
);
}
);
};
layerId = "CDFC0212-EC7A-4000-86F8-EA19B9E6D7F9";
shapes = (
{
closed = 1;
nodes = (
(600.73,-6,o),
(663.73,507,o),
(334.23,507,cs),
(-5.27,507,o),
(-77.27,-6,o),
(257.73,-6,cs)
);
},
{
closed = 1;
nodes = (
(190.101,78.9,o),
(198.388,422.1,o),
(301.442,422.1,cs),
(396.361,422.1,o),
(387.99,78.9,o),
(284.891,78.9,cs)
);
}
);
width = 583.86;
}
);
},
{
glyphname = p.001;
layers = (
{
layerId = "CDFC0212-EC7A-4000-86F8-EA19B9E6D7F9";
shapes = (
{
closed = 1;
nodes = (
(249.569,146.359,o),
(191.384,-83.026,o),
(228.004,-144.06,c),
(228.004,-150.06,l),
(155.004,-232.06,o),
(37.004,-211.06,o),
(37.004,-99.06,cs),
(37.004,22.107,o),
(161.857,402.437,o),
(82.146,402.437,cs),
(70.845,402.437,o),
(57.6,392.546,o),
(45.004,374.94,c),
(30.004,402.94,l),
(48.459,459.39,o),
(114.244,500.68,o),
(173.768,500.683,cs),
(283.976,500.687,o),
(288.476,376.558,o),
(274.885,296.146,cs)
);
},
{
closed = 1;
nodes = (
(249.464,165.92,l),
(317.013,4.026,o),
(415.032,152.81,o),
(415.034,267.095,cs),
(415.037,448.142,o),
(301.174,396.356,o),
(249.881,169.079,c),
(236.004,274.146,l),
(269.244,424.69,o),
(357.563,500.835,o),
(435.635,500.746,cs),
(509.624,500.662,o),
(574.409,432.111,o),
(574.39,293.533,cs),
(574.37,153.291,o),
(497.25,-6.245,o),
(353.484,-6.251,cs),
(297.467,-6.254,o),
(235.498,29.921,o),
(218.004,116.94,c)
);
}
);
width = 600;
}
);
},
{
glyphname = p.002;
layers = (
{
layerId = "CDFC0212-EC7A-4000-86F8-EA19B9E6D7F9";
shapes = (
{
closed = 1;
nodes = (
(249.569,146.359,o),
(191.384,-83.026,o),
(228.004,-144.06,c),
(228.004,-150.06,l),
(155.004,-232.06,o),
(37.004,-211.06,o),
(37.004,-99.06,cs),
(37.004,22.107,o),
(161.857,402.437,o),
(82.146,402.437,cs),
(70.845,402.437,o),
(57.6,392.546,o),
(45.004,374.94,c),
(30.004,402.94,l),
(48.459,459.39,o),
(114.244,500.68,o),
(173.768,500.683,cs),
(283.976,500.687,o),
(288.476,376.558,o),
(274.885,296.146,cs)
);
},
{
closed = 1;
nodes = (
(243.074,205.365,l),
(244.876,136.958,o),
(276.932,101.192,o),
(312.776,101.192,cs),
(378.959,101.192,o),
(414.746,206.659,o),
(414.746,289.947,cs),
(414.746,344.291,o),
(399.51,389.192,o),
(367.54,389.192,cs),
(330.361,389.192,o),
(274.489,316.102,o),
(248.451,151.628,c),
(201.496,188.272,l),
(270.38,556.339,o),
(576.12,605.691,o),
(576.12,299.513,cs),
(576.12,160.714,o),
(501.025,-0.105,o),
(360.387,-0.105,cs),
(281.316,-0.105,o),
(210.963,60.783,o),
(211.614,176.385,c)
);
}
);
width = 600;
}
);
},
{
glyphname = q.001;
layers = (
{
layerId = "CDFC0212-EC7A-4000-86F8-EA19B9E6D7F9";
shapes = (
{
closed = 1;
nodes = (
(354.93,335.02,l),
(287.381,496.914,o),
(189.362,348.13,o),
(189.36,233.845,cs),
(189.357,52.798,o),
(303.22,104.584,o),
(354.513,331.861,c),
(368.39,226.794,l),
(335.15,76.25,o),
(246.831,0.105,o),
(168.759,0.194,cs),
(94.77,0.278,o),
(29.985,68.829,o),
(30.004,207.407,cs),
(30.024,347.649,o),
(107.144,507.185,o),
(250.91,507.191,cs),
(306.927,507.194,o),
(368.896,471.019,o),
(386.39,384,c)
);
},
{
closed = 1;
nodes = (
(323.769,161.518,o),
(381.954,390.903,o),
(345.334,451.937,c),
(345.334,457.937,l),
(418.334,539.937,o),
(536.334,518.937,o),
(536.334,406.937,cs),
(536.334,285.77,o),
(411.481,-94.56,o),
(491.192,-94.56,cs),
(502.493,-94.56,o),
(515.738,-84.669,o),
(528.334,-67.063,c),
(543.334,-95.063,l),
(524.879,-151.513,o),
(459.094,-192.803,o),
(399.57,-192.806,cs),
(289.362,-192.81,o),
(284.862,-68.681,o),
(298.453,11.731,cs)
);
}
);
width = 600;
}
);
},
{
glyphname = q.002;
layers = (
{
layerId = "CDFC0212-EC7A-4000-86F8-EA19B9E6D7F9";
shapes = (
{
closed = 1;
nodes = (
(354.93,335.02,l),
(287.381,496.914,o),
(189.362,348.13,o),
(189.36,233.845,cs),
(189.357,52.798,o),
(303.22,104.584,o),
(354.513,331.861,c),
(368.39,226.794,l),
(335.15,76.25,o),
(246.831,0.105,o),
(168.759,0.194,cs),
(94.77,0.278,o),
(29.985,68.829,o),
(30.004,207.407,cs),
(30.024,347.649,o),
(107.144,507.185,o),
(250.91,507.191,cs),
(306.927,507.194,o),
(368.896,471.019,o),
(386.39,384,c)
);
},
{
closed = 1;
nodes = (
(445.63,279.441,o),
(333.334,449.937,c),
(333.334,455.937,l),
(406.334,537.937,o),
(534.334,516.937,o),
(534.334,404.937,cs),
(534.334,283.77,o),
(359.481,-186.56,o),
(439.192,-186.56,cs),
(450.493,-186.56,o),
(463.738,-176.669,o),
(476.334,-159.063,c),
(491.334,-187.063,l),
(472.879,-243.513,o),
(397.094,-284.803,o),
(337.57,-284.806,cs),
(76.664,-284.806,o)
);
}
);
width = 600;
}
);
},
{
glyphname = q.003;
layers = (
{
layerId = "CDFC0212-EC7A-4000-86F8-EA19B9E6D7F9";
shapes = (
{
closed = 1;
nodes = (
(76.664,-284.806,o),
(445.63,279.441,o),
(333.334,449.937,c),
(333.334,455.937,l),
(406.334,537.937,o),
(534.334,516.937,o),
(534.334,404.937,cs),
(534.334,283.77,o),
(359.481,-186.56,o),
(439.192,-186.56,cs),
(450.493,-186.56,o),
(463.738,-176.669,o),
(476.334,-159.063,c),
(491.334,-187.063,l),
(472.879,-243.513,o),
(397.094,-284.803,o),
(337.57,-284.806,cs)
);
},
{
closed = 1;
nodes = (
(387.076,326.323,l),
(366.992,390.684,o),
(332.125,420.785,o),
(297.256,420.785,cs),
(227.012,420.785,o),
(189.267,309.754,o),
(189.267,224.385,cs),
(189.267,171.068,o),
(203.989,127.76,o),
(234.712,127.76,cs),
(268.105,127.76,o),
(318.439,205.561,o),
(355.25,342.06,c),
(358.621,241.543,l),
(325.381,90.999,o),
(244.741,0.105,o),
(166.669,0.194,cs),
(69.348,0.305,o),
(24.002,86.223,o),
(24.002,187.17,cs),
(24.002,331.047,o),
(116.119,505.452,o),
(281.157,505.452,cs),
(348.33,505.452,o),
(408.431,469.318,o),
(431.316,395.109,c)
);
}
);
width = 600;
}
);
},
{
glyphname = r.001;
layers = (
{
layerId = "CDFC0212-EC7A-4000-86F8-EA19B9E6D7F9";
shapes = (
{
closed = 1;
nodes = (
(367.086,500.978,o),
(300.449,434.976,o),
(247.413,316.628,c),
(255.238,311.706,l),
(296.28,399.355,o),
(270.563,500,o),
(184.1,500,cs),
(76.1,500,o),
(33.084,413.759,o),
(35.069,370.518,c),
(41.1,367,l),
(77.099,404.578,o),
(106.645,384.454,o),
(106.645,349.423,cs),
(106.645,293.335,o),
(67.1,180.684,o),
(67.1,99,cs),
(67.1,41,o),
(111.1,0,o),
(157.1,0,cs),
(210.1,0,o),
(257.1,48,o),
(257.1,94,cs),
(257.1,158.184,o),
(231.729,182.809,o),
(239.1,224.5,cs),
(263.778,364.071,o),
(364.841,352.105,o),
(369.642,278.197,c),
(373.522,275.759,l),
(493.145,272.759,o),
(524.231,500.978,o),
(419.553,500.978,cs)
);
}
);
width = 508.11;
}
);
},
{
glyphname = t.001;
lastChange = "2023-05-09 01:16:13 +0000";
layers = (
{
guides = (
{
angle = 270;
pos = (349.596,499.905);
}
);
layerId = "CDFC0212-EC7A-4000-86F8-EA19B9E6D7F9";
shapes = (
{
closed = 1;
nodes = (
(70.473,437.238,o),
(70.95,454.572,o),
(76.427,481.905,c),
(168.608,497.905,o),
(235.646,502.905,o),
(349.596,499.905,c),
(359.119,472.572,o),
(358.642,445.238,o),
(348.165,417.905,c),
(234.215,425.905,o),
(167.177,415.905,o),
(74.996,409.905,c)
);
},
{
closed = 1;
nodes = (
(323.438,611.147,o),
(247.349,295.834,o),
(247.349,162.574,cs),
(247.349,67.903,o),
(291.206,97.802,o),
(311.38,126,c),
(329.38,103,l),
(305.86,-18.934,o),
(75.65,-67.858,o),
(75.65,140.724,cs),
(75.65,209.074,o),
(153.997,604.033,o),
(153.997,632.227,cs),
(153.997,653.886,o),
(197.006,671.174,o),
(240.927,671.174,cs),
(279.133,671.174,o),
(318.03,658.092,o),
(329.905,623.424,c)
);
}
);
width = 369.6;
}
);
},
{
glyphname = t.002;
lastChange = "2023-05-09 01:16:03 +0000";
layers = (
{
guides = (
{
angle = 270;
pos = (349.596,499.905);
}
);
layerId = "CDFC0212-EC7A-4000-86F8-EA19B9E6D7F9";
shapes = (
{
closed = 1;
nodes = (
(70.473,437.238,o),
(70.95,454.572,o),
(76.427,481.905,c),
(168.608,497.905,o),
(235.646,502.905,o),
(349.596,499.905,c),
(359.119,472.572,o),
(358.642,445.238,o),
(348.165,417.905,c),
(234.215,425.905,o),
(167.177,415.905,o),
(74.996,409.905,c)
);
},
{
closed = 1;
nodes = (
(323.438,611.147,o),
(247.349,295.834,o),
(247.349,162.574,cs),
(247.349,67.903,o),
(291.206,97.802,o),
(311.38,126,c),
(329.38,103,l),
(305.86,-18.934,o),
(75.65,-67.858,o),
(75.65,140.724,cs),
(75.65,209.074,o),
(153.997,604.033,o),
(153.997,632.227,cs),
(153.997,653.886,o),
(197.006,671.174,o),
(240.927,671.174,cs),
(279.133,671.174,o),
(318.03,658.092,o),
(329.905,623.424,c)
);
},
{
closed = 1;
nodes = (
(126.332,489.055,o),
(132.636,502.905,o),
(141.758,553.971,c),
(148.672,470.852,l),
(80.607,467.789,l),
(76.427,481.905,l)
);
}
);
width = 369.6;
}
);
},
{
glyphname = t.003;
layers = (
{
layerId = "CDFC0212-EC7A-4000-86F8-EA19B9E6D7F9";
shapes = (
{
closed = 1;
nodes = (
(273.927,410.758,l),
(245.484,267.578,o),
(194.147,103.996,o),
(246.756,103.996,cs),
(265.621,103.996,o),
(287.581,120.906,o),
(298.38,136,c),
(313.38,108,l),
(301.707,47.483,o),
(228.267,-1.859,o),
(170.98,-1.859,cs),
(110.51,-1.859,o),
(55.65,36.834,o),
(55.65,140.724,cs),
(55.65,216.276,o),
(91.576,318.089,o),
(110.97,410.758,c)
);
},
{
closed = 1;
nodes = (
(21.427,465.905,l),
(153.608,481.905,o),
(236.646,482.905,o),
(349.596,485.905,c),
(348.165,403.905,l),
(235.215,400.905,o),
(152.177,399.905,o),
(19.996,383.905,c)
);
},
{
closed = 1;
nodes = (
(114.793,427.744,l),
(127.183,511.414,o),
(121.651,584.331,o),
(102.05,617,c),
(102.05,623,l),
(175.05,705,o),
(293.05,684,o),
(293.05,572,cs),
(293.05,530.036,o),
(291.083,478.869,o),
(277.068,427.744,c)
);
}
);
width = 369.6;
}
);
},
{
glyphname = w.001;
lastChange = "2023-05-09 15:43:52 +0000";
layers = (
{
layerId = "CDFC0212-EC7A-4000-86F8-EA19B9E6D7F9";
shapes = (
{
closed = 1;
nodes = (
(378.643,229.055,l),
(297.349,-56.104,o),
(65.744,-47.932,o),
(65.744,104.789,cs),
(65.744,188.977,o),
(100.528,294.624,o),
(100.528,352.273,cs),
(100.528,402.209,o),
(58.407,389.201,o),
(43.38,357,c),
(20.001,370.684,l),
(53.633,521.461,o),
(276.609,552.535,o),
(276.609,407.361,cs),
(276.609,360.222,o),
(237.916,250.415,o),
(237.916,184.741,cs),
(237.916,80.753,o),
(329.822,151.628,o),
(368.717,312.077,c)
);
},
{
closed = 0;
nodes = (
(557.63,164,l),
(572.63,136,l)
);
},
{
closed = 0;
nodes = (
(806.909,110.112,ls),
(849.016,110.112,o),
(911.81,171.252,o),
(911.81,349.89,cs),
(911.81,385.914,o),
(907.751,417.764,o),
(899.417,438.737,c),
(899.417,444.284,l),
(914.96,470.508,o),
(968.854,501.207,o),
(1012.24,501.207,cs),
(1052.347,501.207,o),
(1087.748,464.973,o),
(1087.748,384.722,cs),
(1087.748,124.482,o),
(880.679,0.041,o),
(739.566,0.041,cs)
);
},
{
closed = 0;
nodes = (
(572.63,136,l),
(552.411,74.153,o),
(492.969,-0.064,o),
(435.328,-0.064,c)
);
},
{
closed = 0;
nodes = (
(435.328,-0.064,l),
(380.125,-0.064,o),
(329.822,39.925,o),
(329.822,128.882,cs),
(329.822,253.778,o),
(400.166,316.68,o),
(369.691,440.203,c),
(369.712,446.922,l),
(418.535,532.163,o),
(553.536,518.08,o),
(553.536,403.847,cs),
(553.536,334.566,o),
(489.818,249.756,o),
(489.818,175.075,cs),
(489.818,153.629,o),
(497.287,141.061,o),
(508.122,137.137,cs),
(521.98,132.117,o),
(541.344,141.236,o),
(557.63,164,c)
);
}
);
width = 1037.75;
}
);
},
{
glyphname = x.001;
layers = (
{
annotations = (
{
pos = (676.554,-48.97);
type = Text;
}
);
layerId = "CDFC0212-EC7A-4000-86F8-EA19B9E6D7F9";
shapes = (
{
closed = 1;
nodes = (
(56.361,418.918,o),
(100.169,506.764,o),
(180.481,506.764,cs),
(215.222,506.764,o),
(246.476,484.766,o),
(274.877,449.016,cs),
(305.346,410.661,o),
(414.405,193.286,o),
(438.359,158.047,cs),
(462.583,122.411,o),
(526.834,122.035,o),
(540.798,162.799,c),
(559,153.146,l),
(559,81.847,o),
(526.087,-5.999,o),
(443.952,-5.999,cs),
(399.076,-5.999,o),
(332.134,26.879,o),
(299.716,73.761,cs),
(244.286,153.924,o),
(202.086,275.029,o),
(156.074,342.718,cs),
(144.729,359.408,o),
(127.963,369.038,o),
(112.211,369.038,cs),
(96.553,369.038,o),
(81.897,359.522,o),
(74.563,337.966,c),
(56.361,347.619,l)
);
},
{
closed = 1;
nodes = (
(337.134,542.325,o),
(653.472,595.24,o),
(538.908,334.524,c),
(535.388,336.962,l),
(431.192,340.851,o),
(382.152,288.849,o),
(342.186,175.522,c),
(319.236,204.966,l)
);
},
{
closed = 1;
nodes = (
(244.923,85.29,o),
(158.256,1.285,o),
(98.442,1.285,cs),
(49.182,1.285,o),
(12.029,51.478,o),
(12.029,100.595,cs),
(12.029,131.016,o),
(26.282,161.024,o),
(60.737,178.437,c),
(88.297,164.567,o),
(116.428,154.702,o),
(142.776,154.702,cs),
(197.325,154.702,o),
(234.239,206.982,o),
(252.655,343.533,c),
(295.605,325.089,l)
);
}
);
width = 586.95;
}
);
},
{
glyphname = x.002;
layers = (
{
annotations = (
{
pos = (676.554,-48.97);
type = Text;
}
);
layerId = "CDFC0212-EC7A-4000-86F8-EA19B9E6D7F9";
shapes = (
{
closed = 1;
nodes = (
(56.361,418.918,o),
(100.169,506.764,o),
(180.481,506.764,cs),
(215.222,506.764,o),
(246.476,484.766,o),
(274.877,449.016,cs),
(305.346,410.661,o),
(414.405,193.286,o),
(438.359,158.047,cs),
(462.583,122.411,o),
(526.834,122.035,o),
(540.798,162.799,c),
(559,153.146,l),
(559,81.847,o),
(526.087,-5.999,o),
(443.952,-5.999,cs),
(399.076,-5.999,o),
(332.134,26.879,o),
(299.716,73.761,cs),
(244.286,153.924,o),
(202.086,275.029,o),
(156.074,342.718,cs),
(144.729,359.408,o),
(127.963,369.038,o),
(112.211,369.038,cs),
(96.553,369.038,o),
(81.897,359.522,o),
(74.563,337.966,c),
(56.361,347.619,l)
);
},
{
closed = 1;
nodes = (
(337.134,542.325,o),
(653.472,595.24,o),
(538.908,334.524,c),
(535.388,336.962,l),
(431.192,340.851,o),
(382.152,288.849,o),
(342.186,175.522,c),
(319.236,204.966,l)
);
},
{
closed = 1;
nodes = (
(244.286,-33.843,o),
(-11.22,-95.488,o),
(26.808,162.79,c),
(131.004,158.901,o),
(207.339,154.713,o),
(247.305,268.04,c),
(277.775,256.913,l)
);
}
);
width = 586.95;
}
);
},
{
glyphname = x.003;
layers = (
{
annotations = (
{
pos = (676.554,-48.97);
type = Text;
}
);
layerId = "CDFC0212-EC7A-4000-86F8-EA19B9E6D7F9";
shapes = (
{
closed = 1;
nodes = (
(37.361,418.918,o),
(90.169,506.764,o),
(170.481,506.764,cs),
(205.222,506.764,o),
(236.476,484.766,o),
(264.877,449.016,cs),
(295.346,410.661,o),
(423.405,193.286,o),
(447.359,158.047,cs),
(469.982,124.767,o),
(505.087,119.853,o),
(519.798,162.799,c),
(538,153.146,l),
(538,81.847,o),
(496.087,-5.999,o),
(413.952,-5.999,cs),
(292.344,-5.999,o),
(209.995,235.442,o),
(137.074,342.718,cs),
(114.452,375.998,o),
(70.274,381.209,o),
(55.563,337.966,c),
(37.361,347.619,l)
);
},
{
closed = 1;
nodes = (
(448.328,721.244,o),
(697.4,411.67,o),
(475.176,288.013,c),
(471.83,290.33,l),
(436.194,356.312,o),
(393.635,364.308,o),
(339.163,209.85,c),
(307.4,227.38,l)
);
},
{
closed = 1;
nodes = (
(260.359,233.427,l),
(133.915,-211.454,o),
(-86.077,104.24,o),
(60.737,178.437,c),
(128.738,144.214,o),
(191.46,168.037,o),
(234.676,256.763,c)
);
}
);
width = 586.95;
}
);
},
{
glyphname = x.004;
layers = (
{
annotations = (
{
pos = (676.554,-48.97);
type = Text;
}
);
layerId = "CDFC0212-EC7A-4000-86F8-EA19B9E6D7F9";
shapes = (
{
closed = 1;
nodes = (
(64.05,418.918,o),
(109.456,506.764,o),
(187.635,506.764,cs),
(266.232,506.764,o),
(340.112,365.687,o),
(369.711,298.232,cs),
(451.015,112.939,o),
(514.059,90.005,o),
(538.332,162.799,c),
(556.05,153.146,l),
(556.05,81.847,o),
(519.251,-5.999,o),
(439.297,-5.999,cs),
(363.665,-5.999,o),
(282.613,90.483,o),
(240.731,191.705,cs),
(154.076,401.14,o),
(101.694,388.346,o),
(85.769,340.966,c),
(64.05,347.619,l)
);
},
{
closed = 1;
nodes = (
(386.542,641.27,o),
(640.28,520,o),
(544.976,332.963,c),
(468.708,343.16,o),
(400.248,317.578,o),
(359.033,209.85,c),
(337.44,225.112,l)
);
},
{
closed = 1;
nodes = (
(212.99,-148.177,o),
(-41.748,-2.27,o),
(34.556,134.767,c),
(110.824,124.57,o),
(209.284,175.515,o),
(260.499,283.243,c),
(292.092,267.981,l)
);
}
);
width = 596.05;
}
);
},
{
glyphname = y.001;
layers = (
{
layerId = "CDFC0212-EC7A-4000-86F8-EA19B9E6D7F9";
shapes = (
{
closed = 1;
nodes = (
(214.189,122.516,o),
(227.943,110.112,o),
(246.909,110.112,cs),
(289.016,110.112,o),
(351.81,171.252,o),
(351.81,349.89,cs),
(351.81,385.914,o),
(347.751,417.764,o),
(339.417,438.737,c),
(339.417,444.284,l),
(354.96,470.508,o),
(408.854,501.207,o),
(452.24,501.207,cs),
(492.347,501.207,o),
(527.748,464.973,o),
(527.748,384.722,cs),
(527.748,124.482,o),
(320.679,0.041,o),
(179.566,0.041,cs),
(100.867,0.041,o),
(49.571,41.857,o),
(49.571,126.988,cs),
(49.571,213.534,o),
(89.615,319.991,o),
(89.615,367.344,cs),
(89.615,386.919,o),
(80.063,395.514,o),
(68.62,395.514,cs),
(55.916,395.514,o),
(40.882,384.921,o),
(34,367,c),
(15,387,l),
(26.978,453.298,o),
(90.849,502.674,o),
(158.407,502.674,cs),
(209.677,502.674,o),
(253.28,474.235,o),
(253.28,403.171,cs),
(253.28,309.05,o),
(214.189,199.952,o),
(214.189,142.174,cs)
);
},
{
closed = 1;
nodes = (
(501.116,241.234,l),
(488.274,24.554,o),
(462.615,-283.663,o),
(309.154,-283.663,cs),
(174.058,-283.656,o),
(63.511,-139.21,o),
(323.248,-0.951,c),
(341.587,-34.853,l),
(174.058,-144.083,o),
(226.231,-171.497,o),
(237.532,-171.497,cs),
(290.405,-171.497,o),
(322.618,54.016,o),
(338.316,241.234,c)
);
}
);
width = 600;
}
);
},
{
glyphname = y.002;
layers = (
{
layerId = "CDFC0212-EC7A-4000-86F8-EA19B9E6D7F9";
shapes = (
{
closed = 1;
nodes = (
(214.189,122.516,o),
(227.943,110.112,o),
(246.909,110.112,cs),
(289.016,110.112,o),
(351.81,171.252,o),
(351.81,349.89,cs),
(351.81,385.914,o),
(347.751,417.764,o),
(339.417,438.737,c),
(339.417,444.284,l),
(354.96,470.508,o),
(408.854,501.207,o),
(452.24,501.207,cs),
(492.347,501.207,o),
(527.748,464.973,o),
(527.748,384.722,cs),
(527.748,124.482,o),
(320.679,0.041,o),
(179.566,0.041,cs),
(100.867,0.041,o),
(49.571,41.857,o),
(49.571,126.988,cs),
(49.571,213.534,o),
(89.615,319.991,o),
(89.615,367.344,cs),
(89.615,386.919,o),
(80.063,395.514,o),
(68.62,395.514,cs),
(55.916,395.514,o),
(40.882,384.921,o),
(34,367,c),
(15,387,l),
(26.978,453.298,o),
(90.849,502.674,o),
(158.407,502.674,cs),
(209.677,502.674,o),
(253.28,474.235,o),
(253.28,403.171,cs),
(253.28,309.05,o),
(214.189,199.952,o),
(214.189,142.174,cs)
);
},
{
closed = 1;
nodes = (
(485.134,207.719,l),
(472.293,-8.962,o),
(456.615,-283.663,o),
(303.154,-283.663,cs),
(168.058,-283.656,o),
(57.511,-139.21,o),
(317.248,-0.951,c),
(335.587,-34.853,l),
(168.058,-144.083,o),
(220.231,-171.497,o),
(231.532,-171.497,cs),
(284.405,-171.497,o),
(355.793,-5.648,o),
(326.045,181.571,c)
);
}
);
width = 600;
}
);
},
{
glyphname = y.003;
layers = (
{
layerId = "CDFC0212-EC7A-4000-86F8-EA19B9E6D7F9";
shapes = (
{
closed = 1;
nodes = (
(404.809,178.814,l),
(331.624,82.959,o),
(265.942,0.041,o),
(179.566,0.041,cs),
(100.867,0.041,o),
(49.571,41.857,o),
(49.571,126.988,cs),
(49.571,213.534,o),
(89.615,319.991,o),
(89.615,367.344,cs),
(89.615,386.919,o),
(80.063,395.514,o),
(68.62,395.514,cs),
(55.916,395.514,o),
(40.882,384.921,o),
(34,367,c),
(15,387,l),
(26.978,453.298,o),
(90.849,502.674,o),
(158.407,502.674,cs),
(209.677,502.674,o),
(253.28,474.235,o),
(253.28,403.171,cs),
(253.28,309.05,o),
(214.189,199.952,o),
(214.189,142.174,cs),
(214.189,122.516,o),
(227.943,110.112,o),
(246.909,110.112,cs),
(273.963,110.112,o),
(327.065,155.501,o),
(334.41,228.596,c)
);
},
{
closed = 1;
nodes = (
(478.189,407.326,o),
(520.931,-283.663,o),
(292.154,-283.663,cs),
(106.259,-283.663,o),
(24.016,-96.695,o),
(313.753,91.564,c),
(332.092,57.662,l),
(134.563,-101.568,o),
(209.677,-171.497,o),
(234.532,-171.497,cs),
(314.243,-171.497,o),
(346.997,341.06,o),
(346.997,462.227,cs),
(346.997,502.728,o),
(493.38,527.944,o),
(518.905,453.424,c),
(520.905,447.424,l)
);
}
);
width = 543.9;
}
);
},
{
glyphname = y.004;
lastChange = "2023-05-09 15:04:59 +0000";
layers = (
{
layerId = "CDFC0212-EC7A-4000-86F8-EA19B9E6D7F9";
shapes = (
{
closed = 1;
nodes = (
(404.809,178.814,l),
(331.624,82.959,o),
(265.942,0.041,o),
(179.566,0.041,cs),
(100.867,0.041,o),
(49.571,41.857,o),
(49.571,126.988,cs),
(49.571,213.534,o),
(89.615,319.991,o),
(89.615,367.344,cs),
(89.615,386.919,o),
(80.063,395.514,o),
(68.62,395.514,cs),
(55.916,395.514,o),
(40.882,384.921,o),
(34,367,c),
(15,387,l),
(26.978,453.298,o),
(90.849,502.674,o),
(158.407,502.674,cs),
(209.677,502.674,o),
(253.28,474.235,o),
(253.28,403.171,cs),
(253.28,309.05,o),
(214.189,199.952,o),
(214.189,142.174,cs),
(214.189,122.516,o),
(227.943,110.112,o),
(246.909,110.112,cs),
(273.963,110.112,o),
(327.065,155.501,o),
(334.41,228.596,c)
);
},
{
closed = 1;
nodes = (
(478.189,407.326,o),
(475.07,-283.663,o),
(246.293,-283.663,cs),
(88.658,-283.663,o),
(14.795,-83.281,o),
(324.532,124.978,c),
(342.871,91.076,l),
(125.342,-88.154,o),
(189.677,-171.497,o),
(214.532,-171.497,cs),
(262.32,-171.497,o),
(313.231,12.729,o),
(330.325,186.396,cs),
(341.744,302.405,o),
(346.997,413.702,o),
(346.997,462.227,cs),
(346.997,502.728,o),
(493.38,527.944,o),
(518.905,453.424,c),
(520.905,447.424,l)
);
}
);
width = 543.9;
}
);
},
{
glyphname = y.005;
layers = (
{
layerId = "CDFC0212-EC7A-4000-86F8-EA19B9E6D7F9";
shapes = (
{
closed = 1;
nodes = (
(404.809,178.814,l),
(331.624,82.959,o),
(265.942,0.041,o),
(179.566,0.041,cs),
(100.867,0.041,o),
(49.571,41.857,o),
(49.571,126.988,cs),
(49.571,213.534,o),
(89.615,319.991,o),
(89.615,367.344,cs),
(89.615,386.919,o),
(80.063,395.514,o),
(68.62,395.514,cs),
(55.916,395.514,o),
(40.882,384.921,o),
(34,367,c),
(15,387,l),
(26.978,453.298,o),
(90.849,502.674,o),
(158.407,502.674,cs),
(209.677,502.674,o),
(253.28,474.235,o),
(253.28,403.171,cs),
(253.28,309.05,o),
(214.189,199.952,o),
(214.189,142.174,cs),
(214.189,122.516,o),
(227.943,110.112,o),
(246.909,110.112,cs),
(273.963,110.112,o),
(327.065,155.501,o),
(334.41,228.596,c)
);
},
{
closed = 1;
nodes = (
(478.189,407.326,o),
(475.07,-283.663,o),
(246.293,-283.663,cs),
(88.658,-283.663,o),
(14.795,-83.281,o),
(324.532,124.978,c),
(342.871,91.076,l),
(125.342,-88.154,o),
(189.677,-171.497,o),
(214.532,-171.497,cs),
(262.32,-171.497,o),
(313.231,12.729,o),
(330.325,186.396,cs),
(341.744,302.405,o),
(346.997,413.702,o),
(346.997,462.227,cs),
(346.997,502.728,o),
(493.38,527.944,o),
(518.905,453.424,c),
(520.905,447.424,l)
);
}
);
width = 545.9;
}
);
},
{
glyphname = y.006;
layers = (
{
layerId = "CDFC0212-EC7A-4000-86F8-EA19B9E6D7F9";
shapes = (
{
closed = 1;
nodes = (
(404.809,178.814,l),
(331.624,82.959,o),
(265.942,0.041,o),
(179.566,0.041,cs),
(100.867,0.041,o),
(49.571,41.857,o),
(49.571,126.988,cs),
(49.571,213.534,o),
(89.615,319.991,o),
(89.615,367.344,cs),
(89.615,386.919,o),
(80.063,395.514,o),
(68.62,395.514,cs),
(55.916,395.514,o),
(40.882,384.921,o),
(34,367,c),
(15,387,l),
(26.978,453.298,o),
(90.849,502.674,o),
(158.407,502.674,cs),
(209.677,502.674,o),
(241.28,474.235,o),
(241.28,403.171,cs),
(241.28,309.05,o),
(214.189,199.952,o),
(214.189,142.174,cs),
(214.189,122.516,o),
(227.943,110.112,o),
(246.909,110.112,cs),
(273.963,110.112,o),
(327.065,155.501,o),
(334.41,228.596,c)
);
},
{
closed = 1;
nodes = (
(497.049,247.625,l),
(493.865,209.893,o),
(490.5,174.164,o),
(486.767,140.44,c),
(455.947,-138.006,o),
(388.19,-249.721,o),
(112.143,-282.87,c),
(108.143,-262.573,l),
(265.942,-188.868,o),
(304.374,-82.275,o),
(326.313,142.694,c),
(329.464,175.009,o),
(332.603,209.889,o),
(335.86,247.625,c)
);
},
{
closed = 1;
nodes = (
(335.503,247.625,l),
(339.601,336.971,o),
(331.682,415.847,o),
(312.39,448,c),
(312.39,454,l),
(385.39,536,o),
(503.39,515,o),
(503.39,403,cs),
(503.39,367.83,o),
(502.977,310.826,o),
(496.985,247.625,c)
);
}
);
width = 544.92;
}
);
},
{
glyphname = y.007;
layers = (
{
layerId = "CDFC0212-EC7A-4000-86F8-EA19B9E6D7F9";
shapes = (
{
closed = 1;
nodes = (
(404.809,178.814,l),
(331.624,82.959,o),
(265.942,0.041,o),
(179.566,0.041,cs),
(100.867,0.041,o),
(49.571,41.857,o),
(49.571,126.988,cs),
(49.571,213.534,o),
(89.615,319.991,o),
(89.615,367.344,cs),
(89.615,386.919,o),
(80.063,395.514,o),
(68.62,395.514,cs),
(55.916,395.514,o),
(40.882,384.921,o),
(34,367,c),
(15,387,l),
(26.978,453.298,o),
(90.849,502.674,o),
(158.407,502.674,cs),
(209.677,502.674,o),
(253.28,474.235,o),
(253.28,403.171,cs),
(253.28,309.05,o),
(214.189,199.952,o),
(214.189,142.174,cs),
(214.189,122.516,o),
(227.943,110.112,o),
(246.909,110.112,cs),
(273.963,110.112,o),
(327.065,155.501,o),
(334.41,228.596,c)
);
},
{
closed = 1;
nodes = (
(108.143,-262.573,l),
(265.942,-188.868,o),
(304.374,-82.275,o),
(326.313,142.694,c),
(329.488,175.247,o),
(332.649,210.404,o),
(335.932,248.461,cs),
(343.49,340.567,o),
(347.017,422.468,o),
(347.017,462.227,cs),
(347.017,502.728,o),
(496.4,527.944,o),
(521.925,453.424,c),
(523.925,447.424,l),
(510.056,434.405,o),
(505.902,352.72,o),
(497.119,248.461,cs),
(493.914,210.421,o),
(490.527,174.413,o),
(486.767,140.44,c),
(455.947,-138.006,o),
(388.19,-249.721,o),
(112.143,-282.87,c)
);
}
